<?xml version="1.0" encoding="UTF-8"?>
<!DOCTYPE svg PUBLIC "-//W3C//DTD SVG 1.1//EN" "http://www.w3.org/Graphics/SVG/1.1/DTD/svg11.dtd">
<svg xmlns="http://www.w3.org/2000/svg" xmlns:xlink="http://www.w3.org/1999/xlink" version="1.1" width="601px" height="241px" viewBox="-0.5 -0.5 601 241"><defs/><g><rect x="440" y="100" width="160" height="40" fill="rgb(255, 255, 255)" stroke="rgb(0, 0, 0)" pointer-events="all"/><g fill="rgb(0, 0, 0)" font-family="Helvetica" font-weight="bold" text-anchor="middle" font-size="12px"><text x="519.5" y="110.5">&lt;&lt;BusinessCapability&gt;&gt;</text><text x="519.5" y="124.5">SolutionDelivery</text></g><rect x="110" y="100" width="170" height="40" fill="rgb(255, 255, 255)" stroke="rgb(0, 0, 0)" pointer-events="all"/><g fill="rgb(0, 0, 0)" font-family="Helvetica" font-weight="bold" text-anchor="middle" font-size="12px"><text x="194.5" y="110.5">&lt;&lt;BusinessCapability&gt;&gt;</text><text x="194.5" y="124.5">PartnerSelection</text></g><path d="M 520 100 L 520 70 L 360 70 L 360 58.12" fill="none" stroke="rgb(0, 0, 0)" stroke-miterlimit="10" pointer-events="stroke"/><path d="M 360 41.12 L 368.5 58.12 L 351.5 58.12 Z" fill="none" stroke="rgb(0, 0, 0)" stroke-miterlimit="10" pointer-events="all"/><path d="M 195 100 L 195 70 L 360 70 L 360 58.12" fill="none" stroke="rgb(0, 0, 0)" stroke-miterlimit="10" pointer-events="stroke"/><path d="M 360 41.12 L 368.5 58.12 L 351.5 58.12 Z" fill="none" stroke="rgb(0, 0, 0)" stroke-miterlimit="10" pointer-events="all"/><rect x="240" y="200" width="160" height="40" fill="rgb(255, 255, 255)" stroke="rgb(0, 0, 0)" pointer-events="all"/><g fill="rgb(0, 0, 0)" font-family="Helvetica" font-weight="bold" text-anchor="middle" font-size="12px"><text x="319.5" y="210.5">&lt;&lt;BusinessFunction&gt;&gt;</text><text x="319.5" y="224.5">PartnerAssessment</text></g><rect x="0" y="200" width="160" height="40" fill="rgb(255, 255, 255)" stroke="rgb(0, 0, 0)" pointer-events="all"/><g fill="rgb(0, 0, 0)" font-family="Helvetica" font-weight="bold" text-anchor="middle" font-size="12px"><text x="79.5" y="210.5">&lt;&lt;BusinessFunction&gt;&gt;</text><text x="79.5" y="224.5">PartnerCare</text></g><path d="M 80 200 L 80 170 L 195 170 L 195 158.12" fill="none" stroke="rgb(0, 0, 0)" stroke-miterlimit="10" pointer-events="stroke"/><path d="M 195 141.12 L 203.5 158.12 L 186.5 158.12 Z" fill="none" stroke="rgb(0, 0, 0)" stroke-miterlimit="10" pointer-events="all"/><path d="M 320 200 L 320 170 L 195 170 L 195 158.12" fill="none" stroke="rgb(0, 0, 0)" stroke-miterlimit="10" pointer-events="stroke"/><path d="M 195 141.12 L 203.5 158.12 L 186.5 158.12 Z" fill="none" stroke="rgb(0, 0, 0)" stroke-miterlimit="10" pointer-events="all"/><rect x="280" y="0" width="160" height="40" fill="rgb(255, 255, 255)" stroke="rgb(0, 0, 0)" pointer-events="all"/><g fill="rgb(0, 0, 0)" font-family="Helvetica" font-weight="bold" text-anchor="middle" font-size="12px"><text x="359.5" y="10.5">&lt;&lt;BusinessCapability&gt;&gt;</text></g></g></svg>