<?xml version="1.0" encoding="UTF-8"?>
<!DOCTYPE svg PUBLIC "-//W3C//DTD SVG 1.1//EN" "http://www.w3.org/Graphics/SVG/1.1/DTD/svg11.dtd">
<svg xmlns="http://www.w3.org/2000/svg" xmlns:xlink="http://www.w3.org/1999/xlink" version="1.1" width="951px" height="388px" viewBox="-0.5 -0.5 951 388"><defs><clipPath id="mx-clip-4-150-102-30-0"><rect x="4" y="150" width="102" height="30"/></clipPath><clipPath id="mx-clip-4-180-102-30-0"><rect x="4" y="180" width="102" height="30"/></clipPath><clipPath id="mx-clip-4-210-102-30-0"><rect x="4" y="210" width="102" height="30"/></clipPath><clipPath id="mx-clip-124-150-102-30-0"><rect x="124" y="150" width="102" height="30"/></clipPath><clipPath id="mx-clip-124-180-102-30-0"><rect x="124" y="180" width="102" height="30"/></clipPath><clipPath id="mx-clip-124-210-102-30-0"><rect x="124" y="210" width="102" height="30"/></clipPath><clipPath id="mx-clip-244-150-102-30-0"><rect x="244" y="150" width="102" height="30"/></clipPath><clipPath id="mx-clip-244-180-102-30-0"><rect x="244" y="180" width="102" height="30"/></clipPath><clipPath id="mx-clip-364-150-102-30-0"><rect x="364" y="150" width="102" height="30"/></clipPath><clipPath id="mx-clip-364-180-102-30-0"><rect x="364" y="180" width="102" height="30"/></clipPath><clipPath id="mx-clip-364-210-102-30-0"><rect x="364" y="210" width="102" height="30"/></clipPath><clipPath id="mx-clip-364-240-102-30-0"><rect x="364" y="240" width="102" height="30"/></clipPath><clipPath id="mx-clip-364-270-102-30-0"><rect x="364" y="270" width="102" height="30"/></clipPath><clipPath id="mx-clip-364-300-102-30-0"><rect x="364" y="300" width="102" height="30"/></clipPath><clipPath id="mx-clip-484-150-102-30-0"><rect x="484" y="150" width="102" height="30"/></clipPath><clipPath id="mx-clip-484-180-102-30-0"><rect x="484" y="180" width="102" height="30"/></clipPath><clipPath id="mx-clip-484-210-102-30-0"><rect x="484" y="210" width="102" height="30"/></clipPath><clipPath id="mx-clip-484-240-102-30-0"><rect x="484" y="240" width="102" height="30"/></clipPath><clipPath id="mx-clip-484-270-102-30-0"><rect x="484" y="270" width="102" height="30"/></clipPath><clipPath id="mx-clip-604-150-102-30-0"><rect x="604" y="150" width="102" height="30"/></clipPath><clipPath id="mx-clip-604-180-102-30-0"><rect x="604" y="180" width="102" height="30"/></clipPath><clipPath id="mx-clip-604-210-102-30-0"><rect x="604" y="210" width="102" height="30"/></clipPath><clipPath id="mx-clip-604-240-102-30-0"><rect x="604" y="240" width="102" height="30"/></clipPath><clipPath id="mx-clip-724-150-102-30-0"><rect x="724" y="150" width="102" height="30"/></clipPath><clipPath id="mx-clip-724-180-102-30-0"><rect x="724" y="180" width="102" height="30"/></clipPath><clipPath id="mx-clip-724-210-102-30-0"><rect x="724" y="210" width="102" height="30"/></clipPath><clipPath id="mx-clip-724-240-102-30-0"><rect x="724" y="240" width="102" height="30"/></clipPath><clipPath id="mx-clip-724-270-102-30-0"><rect x="724" y="270" width="102" height="30"/></clipPath><clipPath id="mx-clip-844-150-102-30-0"><rect x="844" y="150" width="102" height="30"/></clipPath><clipPath id="mx-clip-844-180-102-30-0"><rect x="844" y="180" width="102" height="30"/></clipPath><clipPath id="mx-clip-844-210-102-30-0"><rect x="844" y="210" width="102" height="30"/></clipPath></defs><g><rect x="400" y="0" width="160" height="50" fill="rgb(255, 255, 255)" stroke="rgb(0, 0, 0)" pointer-events="all"/><g fill="rgb(0, 0, 0)" font-family="Helvetica" font-weight="bold" text-anchor="middle" font-size="12px"><text x="479.5" y="24.5">Software Product Quality</text></g><rect x="845" y="324" width="100" height="50" rx="15" ry="15" fill="#ff9999" stroke="none" transform="rotate(-15,895,349)" pointer-events="all"/><g fill="#FFFFFF" font-family="Helvetica" text-anchor="middle" font-size="11px" transform="rotate(-15,895,349)"><text x="894.5" y="353">Repeatability</text></g><path d="M 0 150 L 0 120 L 110 120 L 110 150" fill="rgb(255, 255, 255)" stroke="rgb(0, 0, 0)" stroke-miterlimit="10" pointer-events="all"/><path d="M 0 150 L 0 330 L 110 330 L 110 150" fill="none" stroke="rgb(0, 0, 0)" stroke-miterlimit="10" pointer-events="none"/><path d="M 0 150 L 110 150" fill="none" stroke="rgb(0, 0, 0)" stroke-miterlimit="10" pointer-events="none"/><g fill="rgb(0, 0, 0)" font-family="Helvetica" font-weight="bold" pointer-events="none" text-anchor="middle" font-size="12px"><text x="54.5" y="132.5">Functional</text><text x="54.5" y="146.5">Suitability</text></g><g fill="rgb(0, 0, 0)" font-family="Helvetica" pointer-events="none" clip-path="url(#mx-clip-4-150-102-30-0)" font-size="12px"><text x="5.5" y="162.5">Functional</text><text x="5.5" y="176.5">    Completeness</text></g><g fill="rgb(0, 0, 0)" font-family="Helvetica" pointer-events="none" clip-path="url(#mx-clip-4-180-102-30-0)" font-size="12px"><text x="5.5" y="192.5">Functional</text><text x="5.5" y="206.5">    Correctness</text></g><g fill="rgb(0, 0, 0)" font-family="Helvetica" pointer-events="none" clip-path="url(#mx-clip-4-210-102-30-0)" font-size="12px"><text x="5.5" y="222.5">Functional</text><text x="5.5" y="236.5">    Appropriateness</text></g><path d="M 120 150 L 120 120 L 230 120 L 230 150" fill="rgb(255, 255, 255)" stroke="rgb(0, 0, 0)" stroke-miterlimit="10" pointer-events="none"/><path d="M 120 150 L 120 330 L 230 330 L 230 150" fill="none" stroke="rgb(0, 0, 0)" stroke-miterlimit="10" pointer-events="none"/><path d="M 120 150 L 230 150" fill="none" stroke="rgb(0, 0, 0)" stroke-miterlimit="10" pointer-events="none"/><g fill="rgb(0, 0, 0)" font-family="Helvetica" font-weight="bold" pointer-events="none" text-anchor="middle" font-size="12px"><text x="174.5" y="132.5">Performance</text><text x="174.5" y="146.5">Efficiency</text></g><g fill="rgb(0, 0, 0)" font-family="Helvetica" pointer-events="none" clip-path="url(#mx-clip-124-150-102-30-0)" font-size="12px"><text x="125.5" y="162.5">Time</text><text x="125.5" y="176.5">    Behavior</text></g><g fill="rgb(0, 0, 0)" font-family="Helvetica" pointer-events="none" clip-path="url(#mx-clip-124-180-102-30-0)" font-size="12px"><text x="125.5" y="192.5">Resource</text><text x="125.5" y="206.5">    Utilisation</text></g><g fill="rgb(0, 0, 0)" font-family="Helvetica" pointer-events="none" clip-path="url(#mx-clip-124-210-102-30-0)" font-size="12px"><text x="125.5" y="229.5">Capacity </text></g><path d="M 240 150 L 240 120 L 350 120 L 350 150" fill="rgb(255, 255, 255)" stroke="rgb(0, 0, 0)" stroke-miterlimit="10" pointer-events="none"/><path d="M 240 150 L 240 330 L 350 330 L 350 150" fill="none" stroke="rgb(0, 0, 0)" stroke-miterlimit="10" pointer-events="none"/><path d="M 240 150 L 350 150" fill="none" stroke="rgb(0, 0, 0)" stroke-miterlimit="10" pointer-events="none"/><g fill="rgb(0, 0, 0)" font-family="Helvetica" font-weight="bold" pointer-events="none" text-anchor="middle" font-size="12px"><text x="294.5" y="139.5">Compatibility</text></g><g fill="rgb(0, 0, 0)" font-family="Helvetica" pointer-events="none" clip-path="url(#mx-clip-244-150-102-30-0)" font-size="12px"><text x="245.5" y="169.5">Co-existence</text></g><g fill="rgb(0, 0, 0)" font-family="Helvetica" pointer-events="none" clip-path="url(#mx-clip-244-180-102-30-0)" font-size="12px"><text x="245.5" y="199.5">Interoperability</text></g><path d="M 360 150 L 360 120 L 470 120 L 470 150" fill="rgb(255, 255, 255)" stroke="rgb(0, 0, 0)" stroke-miterlimit="10" pointer-events="none"/><path d="M 360 150 L 360 330 L 470 330 L 470 150" fill="none" stroke="rgb(0, 0, 0)" stroke-miterlimit="10" pointer-events="none"/><path d="M 360 150 L 470 150" fill="none" stroke="rgb(0, 0, 0)" stroke-miterlimit="10" pointer-events="none"/><g fill="rgb(0, 0, 0)" font-family="Helvetica" font-weight="bold" pointer-events="none" text-anchor="middle" font-size="12px"><text x="414.5" y="139.5">Usability</text></g><g fill="rgb(0, 0, 0)" font-family="Helvetica" pointer-events="none" clip-path="url(#mx-clip-364-150-102-30-0)" font-size="12px"><text x="365.5" y="162.5"> Appropriateness</text><text x="365.5" y="176.5">    Recognizability</text></g><g fill="rgb(0, 0, 0)" font-family="Helvetica" pointer-events="none" clip-path="url(#mx-clip-364-180-102-30-0)" font-size="12px"><text x="365.5" y="199.5">Availability</text></g><g fill="rgb(0, 0, 0)" font-family="Helvetica" pointer-events="none" clip-path="url(#mx-clip-364-210-102-30-0)" font-size="12px"><text x="365.5" y="222.5">User Interface</text><text x="365.5" y="236.5">    Aesthetics</text></g><g fill="rgb(0, 0, 0)" font-family="Helvetica" pointer-events="none" clip-path="url(#mx-clip-364-240-102-30-0)" font-size="12px"><text x="365.5" y="259.5">Learnability</text></g><g fill="rgb(0, 0, 0)" font-family="Helvetica" pointer-events="none" clip-path="url(#mx-clip-364-270-102-30-0)" font-size="12px"><text x="365.5" y="289.5">Operability</text></g><g fill="rgb(0, 0, 0)" font-family="Helvetica" pointer-events="none" clip-path="url(#mx-clip-364-300-102-30-0)" font-size="12px"><text x="365.5" y="319.5">Accessibility</text></g><rect x="590" y="30" width="50" height="20" rx="6" ry="6" fill="#ff9999" stroke="none" transform="rotate(-15,615,40)" pointer-events="none"/><g fill="#FF9999" font-family="Helvetica" pointer-events="none" text-anchor="middle" font-size="12px"><text x="784.5" y="54.5">in this box, you find some modern, hot topics to consider</text></g><path d="M 480 150 L 480 120 L 590 120 L 590 150" fill="rgb(255, 255, 255)" stroke="rgb(0, 0, 0)" stroke-miterlimit="10" pointer-events="none"/><path d="M 480 150 L 480 330 L 590 330 L 590 150" fill="none" stroke="rgb(0, 0, 0)" stroke-miterlimit="10" pointer-events="none"/><path d="M 480 150 L 590 150" fill="none" stroke="rgb(0, 0, 0)" stroke-miterlimit="10" pointer-events="none"/><g fill="rgb(0, 0, 0)" font-family="Helvetica" font-weight="bold" pointer-events="none" text-anchor="middle" font-size="12px"><text x="534.5" y="139.5">Reliability</text></g><g fill="rgb(0, 0, 0)" font-family="Helvetica" pointer-events="none" clip-path="url(#mx-clip-484-150-102-30-0)" font-size="12px"><text x="485.5" y="169.5">Maturity</text></g><g fill="rgb(0, 0, 0)" font-family="Helvetica" pointer-events="none" clip-path="url(#mx-clip-484-180-102-30-0)" font-size="12px"><text x="485.5" y="199.5">Integrity</text></g><g fill="rgb(0, 0, 0)" font-family="Helvetica" pointer-events="none" clip-path="url(#mx-clip-484-210-102-30-0)" font-size="12px"><text x="485.5" y="229.5">Non-repudiation</text></g><g fill="rgb(0, 0, 0)" font-family="Helvetica" pointer-events="none" clip-path="url(#mx-clip-484-240-102-30-0)" font-size="12px"><text x="485.5" y="259.5">Authenticity</text></g><g fill="rgb(0, 0, 0)" font-family="Helvetica" pointer-events="none" clip-path="url(#mx-clip-484-270-102-30-0)" font-size="12px"><text x="485.5" y="289.5">Accountability</text></g><path d="M 600 150 L 600 120 L 710 120 L 710 150" fill="rgb(255, 255, 255)" stroke="rgb(0, 0, 0)" stroke-miterlimit="10" pointer-events="none"/><path d="M 600 150 L 600 330 L 710 330 L 710 150" fill="none" stroke="rgb(0, 0, 0)" stroke-miterlimit="10" pointer-events="none"/><path d="M 600 150 L 710 150" fill="none" stroke="rgb(0, 0, 0)" stroke-miterlimit="10" pointer-events="none"/><g fill="rgb(0, 0, 0)" font-family="Helvetica" font-weight="bold" pointer-events="none" text-anchor="middle" font-size="12px"><text x="654.5" y="139.5">Security</text></g><g fill="rgb(0, 0, 0)" font-family="Helvetica" pointer-events="none" clip-path="url(#mx-clip-604-150-102-30-0)" font-size="12px"><text x="605.5" y="169.5">Confidentiality</text></g><g fill="rgb(0, 0, 0)" font-family="Helvetica" pointer-events="none" clip-path="url(#mx-clip-604-180-102-30-0)" font-size="12px"><text x="605.5" y="199.5">Availability</text></g><g fill="rgb(0, 0, 0)" font-family="Helvetica" pointer-events="none" clip-path="url(#mx-clip-604-210-102-30-0)" font-size="12px"><text x="605.5" y="229.5">Fault Tolerance</text></g><g fill="rgb(0, 0, 0)" font-family="Helvetica" pointer-events="none" clip-path="url(#mx-clip-604-240-102-30-0)" font-size="12px"><text x="605.5" y="259.5">Recoverability</text></g><rect x="370" y="324" width="100" height="50" rx="15" ry="15" fill="#ff9999" stroke="none" transform="rotate(-15,420,349)" pointer-events="none"/><g fill="#FFFFFF" font-family="Helvetica" pointer-events="none" text-anchor="middle" font-size="11px" transform="rotate(-15,415.34,331.61)"><text x="414.84" y="341.11">Disabled people</text><text x="414.84" y="367.11">  Genders</text></g><rect x="490" y="324" width="100" height="50" rx="15" ry="15" fill="#ff9999" stroke="none" transform="rotate(-15,540,349)" pointer-events="none"/><g fill="#FFFFFF" font-family="Helvetica" pointer-events="none" text-anchor="middle" font-size="11px" transform="rotate(-15,540,349)"><text x="539.5" y="346.5">Zero-downtime</text><text x="539.5" y="359.5">systems</text></g><path d="M 720 150 L 720 120 L 830 120 L 830 150" fill="rgb(255, 255, 255)" stroke="rgb(0, 0, 0)" stroke-miterlimit="10" pointer-events="none"/><path d="M 720 150 L 720 330 L 830 330 L 830 150" fill="none" stroke="rgb(0, 0, 0)" stroke-miterlimit="10" pointer-events="none"/><path d="M 720 150 L 830 150" fill="none" stroke="rgb(0, 0, 0)" stroke-miterlimit="10" pointer-events="none"/><g fill="rgb(0, 0, 0)" font-family="Helvetica" font-weight="bold" pointer-events="none" text-anchor="middle" font-size="12px"><text x="774.5" y="139.5">Maintainability</text></g><g fill="rgb(0, 0, 0)" font-family="Helvetica" pointer-events="none" clip-path="url(#mx-clip-724-150-102-30-0)" font-size="12px"><text x="725.5" y="169.5">Modularity</text></g><g fill="rgb(0, 0, 0)" font-family="Helvetica" pointer-events="none" clip-path="url(#mx-clip-724-180-102-30-0)" font-size="12px"><text x="725.5" y="199.5">Reusability</text></g><g fill="rgb(0, 0, 0)" font-family="Helvetica" pointer-events="none" clip-path="url(#mx-clip-724-210-102-30-0)" font-size="12px"><text x="725.5" y="229.5">Analysability</text></g><g fill="rgb(0, 0, 0)" font-family="Helvetica" pointer-events="none" clip-path="url(#mx-clip-724-240-102-30-0)" font-size="12px"><text x="725.5" y="259.5">Modifiability</text></g><g fill="rgb(0, 0, 0)" font-family="Helvetica" pointer-events="none" clip-path="url(#mx-clip-724-270-102-30-0)" font-size="12px"><text x="725.5" y="289.5">Testability</text></g><rect x="725" y="324" width="100" height="50" rx="15" ry="15" fill="#ff9999" stroke="none" transform="rotate(-15,775,349)" pointer-events="none"/><g fill="#FFFFFF" font-family="Helvetica" pointer-events="none" text-anchor="middle" font-size="11px" transform="rotate(-15,775,349)"><text x="774.5" y="353">Observability</text></g><path d="M 840 150 L 840 120 L 950 120 L 950 150" fill="rgb(255, 255, 255)" stroke="rgb(0, 0, 0)" stroke-miterlimit="10" pointer-events="none"/><path d="M 840 150 L 840 330 L 950 330 L 950 150" fill="none" stroke="rgb(0, 0, 0)" stroke-miterlimit="10" pointer-events="none"/><path d="M 840 150 L 950 150" fill="none" stroke="rgb(0, 0, 0)" stroke-miterlimit="10" pointer-events="none"/><g fill="rgb(0, 0, 0)" font-family="Helvetica" font-weight="bold" pointer-events="none" text-anchor="middle" font-size="12px"><text x="894.5" y="139.5">Portability</text></g><g fill="rgb(0, 0, 0)" font-family="Helvetica" pointer-events="none" clip-path="url(#mx-clip-844-150-102-30-0)" font-size="12px"><text x="845.5" y="169.5">Adaptability</text></g><g fill="rgb(0, 0, 0)" font-family="Helvetica" pointer-events="none" clip-path="url(#mx-clip-844-180-102-30-0)" font-size="12px"><text x="845.5" y="199.5">Installability</text></g><g fill="rgb(0, 0, 0)" font-family="Helvetica" pointer-events="none" clip-path="url(#mx-clip-844-210-102-30-0)" font-size="12px"><text x="845.5" y="229.5">Replaceability</text></g><path d="M 535 120 L 535 85 L 480 85 L 480 68.12" fill="none" stroke="rgb(0, 0, 0)" stroke-miterlimit="10" pointer-events="none"/><path d="M 480 51.12 L 488.5 68.12 L 471.5 68.12 Z" fill="none" stroke="rgb(0, 0, 0)" stroke-miterlimit="10" pointer-events="none"/><path d="M 55 120 L 55 85 L 480 85 L 480 68.12" fill="none" stroke="rgb(0, 0, 0)" stroke-miterlimit="10" pointer-events="none"/><path d="M 480 51.12 L 488.5 68.12 L 471.5 68.12 Z" fill="none" stroke="rgb(0, 0, 0)" stroke-miterlimit="10" pointer-events="none"/><path d="M 175 120 L 175 85 L 480 85 L 480 68.12" fill="none" stroke="rgb(0, 0, 0)" stroke-miterlimit="10" pointer-events="none"/><path d="M 480 51.12 L 488.5 68.12 L 471.5 68.12 Z" fill="none" stroke="rgb(0, 0, 0)" stroke-miterlimit="10" pointer-events="none"/><path d="M 295 120 L 295 85 L 480 85 L 480 68.12" fill="none" stroke="rgb(0, 0, 0)" stroke-miterlimit="10" pointer-events="none"/><path d="M 480 51.12 L 488.5 68.12 L 471.5 68.12 Z" fill="none" stroke="rgb(0, 0, 0)" stroke-miterlimit="10" pointer-events="none"/><path d="M 415 120 L 415 85 L 480 85 L 480 68.12" fill="none" stroke="rgb(0, 0, 0)" stroke-miterlimit="10" pointer-events="none"/><path d="M 480 51.12 L 488.5 68.12 L 471.5 68.12 Z" fill="none" stroke="rgb(0, 0, 0)" stroke-miterlimit="10" pointer-events="none"/><path d="M 655 120 L 655 85 L 480 85 L 480 68.12" fill="none" stroke="rgb(0, 0, 0)" stroke-miterlimit="10" pointer-events="none"/><path d="M 480 51.12 L 488.5 68.12 L 471.5 68.12 Z" fill="none" stroke="rgb(0, 0, 0)" stroke-miterlimit="10" pointer-events="none"/><path d="M 775 120 L 775 85 L 480 85 L 480 68.12" fill="none" stroke="rgb(0, 0, 0)" stroke-miterlimit="10" pointer-events="none"/><path d="M 480 51.12 L 488.5 68.12 L 471.5 68.12 Z" fill="none" stroke="rgb(0, 0, 0)" stroke-miterlimit="10" pointer-events="none"/><path d="M 895 120 L 895 85 L 480 85 L 480 68.12" fill="none" stroke="rgb(0, 0, 0)" stroke-miterlimit="10" pointer-events="none"/><path d="M 480 51.12 L 488.5 68.12 L 471.5 68.12 Z" fill="none" stroke="rgb(0, 0, 0)" stroke-miterlimit="10" pointer-events="none"/></g></svg>