<?xml version="1.0" encoding="UTF-8" standalone="no"?>
<!-- Created with Inkscape (http://www.inkscape.org/) -->

<svg
   width="105.97602mm"
   height="114.57469mm"
   viewBox="0 0 105.97602 114.57469"
   version="1.1"
   id="svg1171"
   xml:space="preserve"
   inkscape:version="1.2.1 (9c6d41e, 2022-07-14)"
   sodipodi:docname="lastfluid.svg"
   inkscape:export-filename="lastfluid.svg"
   inkscape:export-xdpi="96"
   inkscape:export-ydpi="96"
   xmlns:inkscape="http://www.inkscape.org/namespaces/inkscape"
   xmlns:sodipodi="http://sodipodi.sourceforge.net/DTD/sodipodi-0.dtd"
   xmlns="http://www.w3.org/2000/svg"
   xmlns:svg="http://www.w3.org/2000/svg"><sodipodi:namedview
     id="namedview1173"
     pagecolor="#ffffff"
     bordercolor="#000000"
     borderopacity="0.25"
     inkscape:showpageshadow="2"
     inkscape:pageopacity="0.0"
     inkscape:pagecheckerboard="0"
     inkscape:deskcolor="#d1d1d1"
     inkscape:document-units="mm"
     showgrid="false"
     inkscape:zoom="1.1893044"
     inkscape:cx="119.39752"
     inkscape:cy="746.23452"
     inkscape:window-width="1660"
     inkscape:window-height="953"
     inkscape:window-x="0"
     inkscape:window-y="25"
     inkscape:window-maximized="0"
     inkscape:current-layer="layer1" /><defs
     id="defs1168"><style
       id="style1921">
      .cls-1 {
        fill: #fff;
      }
    </style></defs><g
     inkscape:label="Ebene 1"
     inkscape:groupmode="layer"
     id="layer1"
     transform="translate(-21.771697,-146.15297)"><g
       id="g2150"><path
         class="st0"
         d="m 38.64958,146.30795 72.02175,9.69268 c 6.74166,0.90993 11.8639,5.71668 12.32328,11.58175 l 4.72031,60.45057 c 0.44792,5.77606 -3.73261,11.07737 -10.14115,12.82797 l -70.195644,19.26665 c -9.061612,2.48252 -18.421779,-3.02647 -19.018979,-11.19601 l -6.55787,-89.40991 c -0.58574,-8.02121 7.61445,-14.45988 16.848303,-13.2137 z"
         id="path1549"
         style="stroke-width:1.06579" /><path
         class="cls-1"
         d="m 54.753168,224.09527 q -0.83513,-3.97414 -3.244585,-3.97413 c -1.23829,0 -1.987055,0.85434 -1.987055,2.06387 0,1.66069 1.535905,2.18864 2.860605,2.65903 2.09266,0.74874 3.791765,1.6415 3.791765,4.07973 0,2.32307 -1.65107,4.19493 -4.02215,4.19493 -1.516715,0 -2.793425,-0.85434 -3.30219,-1.29593 l -0.44158,0.98044 h -0.72953 v -4.93536 h 0.767955 c 0.278375,1.23832 0.62393,2.17904 1.046325,2.84142 0.66235,1.02711 1.526285,1.5455 2.601415,1.5455 1.45911,0 2.2751,-0.98875 2.2751,-2.39986 0,-1.84309 -1.43992,-2.37104 -2.956635,-2.88941 -2.05428,-0.69116 -3.638175,-1.5743 -3.638175,-3.94536 0,-2.15027 1.478295,-3.74375 3.65736,-3.74375 1.247955,0 2.188685,0.54716 2.956635,1.12312 l 0.36474,-0.82547 h 0.71039 v 4.52123 z m 5.832187,8.81225 -2.76463,-7.21874 c -0.42235,-1.10393 -0.57594,-1.27671 -1.142307,-1.27671 h -0.316795 v -0.76795 h 4.425312 v 0.76795 h -0.67192 c -0.34561,0 -0.48958,0.13438 -0.48958,0.40316 a 1.4323218,1.4323219 0 0 0 0.11517,0.46077 l 1.89108,4.81891 1.59351,-4.44452 a 2.6243597,2.6243598 0 0 0 0.15359,-0.70075 c 0,-0.36479 -0.1824,-0.53757 -0.60475,-0.53757 h -0.69114 v -0.76795 h 3.45578 v 0.76795 h -0.32642 c -0.40317,0 -0.55676,0.22077 -0.81595,0.92154 l -3.06218,8.19787 c -0.73915,1.98708 -1.35351,2.81264 -2.72625,2.81264 -1.04633,0 -1.996682,-0.67197 -1.996682,-1.7855 0,-0.71996 0.480005,-1.26712 1.219152,-1.26712 0.64317,0 1.17112,0.43197 1.17112,1.09432 0,0.47038 -0.23039,0.82555 -0.69116,1.05594 a 1.0774931,1.0774932 0 0 0 0.36479,0.0576 c 0.75833,0 1.18073,-0.51836 1.71829,-2.04467 z m 10.56068,-6.2204 c -0.3936,-1.6799 -1.17112,-2.51505 -2.32304,-2.51505 -0.79676,0 -1.31514,0.46077 -1.31514,1.26712 0,0.97915 1.15193,1.27673 1.90069,1.52631 1.59347,0.51837 2.99501,1.20953 2.99501,3.0718 0,1.83349 -1.37274,2.96621 -3.1486,2.96621 a 4.0239606,4.0239606 0 0 1 -2.56304,-0.94073 l -0.24,0.74043 h -0.67197 v -3.52427 h 0.67197 c 0.42239,1.37272 1.11355,2.93743 2.80304,2.93743 0.88312,0 1.45911,-0.61436 1.45911,-1.48791 0,-1.16152 -1.18073,-1.55509 -2.09265,-1.87189 -1.43993,-0.49917 -2.74544,-1.15193 -2.74544,-2.86061 0,-1.61269 1.27671,-2.55345 2.81261,-2.55345 a 4.1022164,4.1022164 0 0 1 2.32304,0.79676 l 0.19202,-0.59515 h 0.67192 v 3.043 z m 7.9268,3.84935 c 0,1.5647 -0.90236,2.46704 -2.45745,2.46704 -1.55513,0 -2.46706,-0.90234 -2.46706,-2.46704 v -5.99002 h -1.41111 v -0.78716 c 0.89273,-0.21118 1.48791,-0.53757 1.8527,-0.98872 0.39359,-0.47998 0.64316,-1.39193 0.77752,-2.53424 h 0.74876 v 3.40779 h 2.65903 v 0.90233 h -2.65902 v 6.10521 c 0,1.03674 0.42239,1.35351 0.88317,1.35351 0.67192,0 1.1423,-0.48958 1.1423,-1.63188 v -0.91195 h 0.93116 z m 2.92642,-2.27505 c 0.0672,1.52631 0.13441,3.89734 2.11189,3.89734 1.2959,0 1.94864,-1.06552 2.40941,-2.11187 l 0.78719,0.41278 c -0.74878,1.5167 -1.67032,2.62063 -3.50378,2.62063 -2.80305,0 -3.94536,-2.39983 -3.94536,-4.85728 0,-2.36146 1.15193,-4.8573 3.77254,-4.8573 2.82223,0 3.69578,2.70704 3.75339,4.8957 z m 3.24459,-0.84475 c -0.0384,-2.20787 -0.57594,-3.2446 -1.57428,-3.2446 -0.99834,0 -1.58389,1.12312 -1.65112,3.2446 z m 15.298545,-1.32472 v 5.00129 c 0.01,0.69116 0.26881,0.95992 0.95996,0.95992 h 0.25919 v 0.75005 h -3.187025 v -6.52887 c 0,-1.28633 -0.38398,-1.81428 -1.20949,-1.81428 -1.03676,0 -1.51671,1.19033 -1.51671,2.84142 v 3.79176 c 0.01,0.69116 0.26876,0.95992 0.95991,0.95992 h 0.3168 v 0.75005 h -3.24459 v -6.52887 c 0,-1.28633 -0.39359,-1.81428 -1.21915,-1.81428 -1.07513,0 -1.51667,1.19033 -1.51667,2.84142 v 3.79176 c 0.01,0.69116 0.26876,0.95992 0.95992,0.95992 h 0.3168 v 0.75005 h -4.55972 v -0.75005 h 0.35518 c 0.69115,0 0.95991,-0.26876 0.95991,-0.95992 v -5.82683 c -0.01,-0.69116 -0.26876,-0.95994 -0.95991,-0.95994 h -0.25919 v -0.74876 h 3.0718 v 1.02714 a 2.6525961,2.6525961 0 0 1 2.17907,-1.14234 c 1.15193,0 1.91026,0.52798 2.37104,1.40152 a 2.6500574,2.6500574 0 0 1 2.31346,-1.40152 c 1.68949,0 2.649415,0.96956 2.649415,2.64944 z m 7.31016,0.59518 c -0.39359,-1.6799 -1.17111,-2.51505 -2.32304,-2.51505 -0.79675,0 -1.31513,0.46077 -1.31513,1.26711 0,0.97915 1.15193,1.27674 1.90069,1.52631 1.59346,0.51838 2.99501,1.20954 2.99501,3.07181 0,1.83349 -1.37274,2.9662 -3.1486,2.9662 a 4.0239606,4.0239606 0 0 1 -2.56304,-0.94072 l -0.24,0.74042 h -0.67197 v -3.52427 h 0.67197 c 0.42239,1.37272 1.11355,2.93743 2.80304,2.93743 0.88312,0 1.45911,-0.61436 1.45911,-1.48791 0,-1.16152 -1.18073,-1.55509 -2.09266,-1.87189 -1.43992,-0.49917 -2.74543,-1.15193 -2.74543,-2.86061 0,-1.61269 1.27671,-2.55345 2.81261,-2.55345 a 4.1022204,4.1022204 0 0 1 2.32304,0.79676 l 0.19201,-0.59513 h 0.67193 v 3.04298 z m -73.932437,1.61816 h -2.64583 v -2.64583 h 2.64583 z m -2.64583,-8.73125 v 4.49792 h 0.79375 v -0.13229 c 0,-2.11667 1.190625,-3.43959 3.43958,-3.43959 h 0.132295 v 9.525 c 0,1.32292 -0.52917,1.85209 -1.852085,1.85209 h -0.396875 v 0.92604 h 6.879165 v -0.92604 h -0.396875 c -1.322915,0 -1.85208,-0.52917 -1.85208,-1.85209 v -9.525 h 0.13229 c 2.24896,0 3.439585,1.32292 3.439585,3.43959 v 0.13229 h 0.79375 v -4.49792 z m 8.466665,8.73125 h 2.645835 v -2.64583 h -2.645835 z"
         id="path1925"
         style="stroke-width:0.132291" /><text
         xml:space="preserve"
         style="font-weight:500;font-size:4.23333px;font-family:'TeleNeo Office';-inkscape-font-specification:'TeleNeo Office Medium';fill:#000000;stroke-width:0.264583"
         x="31.482574"
         y="174.99887"
         id="text1934"><tspan
           sodipodi:role="line"
           style="font-style:normal;font-variant:normal;font-weight:bold;font-stretch:normal;font-size:4.23333px;font-family:'TeleNeo Office';-inkscape-font-specification:'TeleNeo Office Bold';fill:#ffffff;stroke-width:0.264583"
           x="31.482574"
           y="174.99887"
           id="tspan2042">© 2022  T-Systems International GmbH</tspan><tspan
           sodipodi:role="line"
           style="font-size:4.23333px;fill:#ffffff;stroke-width:0.264583"
           x="31.482574"
           y="180.29053"
           id="tspan2050">Hahnstraße 43d</tspan><tspan
           sodipodi:role="line"
           style="font-size:4.23333px;fill:#ffffff;stroke-width:0.264583"
           x="31.482574"
           y="185.5822"
           id="tspan2058">D-60528 Frankfurt am Main</tspan><tspan
           sodipodi:role="line"
           style="font-size:4.23333px;fill:#ffffff;stroke-width:0.264583"
           x="31.482574"
           y="190.87386"
           id="tspan2064"></tspan><tspan
           sodipodi:role="line"
           style="font-size:4.23333px;fill:#ffffff;stroke-width:0.264583"
           x="31.482574"
           y="196.16553"
           id="tspan2066">https://www.t-systems.com</tspan><tspan
           sodipodi:role="line"
           style="font-size:4.23333px;fill:#ffffff;stroke-width:0.264583"
           x="31.482574"
           y="201.45718"
           id="tspan2052" /><tspan
           sodipodi:role="line"
           style="font-size:4.23333px;fill:#ffffff;stroke-width:0.264583"
           x="31.482574"
           y="206.74884"
           id="tspan2054">All right reserved.</tspan><tspan
           sodipodi:role="line"
           style="font-size:4.23333px;fill:#ffffff;stroke-width:0.264583"
           x="31.482574"
           y="212.04051"
           id="tspan2060" /><tspan
           sodipodi:role="line"
           style="font-size:4.23333px;fill:#ffffff;stroke-width:0.264583"
           x="31.482574"
           y="217.33217"
           id="tspan2062" /><tspan
           sodipodi:role="line"
           style="font-size:4.23333px;stroke-width:0.264583"
           x="31.482574"
           y="222.62383"
           id="tspan1936" /></text></g></g><style
     type="text/css"
     id="style1547">
	.st0{fill:#E20074;}
</style></svg>
