<?xml version="1.0" encoding="UTF-8"?>
<!DOCTYPE svg PUBLIC "-//W3C//DTD SVG 1.1//EN" "http://www.w3.org/Graphics/SVG/1.1/DTD/svg11.dtd">
<svg xmlns="http://www.w3.org/2000/svg" xmlns:xlink="http://www.w3.org/1999/xlink" version="1.1" width="708px" height="354px" viewBox="-0.5 -0.5 708 354"><defs/><g><path d="M 76 179 L 76 121 L 163.9 121" fill="none" stroke="#2f5b7c" stroke-width="3" stroke-miterlimit="10" pointer-events="stroke"/><path d="M 170.65 121 L 161.65 125.5 L 163.9 121 L 161.65 116.5 Z" fill="#2f5b7c" stroke="#2f5b7c" stroke-width="3" stroke-miterlimit="10" pointer-events="all"/><path d="M 153 216 L 163.9 216" fill="none" stroke="#2f5b7c" stroke-width="3" stroke-miterlimit="10" pointer-events="stroke"/><path d="M 170.65 216 L 161.65 220.5 L 163.9 216 L 161.65 211.5 Z" fill="#2f5b7c" stroke="#2f5b7c" stroke-width="3" stroke-miterlimit="10" pointer-events="all"/><path d="M 76 253 L 76 321 L 163.9 321" fill="none" stroke="#2f5b7c" stroke-width="3" stroke-miterlimit="10" pointer-events="stroke"/><path d="M 170.65 321 L 161.65 325.5 L 163.9 321 L 161.65 316.5 Z" fill="#2f5b7c" stroke="#2f5b7c" stroke-width="3" stroke-miterlimit="10" pointer-events="all"/><rect x="1" y="181" width="150" height="70" rx="4.9" ry="4.9" fill="#2f5b7c" stroke="none" pointer-events="all"/><g fill="#FFFFFF" font-family="Helvetica" font-weight="bold" text-anchor="middle" font-size="16px"><text x="75.5" y="213">Quality</text><text x="75.5" y="232">scenarios</text></g><path d="M 328 321 L 353.9 321" fill="none" stroke="#1699d3" stroke-width="3" stroke-miterlimit="10" pointer-events="stroke"/><path d="M 360.65 321 L 351.65 325.5 L 353.9 321 L 351.65 316.5 Z" fill="#1699d3" stroke="#1699d3" stroke-width="3" stroke-miterlimit="10" pointer-events="all"/><rect x="176" y="291" width="150" height="60" rx="4.2" ry="4.2" fill="#1699d3" stroke="none" pointer-events="all"/><g fill="#FFFFFF" font-family="Helvetica" font-weight="bold" text-anchor="middle" font-size="14px"><text x="250.5" y="326.5">Functional</text></g><rect x="366" y="291" width="150" height="60" rx="4.2" ry="4.2" fill="#64bbe2" stroke="none" pointer-events="all"/><g fill="#FFFFFF" font-family="Helvetica" text-anchor="middle" font-size="14px"><text x="440.5" y="318">Conformance to</text><text x="440.5" y="335">Open API Standard</text></g><rect x="176" y="91" width="150" height="60" rx="4.2" ry="4.2" fill="#f08705" stroke="none" pointer-events="all"/><g fill="#FFFFFF" font-family="Helvetica" font-weight="bold" text-anchor="middle" font-size="14px"><text x="250.5" y="126.5">Availability</text></g><rect x="366" y="91" width="150" height="60" rx="4.2" ry="4.2" fill="#f5af58" stroke="none" pointer-events="all"/><g fill="#FFFFFF" font-family="Helvetica" text-anchor="middle" font-size="14px"><text x="440.5" y="126.5">low traffic times</text></g><path d="M 328 121 L 353.9 121" fill="none" stroke="#f08705" stroke-width="3" stroke-miterlimit="10" pointer-events="stroke"/><path d="M 360.65 121 L 351.65 125.5 L 353.9 121 L 351.65 116.5 Z" fill="#f08705" stroke="#f08705" stroke-width="3" stroke-miterlimit="10" pointer-events="all"/><rect x="366" y="1" width="150" height="60" rx="4.2" ry="4.2" fill="#f5af58" stroke="none" pointer-events="all"/><g fill="#FFFFFF" font-family="Helvetica" text-anchor="middle" font-size="14px"><text x="440.5" y="36.5">during office hours</text></g><path d="M 236 89 L 236 31 L 353.9 31" fill="none" stroke="#f08705" stroke-width="3" stroke-miterlimit="10" pointer-events="stroke"/><path d="M 360.65 31 L 351.65 35.5 L 353.9 31 L 351.65 26.5 Z" fill="#f08705" stroke="#f08705" stroke-width="3" stroke-miterlimit="10" pointer-events="all"/><rect x="176" y="186" width="150" height="60" rx="4.2" ry="4.2" fill="#12aab5" stroke="none" pointer-events="all"/><g fill="#FFFFFF" font-family="Helvetica" font-weight="bold" text-anchor="middle" font-size="14px"><text x="250.5" y="221.5">Security</text></g><rect x="366" y="185" width="150" height="60" rx="4.2" ry="4.2" fill="#61c6ce" stroke="none" pointer-events="all"/><g fill="#FFFFFF" font-family="Helvetica" text-anchor="middle" font-size="14px"><text x="440.5" y="220.5">Authenticity</text></g><path d="M 328 215.59 L 353.9 215.46" fill="none" stroke="#12aab5" stroke-width="3" stroke-miterlimit="10" pointer-events="stroke"/><path d="M 360.65 215.42 L 351.67 219.97 L 353.9 215.46 L 351.62 210.97 Z" fill="#12aab5" stroke="#12aab5" stroke-width="3" stroke-miterlimit="10" pointer-events="all"/><rect x="556" y="185" width="150" height="60" rx="4.2" ry="4.2" fill="#6cdde6" stroke="none" pointer-events="all"/><g fill="#FFFFFF" font-family="Helvetica" text-anchor="middle" font-size="14px"><text x="630.5" y="212">Server - TLS </text><text x="630.5" y="229">certificate handling</text></g><path d="M 518 215 L 543.9 215" fill="none" stroke="#12aab5" stroke-width="3" stroke-miterlimit="10" pointer-events="stroke"/><path d="M 550.65 215 L 541.65 219.5 L 543.9 215 L 541.65 210.5 Z" fill="#12aab5" stroke="#12aab5" stroke-width="3" stroke-miterlimit="10" pointer-events="all"/></g></svg>