<?xml version="1.0" encoding="UTF-8"?>
<!DOCTYPE svg PUBLIC "-//W3C//DTD SVG 1.1//EN" "http://www.w3.org/Graphics/SVG/1.1/DTD/svg11.dtd">
<svg xmlns="http://www.w3.org/2000/svg" xmlns:xlink="http://www.w3.org/1999/xlink" version="1.1" width="881px" height="531px" viewBox="-0.5 -0.5 881 531"><defs/><g><rect x="0" y="0" width="880" height="530" fill="#99ccff" stroke="rgb(0, 0, 0)" pointer-events="all"/><g fill="rgb(0, 0, 0)" font-family="Helvetica" font-weight="bold" text-anchor="middle" font-size="12px"><text x="439.5" y="17.5">«ModelContext»</text><text x="439.5" y="31.5">Project  or Organisation</text><text x="439.5" y="45.5">MyCoolSolution</text></g><path d="M 857 7 L 873 7 L 873 27 L 857 27 L 857 23 L 853 23 L 853 19 L 857 19 L 857 15 L 853 15 L 853 11 L 857 11 Z" fill="rgb(255, 255, 255)" stroke="rgb(0, 0, 0)" stroke-miterlimit="10" pointer-events="all"/><path d="M 857 11 L 861 11 L 861 15 L 857 15 M 857 19 L 861 19 L 861 23 L 857 23" fill="none" stroke="rgb(0, 0, 0)" stroke-miterlimit="10" pointer-events="all"/><rect x="690" y="190" width="160" height="300" fill="#ffffff" stroke="rgb(0, 0, 0)" pointer-events="all"/><g fill="rgb(0, 0, 0)" font-family="Helvetica" font-weight="bold" text-anchor="middle" font-size="12px"><text x="769.5" y="456.5">«BusinessCapability»</text><text x="769.5" y="470.5">SolutionDelivery domain</text></g><path d="M 827 197 L 843 197 L 843 217 L 827 217 L 827 213 L 823 213 L 823 209 L 827 209 L 827 205 L 823 205 L 823 201 L 827 201 Z" fill="rgb(255, 255, 255)" stroke="rgb(0, 0, 0)" stroke-miterlimit="10" pointer-events="all"/><path d="M 827 201 L 831 201 L 831 205 L 827 205 M 827 209 L 831 209 L 831 213 L 827 213" fill="none" stroke="rgb(0, 0, 0)" stroke-miterlimit="10" pointer-events="all"/><path d="M 380 61 L 470 61 L 470 111 L 380 111 L 380 101 L 370 101 L 370 91 L 380 91 L 380 81 L 370 81 L 370 71 L 380 71 Z" fill="#ffffff" stroke="rgb(0, 0, 0)" stroke-miterlimit="10" pointer-events="all"/><path d="M 380 71 L 390 71 L 390 81 L 380 81 M 380 91 L 390 91 L 390 101 L 380 101" fill="none" stroke="rgb(0, 0, 0)" stroke-miterlimit="10" pointer-events="all"/><g fill="rgb(0, 0, 0)" font-family="Helvetica" text-anchor="middle" font-size="12px"><text x="429.5" y="78.5">WebClient</text></g><path d="M 440 250 Q 450 250 450 260 Q 450 270 440 270" fill="none" stroke="rgb(0, 0, 0)" stroke-miterlimit="10" pointer-events="all"/><rect x="400" y="190" width="175" height="300" fill="#ffffff" stroke="rgb(0, 0, 0)" pointer-events="none"/><g fill="rgb(0, 0, 0)" font-family="Helvetica" font-weight="bold" pointer-events="none" text-anchor="middle" font-size="12px"><text x="487" y="456.5">«BusinessFunction»</text><text x="487" y="470.5">PartnerCare domain</text></g><path d="M 552 197 L 568 197 L 568 217 L 552 217 L 552 213 L 548 213 L 548 209 L 552 209 L 552 205 L 548 205 L 548 201 L 552 201 Z" fill="rgb(255, 255, 255)" stroke="rgb(0, 0, 0)" stroke-miterlimit="10" pointer-events="none"/><path d="M 552 201 L 556 201 L 556 205 L 552 205 M 552 209 L 556 209 L 556 213 L 552 213" fill="none" stroke="rgb(0, 0, 0)" stroke-miterlimit="10" pointer-events="none"/><rect x="457" y="180" width="30" height="30" fill="#ffffff" stroke="rgb(0, 0, 0)" pointer-events="none"/><g fill="rgb(0, 0, 0)" font-family="Helvetica" pointer-events="none" font-size="12px"><text x="458.5" y="174.5">PartnerBooking</text></g><rect x="560" y="297" width="30" height="30" fill="#ffffff" stroke="rgb(0, 0, 0)" pointer-events="none"/><g fill="rgb(0, 0, 0)" font-family="Helvetica" pointer-events="none" text-anchor="middle" font-size="12px"><text x="574.5" y="344.5">PartnerBookingEvents</text></g><path d="M 420 260 L 535 260 L 535 330 L 420 330 L 420 300 L 410 300 L 410 290 L 420 290 L 420 280 L 410 280 L 410 270 L 420 270 Z" fill="#ffffff" stroke="rgb(0, 0, 0)" stroke-miterlimit="10" pointer-events="none"/><path d="M 420 270 L 430 270 L 430 280 L 420 280 M 420 290 L 430 290 L 430 300 L 420 300" fill="none" stroke="rgb(0, 0, 0)" stroke-miterlimit="10" pointer-events="none"/><g fill="rgb(0, 0, 0)" font-family="Helvetica" pointer-events="none" text-anchor="middle" font-size="12px"><text x="482" y="277.5">CapacityService</text></g><path d="M 472.5 260 L 472.14 224.12" fill="none" stroke="rgb(0, 0, 0)" stroke-miterlimit="10" stroke-dasharray="3 3" pointer-events="none"/><path d="M 472.01 211.12 L 478.64 224.05 L 465.64 224.18 Z" fill="none" stroke="rgb(0, 0, 0)" stroke-miterlimit="10" pointer-events="none"/><path d="M 535 312.5 L 545.88 312.28" fill="none" stroke="rgb(0, 0, 0)" stroke-miterlimit="10" stroke-dasharray="3 3" pointer-events="none"/><path d="M 558.88 312.02 L 546.01 318.78 L 545.75 305.78 Z" fill="none" stroke="rgb(0, 0, 0)" stroke-miterlimit="10" pointer-events="none"/><path d="M 610 302 Q 620 302 620 312 Q 620 322 610 322" fill="none" stroke="rgb(0, 0, 0)" stroke-miterlimit="10" transform="rotate(180,615,312)" pointer-events="none"/><rect x="51" y="190" width="250" height="300" fill="#ffffff" stroke="rgb(0, 0, 0)" pointer-events="none"/><g fill="rgb(0, 0, 0)" font-family="Helvetica" font-weight="bold" pointer-events="none" text-anchor="middle" font-size="12px"><text x="175.5" y="456.5">«BusinessFunction»</text><text x="175.5" y="470.5">PartnerCertification domain</text></g><path d="M 278 197 L 294 197 L 294 217 L 278 217 L 278 213 L 274 213 L 274 209 L 278 209 L 278 205 L 274 205 L 274 201 L 278 201 Z" fill="rgb(255, 255, 255)" stroke="rgb(0, 0, 0)" stroke-miterlimit="10" pointer-events="none"/><path d="M 278 201 L 282 201 L 282 205 L 278 205 M 278 209 L 282 209 L 282 213 L 278 213" fill="none" stroke="rgb(0, 0, 0)" stroke-miterlimit="10" pointer-events="none"/><rect x="99" y="180" width="30" height="30" fill="#ffffff" stroke="rgb(0, 0, 0)" pointer-events="none"/><g fill="rgb(0, 0, 0)" font-family="Helvetica" pointer-events="none" text-anchor="middle" font-size="12px"><text x="113.5" y="174.5">PartnerRegistration</text></g><rect x="221" y="180" width="30" height="30" fill="#ffffff" stroke="rgb(0, 0, 0)" pointer-events="none"/><g fill="rgb(0, 0, 0)" font-family="Helvetica" pointer-events="none" text-anchor="middle" font-size="12px"><text x="235.5" y="174.5">PartnerAssessment</text></g><rect x="291" y="401" width="29" height="29" fill="#ffffff" stroke="rgb(0, 0, 0)" pointer-events="none"/><g fill="rgb(0, 0, 0)" font-family="Helvetica" pointer-events="none" text-anchor="end" font-size="12px"><text x="288.5" y="413">PartnerAssessment</text><text x="288.5" y="427">Events</text></g><rect x="41" y="344" width="30" height="30" fill="#ffffff" stroke="rgb(0, 0, 0)" pointer-events="none"/><g fill="rgb(0, 0, 0)" font-family="Helvetica" pointer-events="none" font-size="12px"><text x="72.5" y="356.5">PartnerRegistration</text><text x="72.5" y="370.5">Events</text></g><path d="M 331 406 Q 341 406 341 416 Q 341 426 331 426" fill="none" stroke="rgb(0, 0, 0)" stroke-miterlimit="10" transform="rotate(180,336,416)" pointer-events="none"/><path d="M 320 415.5 L 331 416" fill="none" stroke="rgb(0, 0, 0)" stroke-miterlimit="10" pointer-events="none"/><path d="M 21 349 Q 31 349 31 359 Q 31 369 21 369" fill="none" stroke="rgb(0, 0, 0)" stroke-miterlimit="10" pointer-events="none"/><path d="M 41 359 L 31 359" fill="none" stroke="rgb(0, 0, 0)" stroke-miterlimit="10" pointer-events="none"/><path d="M 72 235 L 166 235 L 166 295 L 72 295 L 72 275 L 62 275 L 62 265 L 72 265 L 72 255 L 62 255 L 62 245 L 72 245 Z" fill="#ffffff" stroke="rgb(0, 0, 0)" stroke-miterlimit="10" pointer-events="none"/><path d="M 72 245 L 82 245 L 82 255 L 72 255 M 72 265 L 82 265 L 82 275 L 72 275" fill="none" stroke="rgb(0, 0, 0)" stroke-miterlimit="10" pointer-events="none"/><g fill="rgb(0, 0, 0)" font-family="Helvetica" pointer-events="none" text-anchor="middle" font-size="12px"><text x="123.5" y="252.5">Registration</text><text x="123.5" y="266.5">Service</text></g><path d="M 114 235 L 114 224.12" fill="none" stroke="rgb(0, 0, 0)" stroke-miterlimit="10" stroke-dasharray="3 3" pointer-events="none"/><path d="M 114 211.12 L 120.5 224.12 L 107.5 224.12 Z" fill="none" stroke="rgb(0, 0, 0)" stroke-miterlimit="10" pointer-events="none"/><path d="M 114 295 L 73.63 334.17" fill="none" stroke="rgb(0, 0, 0)" stroke-miterlimit="10" stroke-dasharray="3 3" pointer-events="none"/><path d="M 64.3 343.22 L 69.11 329.5 L 78.16 338.83 Z" fill="none" stroke="rgb(0, 0, 0)" stroke-miterlimit="10" pointer-events="none"/><path d="M 194 289 L 288 289 L 288 349 L 194 349 L 194 329 L 184 329 L 184 319 L 194 319 L 194 309 L 184 309 L 184 299 L 194 299 Z" fill="#ffffff" stroke="rgb(0, 0, 0)" stroke-miterlimit="10" pointer-events="none"/><path d="M 194 299 L 204 299 L 204 309 L 194 309 M 194 319 L 204 319 L 204 329 L 194 329" fill="none" stroke="rgb(0, 0, 0)" stroke-miterlimit="10" pointer-events="none"/><g fill="rgb(0, 0, 0)" font-family="Helvetica" pointer-events="none" text-anchor="middle" font-size="12px"><text x="245.5" y="306.5">Assessment</text><text x="245.5" y="320.5">Service</text></g><path d="M 236 289 L 236 224.12" fill="none" stroke="rgb(0, 0, 0)" stroke-miterlimit="10" stroke-dasharray="3 3" pointer-events="none"/><path d="M 236 211.12 L 242.5 224.12 L 229.5 224.12 Z" fill="none" stroke="rgb(0, 0, 0)" stroke-miterlimit="10" pointer-events="none"/><path d="M 240 350 L 281.02 391.02" fill="none" stroke="rgb(0, 0, 0)" stroke-miterlimit="10" stroke-dasharray="3 3" pointer-events="none"/><path d="M 290.21 400.21 L 276.42 395.61 L 285.61 386.42 Z" fill="none" stroke="rgb(0, 0, 0)" stroke-miterlimit="10" pointer-events="none"/><path d="M 545 45 L 644 45 L 660 61 L 660 125 L 545 125 L 545 45 Z" fill="#ffffff" stroke="rgb(0, 0, 0)" stroke-miterlimit="10" pointer-events="none"/><path d="M 644 45 L 644 61 L 660 61 Z" fill-opacity="0.05" fill="#000000" stroke="none" pointer-events="none"/><path d="M 644 45 L 644 61 L 660 61" fill="none" stroke="rgb(0, 0, 0)" stroke-miterlimit="10" pointer-events="none"/><g fill="rgb(0, 0, 0)" font-family="Helvetica" pointer-events="none" font-size="12px"><rect fill="#FFFF66" stroke="none" x="547" y="65" width="113" height="43" stroke-width="0"/><text x="546.5" y="75.5">Use context only</text><text x="546.5" y="89.5">rarely here</text><text x="546.5" y="103.5">(--&gt; System Context)</text></g><path d="M 470 86 L 545 85" fill="none" stroke="rgb(0, 0, 0)" stroke-miterlimit="10" stroke-dasharray="3 3" pointer-events="none"/><path d="M 400 415 L 333.24 415.97" fill="none" stroke="rgb(0, 0, 0)" stroke-miterlimit="10" stroke-dasharray="3 3" pointer-events="none"/><path d="M 345.02 409.3 L 332.12 415.98 L 345.21 422.29" fill="none" stroke="rgb(0, 0, 0)" stroke-miterlimit="10" pointer-events="none"/><g fill="rgb(0, 0, 0)" font-family="Helvetica" pointer-events="none" text-anchor="middle" font-size="11px"><rect fill="rgb(255, 255, 255)" stroke="none" x="355" y="410" width="22" height="14" stroke-width="0"/><text x="364.5" y="419.51">Use</text></g><path d="M 420 111 L 253.04 186.58" fill="none" stroke="rgb(0, 0, 0)" stroke-miterlimit="10" stroke-dasharray="3 3" pointer-events="none"/><path d="M 261.18 175.76 L 252.02 187.04 L 266.54 187.6" fill="none" stroke="rgb(0, 0, 0)" stroke-miterlimit="10" pointer-events="none"/><g fill="rgb(0, 0, 0)" font-family="Helvetica" pointer-events="none" text-anchor="middle" font-size="11px"><rect fill="rgb(255, 255, 255)" stroke="none" x="325" y="143" width="22" height="14" stroke-width="0"/><text x="334.78" y="153.35">Use</text></g><path d="M 420 111 L 463.29 178.12" fill="none" stroke="rgb(0, 0, 0)" stroke-miterlimit="10" stroke-dasharray="3 3" pointer-events="none"/><path d="M 451.39 171.66 L 463.89 179.06 L 462.31 164.61" fill="none" stroke="rgb(0, 0, 0)" stroke-miterlimit="10" pointer-events="none"/><g fill="rgb(0, 0, 0)" font-family="Helvetica" pointer-events="none" text-anchor="middle" font-size="11px"><rect fill="rgb(255, 255, 255)" stroke="none" x="432" y="139" width="22" height="14" stroke-width="0"/><text x="441.72" y="149.46">Use</text></g><path d="M 590 312 L 610 312" fill="none" stroke="rgb(0, 0, 0)" stroke-miterlimit="10" pointer-events="none"/><path d="M 690 340 L 622.06 310.88" fill="none" stroke="rgb(0, 0, 0)" stroke-miterlimit="10" stroke-dasharray="3 3" pointer-events="none"/><path d="M 635.54 309.59 L 621.03 310.44 L 630.42 321.54" fill="none" stroke="rgb(0, 0, 0)" stroke-miterlimit="10" pointer-events="none"/><g fill="rgb(0, 0, 0)" font-family="Helvetica" pointer-events="none" text-anchor="middle" font-size="11px"><rect fill="rgb(255, 255, 255)" stroke="none" x="645" y="319" width="22" height="14" stroke-width="0"/><text x="654.57" y="329.03">Use</text></g><rect x="748" y="180" width="30" height="30" fill="#ffffff" stroke="rgb(0, 0, 0)" pointer-events="none"/><g fill="rgb(0, 0, 0)" font-family="Helvetica" pointer-events="none" font-size="12px"><text x="749.5" y="174.5">DeliveryTracking</text></g><rect x="680" y="396" width="30" height="30" fill="#ffffff" stroke="rgb(0, 0, 0)" pointer-events="none"/><g fill="rgb(0, 0, 0)" font-family="Helvetica" pointer-events="none" font-size="12px"><text x="711.5" y="415.5">DeliveryStatusEvents</text></g><path d="M 730 260 L 820 260 L 820 310 L 730 310 L 730 300 L 720 300 L 720 290 L 730 290 L 730 280 L 720 280 L 720 270 L 730 270 Z" fill="#ffffff" stroke="rgb(0, 0, 0)" stroke-miterlimit="10" pointer-events="none"/><path d="M 730 270 L 740 270 L 740 280 L 730 280 M 730 290 L 740 290 L 740 300 L 730 300" fill="none" stroke="rgb(0, 0, 0)" stroke-miterlimit="10" pointer-events="none"/><g fill="rgb(0, 0, 0)" font-family="Helvetica" pointer-events="none" text-anchor="middle" font-size="12px"><text x="779.5" y="277.5">Solution</text><text x="779.5" y="291.5">Provisioning</text><text x="779.5" y="305.5">Service</text></g><path d="M 650 401 Q 660 401 660 411 Q 660 421 650 421" fill="none" stroke="rgb(0, 0, 0)" stroke-miterlimit="10" pointer-events="none"/><path d="M 660 411 L 680 411" fill="none" stroke="rgb(0, 0, 0)" stroke-miterlimit="10" pointer-events="none"/><path d="M 770 260 L 770.36 224.12" fill="none" stroke="rgb(0, 0, 0)" stroke-miterlimit="10" stroke-dasharray="3 3" pointer-events="none"/><path d="M 770.49 211.12 L 776.86 224.18 L 763.86 224.05 Z" fill="none" stroke="rgb(0, 0, 0)" stroke-miterlimit="10" pointer-events="none"/><path d="M 770 310 L 718.08 384.42" fill="none" stroke="rgb(0, 0, 0)" stroke-miterlimit="10" stroke-dasharray="3 3" pointer-events="none"/><path d="M 710.64 395.08 L 712.75 380.7 L 723.41 388.14 Z" fill="none" stroke="rgb(0, 0, 0)" stroke-miterlimit="10" pointer-events="none"/></g></svg>