<?xml version="1.0" encoding="UTF-8"?>
<!DOCTYPE svg PUBLIC "-//W3C//DTD SVG 1.1//EN" "http://www.w3.org/Graphics/SVG/1.1/DTD/svg11.dtd">
<svg xmlns="http://www.w3.org/2000/svg" xmlns:xlink="http://www.w3.org/1999/xlink" version="1.1" width="1152px" height="821px" viewBox="-0.5 -0.5 1152 821"><defs/><g><rect x="70" y="100" width="720.3" height="589" fill="none" stroke="#147eba" stroke-dasharray="3 3" pointer-events="all"/><g fill="#147EBA" font-family="Helvetica" text-anchor="middle" font-size="12px"><text x="429.65" y="117.5">AZ3  Biere</text></g><path d="M 80 129 L 230 129 L 230 679 L 80 679 Z" fill="none" stroke="#248814" stroke-miterlimit="10" pointer-events="all"/><path d="M 90.59 135.65 C 90.53 135.65 90.48 135.65 90.42 135.65 L 90.42 135.65 C 89.11 135.68 88.03 136.24 87.14 137.25 C 87.13 137.25 87.13 137.25 87.13 137.25 C 86.2 138.36 85.87 139.52 85.96 140.73 C 84.81 141.06 84.12 141.92 83.76 142.74 C 83.75 142.75 83.75 142.76 83.74 142.78 C 83.33 144.05 83.68 145.36 84.24 146.16 C 84.25 146.17 84.25 146.17 84.26 146.18 C 84.94 147.05 85.97 147.53 87.02 147.53 L 98.17 147.53 C 99.19 147.53 100.07 147.16 100.8 146.37 C 101.25 145.94 101.49 145.29 101.58 144.59 C 101.67 143.9 101.61 143.16 101.32 142.55 C 101.31 142.54 101.31 142.53 101.31 142.52 C 100.8 141.62 99.95 140.81 98.76 140.64 C 98.74 139.79 98.28 138.99 97.68 138.56 C 97.67 138.55 97.66 138.55 97.65 138.54 C 97.01 138.18 96.4 138.14 95.91 138.3 C 95.6 138.4 95.36 138.56 95.14 138.74 C 94.51 137.36 93.43 136.18 91.81 135.79 C 91.81 135.79 91.81 135.79 91.81 135.79 C 91.38 135.7 90.97 135.65 90.59 135.65 Z M 90.43 136.38 C 90.8 136.38 91.2 136.43 91.64 136.53 C 93.16 136.89 94.15 138.07 94.66 139.48 C 94.71 139.6 94.81 139.69 94.94 139.72 C 95.07 139.74 95.2 139.7 95.29 139.61 C 95.54 139.34 95.83 139.11 96.14 139.01 C 96.44 138.91 96.78 138.92 97.26 139.18 C 97.67 139.49 98.11 140.31 98.03 140.9 C 98.01 141.01 98.05 141.12 98.12 141.2 C 98.19 141.28 98.29 141.33 98.39 141.33 C 99.46 141.34 100.16 142.02 100.64 142.88 C 100.85 143.3 100.91 143.92 100.84 144.5 C 100.76 145.07 100.53 145.59 100.28 145.83 C 100.27 145.84 100.27 145.85 100.26 145.85 C 99.65 146.53 99.03 146.78 98.17 146.78 L 87.02 146.78 C 86.2 146.78 85.39 146.41 84.85 145.73 C 84.44 145.13 84.14 144.02 84.46 143.02 C 84.79 142.27 85.36 141.55 86.41 141.36 C 86.6 141.32 86.74 141.14 86.71 140.94 C 86.56 139.79 86.8 138.81 87.7 137.74 C 88.49 136.85 89.33 136.39 90.43 136.38 Z M 92.2 139.7 C 91.77 139.7 91.4 139.93 91.13 140.21 C 90.85 140.5 90.64 140.85 90.64 141.25 L 90.64 141.71 L 90.14 141.71 C 90.04 141.71 89.94 141.75 89.87 141.82 C 89.8 141.89 89.76 141.98 89.76 142.08 L 89.76 144.7 C 89.76 144.8 89.8 144.89 89.87 144.96 C 89.94 145.03 90.04 145.07 90.14 145.07 L 94.16 145.07 C 94.26 145.07 94.35 145.03 94.42 144.96 C 94.49 144.89 94.53 144.8 94.53 144.7 L 94.53 142.08 C 94.53 141.98 94.49 141.89 94.42 141.82 C 94.35 141.75 94.26 141.71 94.16 141.71 L 93.68 141.71 L 93.68 141.25 C 93.68 140.84 93.47 140.47 93.21 140.2 C 92.94 139.92 92.61 139.7 92.2 139.7 Z M 92.2 140.45 C 92.29 140.45 92.5 140.54 92.67 140.72 C 92.83 140.89 92.93 141.11 92.93 141.25 L 92.93 141.71 L 91.39 141.71 L 91.39 141.25 C 91.39 141.15 91.49 140.91 91.66 140.74 C 91.83 140.56 92.06 140.45 92.2 140.45 Z M 90.51 142.46 L 93.78 142.46 L 93.78 144.32 L 90.51 144.32 Z M 80 154 L 80 129 L 105 129 L 105 154 Z" fill="#248814" stroke="none" pointer-events="all"/><g fill="#AAB7B8" font-family="Helvetica" font-size="12px"><text x="111.5" y="146.5">php-env-vpc</text></g><path d="M 270 129 L 1140.3 129 L 1140.3 679 L 270 679 Z" fill="none" stroke="#248814" stroke-miterlimit="10" pointer-events="all"/><path d="M 280.59 135.65 C 280.53 135.65 280.48 135.65 280.42 135.65 L 280.42 135.65 C 279.11 135.68 278.03 136.24 277.14 137.25 C 277.13 137.25 277.13 137.25 277.13 137.25 C 276.2 138.36 275.87 139.52 275.96 140.73 C 274.81 141.06 274.12 141.92 273.76 142.74 C 273.75 142.75 273.75 142.76 273.74 142.78 C 273.33 144.05 273.68 145.36 274.24 146.16 C 274.25 146.17 274.25 146.17 274.26 146.18 C 274.94 147.05 275.97 147.53 277.02 147.53 L 288.17 147.53 C 289.19 147.53 290.07 147.16 290.8 146.37 C 291.25 145.94 291.49 145.29 291.58 144.59 C 291.67 143.9 291.61 143.16 291.32 142.55 C 291.31 142.54 291.31 142.53 291.31 142.52 C 290.8 141.62 289.95 140.81 288.76 140.64 C 288.74 139.79 288.28 138.99 287.68 138.56 C 287.67 138.55 287.66 138.55 287.65 138.54 C 287.01 138.18 286.4 138.14 285.91 138.3 C 285.6 138.4 285.36 138.56 285.14 138.74 C 284.51 137.36 283.43 136.18 281.81 135.79 C 281.81 135.79 281.81 135.79 281.81 135.79 C 281.38 135.7 280.97 135.65 280.59 135.65 Z M 280.43 136.38 C 280.8 136.38 281.2 136.43 281.64 136.53 C 283.16 136.89 284.15 138.07 284.66 139.48 C 284.71 139.6 284.81 139.69 284.94 139.72 C 285.07 139.74 285.2 139.7 285.29 139.61 C 285.54 139.34 285.83 139.11 286.14 139.01 C 286.44 138.91 286.78 138.92 287.26 139.18 C 287.67 139.49 288.11 140.31 288.03 140.9 C 288.01 141.01 288.05 141.12 288.12 141.2 C 288.19 141.28 288.29 141.33 288.39 141.33 C 289.46 141.34 290.16 142.02 290.64 142.88 C 290.85 143.3 290.91 143.92 290.84 144.5 C 290.76 145.07 290.53 145.59 290.28 145.83 C 290.27 145.84 290.27 145.85 290.26 145.85 C 289.65 146.53 289.03 146.78 288.17 146.78 L 277.02 146.78 C 276.2 146.78 275.39 146.41 274.85 145.73 C 274.44 145.13 274.14 144.02 274.46 143.02 C 274.79 142.27 275.36 141.55 276.41 141.36 C 276.6 141.32 276.74 141.14 276.71 140.94 C 276.56 139.79 276.8 138.81 277.7 137.74 C 278.49 136.85 279.33 136.39 280.43 136.38 Z M 282.2 139.7 C 281.77 139.7 281.4 139.93 281.13 140.21 C 280.85 140.5 280.64 140.85 280.64 141.25 L 280.64 141.71 L 280.14 141.71 C 280.04 141.71 279.94 141.75 279.87 141.82 C 279.8 141.89 279.76 141.98 279.76 142.08 L 279.76 144.7 C 279.76 144.8 279.8 144.89 279.87 144.96 C 279.94 145.03 280.04 145.07 280.14 145.07 L 284.16 145.07 C 284.26 145.07 284.35 145.03 284.42 144.96 C 284.49 144.89 284.53 144.8 284.53 144.7 L 284.53 142.08 C 284.53 141.98 284.49 141.89 284.42 141.82 C 284.35 141.75 284.26 141.71 284.16 141.71 L 283.68 141.71 L 283.68 141.25 C 283.68 140.84 283.47 140.47 283.21 140.2 C 282.94 139.92 282.61 139.7 282.2 139.7 Z M 282.2 140.45 C 282.29 140.45 282.5 140.54 282.67 140.72 C 282.83 140.89 282.93 141.11 282.93 141.25 L 282.93 141.71 L 281.39 141.71 L 281.39 141.25 C 281.39 141.15 281.49 140.91 281.66 140.74 C 281.83 140.56 282.06 140.45 282.2 140.45 Z M 280.51 142.46 L 283.78 142.46 L 283.78 144.32 L 280.51 144.32 Z M 270 154 L 270 129 L 295 129 L 295 154 Z" fill="#248814" stroke="none" pointer-events="all"/><g fill="#AAB7B8" font-family="Helvetica" font-size="12px"><text x="301.5" y="146.5">php-env-vpc</text></g><rect x="810.3" y="100" width="340" height="589" fill="none" stroke="#147eba" stroke-dasharray="3 3" pointer-events="all"/><g fill="#147EBA" font-family="Helvetica" text-anchor="middle" font-size="12px"><text x="979.8" y="117.5">AZ2 Magdeburg</text></g><path d="M 280 222 L 1130.3 222 L 1130.3 429 L 280 429 Z" fill="#e6f2f8" stroke="none" pointer-events="all"/><path d="M 280 222 L 305 222 L 305 247 L 280 247 Z M 292.52 225.21 C 291.4 225.21 290.31 225.63 289.49 226.39 C 288.67 227.11 288.2 228.15 288.2 229.24 L 288.2 231.78 L 285.89 231.78 C 285.8 231.78 285.7 231.82 285.64 231.89 C 285.57 231.95 285.54 232.04 285.54 232.13 L 285.54 243.43 C 285.54 243.63 285.7 243.79 285.89 243.79 L 299.11 243.79 C 299.3 243.79 299.46 243.63 299.46 243.43 L 299.46 232.15 C 299.47 232.06 299.43 231.97 299.36 231.9 C 299.3 231.83 299.21 231.79 299.11 231.79 L 296.81 231.79 L 296.81 229.29 C 296.8 228.21 296.35 227.18 295.56 226.44 C 294.74 225.65 293.65 225.22 292.52 225.21 Z M 292.51 225.93 C 293.46 225.92 294.37 226.28 295.06 226.93 C 295.72 227.54 296.1 228.4 296.1 229.29 L 296.1 231.79 L 288.88 231.79 L 288.89 229.26 C 288.9 228.36 289.28 227.51 289.95 226.91 C 290.65 226.27 291.57 225.92 292.51 225.93 Z M 286.24 232.5 L 298.76 232.5 L 298.75 243.07 L 286.24 243.07 Z M 292.51 234.74 C 291.48 234.73 290.61 235.51 290.51 236.53 C 290.42 237.56 291.13 238.48 292.14 238.66 L 292.14 241.44 L 292.86 241.44 L 292.86 238.66 C 293.79 238.49 294.47 237.67 294.48 236.72 C 294.48 235.63 293.6 234.75 292.51 234.74 Z M 292.39 235.45 C 292.43 235.45 292.47 235.45 292.51 235.46 C 292.84 235.46 293.16 235.59 293.4 235.83 C 293.64 236.07 293.77 236.39 293.76 236.72 C 293.77 237.06 293.64 237.38 293.4 237.61 C 293.16 237.85 292.84 237.98 292.51 237.98 C 292.04 238.02 291.6 237.8 291.34 237.42 C 291.08 237.03 291.06 236.53 291.28 236.12 C 291.5 235.71 291.93 235.46 292.39 235.45 Z" fill="#147eba" stroke="none" pointer-events="all"/><g fill="#147EBA" font-family="Helvetica" font-size="12px"><text x="311.5" y="239.5">php-env-application-sn</text></g><path d="M 280 433 L 1130.3 433 L 1130.3 669 L 280 669 Z" fill="#e6f2f8" stroke="none" pointer-events="all"/><path d="M 280 433 L 305 433 L 305 458 L 280 458 Z M 292.52 436.21 C 291.4 436.21 290.31 436.63 289.49 437.39 C 288.67 438.11 288.2 439.15 288.2 440.24 L 288.2 442.78 L 285.89 442.78 C 285.8 442.78 285.7 442.82 285.64 442.89 C 285.57 442.95 285.54 443.04 285.54 443.13 L 285.54 454.43 C 285.54 454.63 285.7 454.79 285.89 454.79 L 299.11 454.79 C 299.3 454.79 299.46 454.63 299.46 454.43 L 299.46 443.15 C 299.47 443.06 299.43 442.97 299.36 442.9 C 299.3 442.83 299.21 442.79 299.11 442.79 L 296.81 442.79 L 296.81 440.29 C 296.8 439.21 296.35 438.18 295.56 437.44 C 294.74 436.65 293.65 436.22 292.52 436.21 Z M 292.51 436.93 C 293.46 436.92 294.37 437.28 295.06 437.93 C 295.72 438.54 296.1 439.4 296.1 440.29 L 296.1 442.79 L 288.88 442.79 L 288.89 440.26 C 288.9 439.36 289.28 438.51 289.95 437.91 C 290.65 437.27 291.57 436.92 292.51 436.93 Z M 286.24 443.5 L 298.76 443.5 L 298.75 454.07 L 286.24 454.07 Z M 292.51 445.74 C 291.48 445.73 290.61 446.51 290.51 447.53 C 290.42 448.56 291.13 449.48 292.14 449.66 L 292.14 452.44 L 292.86 452.44 L 292.86 449.66 C 293.79 449.49 294.47 448.67 294.48 447.72 C 294.48 446.63 293.6 445.75 292.51 445.74 Z M 292.39 446.45 C 292.43 446.45 292.47 446.45 292.51 446.46 C 292.84 446.46 293.16 446.59 293.4 446.83 C 293.64 447.07 293.77 447.39 293.76 447.72 C 293.77 448.06 293.64 448.38 293.4 448.61 C 293.16 448.85 292.84 448.98 292.51 448.98 C 292.04 449.02 291.6 448.8 291.34 448.42 C 291.08 448.03 291.06 447.53 291.28 447.12 C 291.5 446.71 291.93 446.46 292.39 446.45 Z" fill="#147eba" stroke="none" pointer-events="all"/><g fill="#147EBA" font-family="Helvetica" font-size="12px"><text x="311.5" y="450.5">php-env-database-sn</text></g><rect x="570.3" y="479" width="410" height="60" fill="none" stroke="#0000ff" pointer-events="all"/><g fill="#0000FF" font-family="Helvetica" font-size="12px"><text x="981.8" y="513.5">php-env-database-sg</text></g><path d="M 70 699 L 1150 699 L 1150 820 L 70 820 Z" fill="none" stroke="#147eba" stroke-miterlimit="10" stroke-dasharray="3 3" pointer-events="all"/><path d="M 78.06 702.47 C 77.47 702.47 77 702.95 77 703.53 C 77 703.99 77.3 704.39 77.71 704.53 L 77.71 719.82 L 75.95 719.82 L 75.95 720.57 L 80.16 720.57 L 80.16 719.82 L 78.46 719.82 L 78.46 711.75 L 89.84 711.75 L 87.19 708.59 L 89.83 705.36 L 78.46 705.36 L 78.46 704.51 C 78.85 704.35 79.12 703.97 79.12 703.53 C 79.12 702.95 78.64 702.47 78.06 702.47 Z M 78.06 703.22 C 78.23 703.22 78.37 703.35 78.37 703.53 C 78.37 703.71 78.23 703.84 78.06 703.84 C 77.88 703.84 77.75 703.71 77.75 703.53 C 77.75 703.35 77.88 703.22 78.06 703.22 Z M 78.46 706.11 L 88.25 706.11 L 86.22 708.6 L 88.23 711 L 78.46 711 Z M 70 724 L 70 699 L 95 699 L 95 724 Z" fill="#147eba" stroke="none" pointer-events="all"/><g fill="#147EBA" font-family="Helvetica" font-size="12px"><text x="101.5" y="716.5">eu-de region</text></g><path d="M 734 250 L 864 250 L 864 400 L 734 400 Z" fill="none" stroke="#e20074" stroke-miterlimit="10" stroke-dasharray="3 3" pointer-events="all"/><path d="M 799.04 253.51 L 797.09 255.46 L 797.62 255.99 L 798.66 254.95 L 798.66 260.63 L 799.41 260.63 L 799.41 254.97 L 800.39 255.98 L 800.93 255.46 Z M 800.93 269.54 L 800.39 269.02 L 799.41 270.03 L 799.41 264.38 L 798.66 264.38 L 798.66 270.05 L 797.62 269.02 L 797.09 269.55 L 799.04 271.5 Z M 797.33 262.53 L 795.39 260.58 L 794.86 261.12 L 795.89 262.15 L 790.22 262.15 L 790.22 262.9 L 795.87 262.9 L 794.86 263.88 L 795.38 264.42 Z M 800.68 262.47 L 802.63 264.42 L 803.16 263.89 L 802.12 262.85 L 807.8 262.85 L 807.8 262.1 L 802.15 262.1 L 803.16 261.13 L 802.64 260.58 Z M 786.5 275 L 786.5 250 L 811.5 250 L 811.5 275 Z" fill="#e20074" stroke="none" pointer-events="all"/><g fill="#E20074" font-family="Helvetica" font-size="12px"><text x="865.5" y="335">php-env-</text><text x="865.5" y="349">node-group</text></g><path d="M 280 159 L 1130.3 159 L 1130.3 219 L 280 219 Z" fill="#e9f3e6" stroke="none" pointer-events="all"/><path d="M 280 159 L 305 159 L 305 184 L 280 184 Z M 292.52 162.21 C 291.4 162.21 290.31 162.63 289.49 163.39 C 288.67 164.11 288.2 165.15 288.2 166.24 L 288.2 168.78 L 285.89 168.78 C 285.8 168.78 285.7 168.82 285.64 168.89 C 285.57 168.95 285.54 169.04 285.54 169.13 L 285.54 180.43 C 285.54 180.63 285.7 180.79 285.89 180.79 L 299.11 180.79 C 299.3 180.79 299.46 180.63 299.46 180.43 L 299.46 169.15 C 299.47 169.06 299.43 168.97 299.36 168.9 C 299.3 168.83 299.21 168.79 299.11 168.79 L 296.81 168.79 L 296.81 166.29 C 296.8 165.21 296.35 164.18 295.56 163.44 C 294.74 162.65 293.65 162.22 292.52 162.21 Z M 292.51 162.93 C 293.46 162.92 294.37 163.28 295.06 163.93 C 295.72 164.54 296.1 165.4 296.1 166.29 L 296.1 168.79 L 288.88 168.79 L 288.89 166.26 C 288.9 165.36 289.28 164.51 289.95 163.91 C 290.65 163.27 291.57 162.92 292.51 162.93 Z M 286.24 169.5 L 298.76 169.5 L 298.75 180.07 L 286.24 180.07 Z M 292.51 171.74 C 291.48 171.73 290.61 172.51 290.51 173.53 C 290.42 174.56 291.13 175.48 292.14 175.66 L 292.14 178.44 L 292.86 178.44 L 292.86 175.66 C 293.79 175.49 294.47 174.67 294.48 173.72 C 294.48 172.63 293.6 171.75 292.51 171.74 Z M 292.39 172.45 C 292.43 172.45 292.47 172.45 292.51 172.46 C 292.84 172.46 293.16 172.59 293.4 172.83 C 293.64 173.07 293.77 173.39 293.76 173.72 C 293.77 174.06 293.64 174.38 293.4 174.61 C 293.16 174.85 292.84 174.98 292.51 174.98 C 292.04 175.02 291.6 174.8 291.34 174.42 C 291.08 174.03 291.06 173.53 291.28 173.12 C 291.5 172.71 291.93 172.46 292.39 172.45 Z" fill="#248814" stroke="none" pointer-events="all"/><g fill="#248814" font-family="Helvetica" font-size="12px"><text x="311.5" y="176.5">php-env-dmz-sn</text></g><rect x="700.16" y="720.5" width="75" height="78" fill="none" stroke="none" pointer-events="all"/><path d="M 731.27 773.23 L 719.01 773.23 C 718.02 773.23 717.23 774.03 717.23 775.01 L 717.23 787.42 C 717.23 788.4 718.02 789.19 719.01 789.19 L 731.27 789.19 C 732.25 789.19 733.05 788.4 733.05 787.42 L 733.05 775.01 C 733.05 774.03 732.25 773.23 731.27 773.23 Z M 720.79 785.64 L 720.79 776.79 L 729.49 776.79 L 729.49 785.64 Z M 747.53 783.07 C 752.36 783.07 756.29 779.13 756.29 774.28 C 756.29 769.42 752.36 765.48 747.53 765.48 C 742.71 765.48 738.78 769.42 738.78 774.28 C 738.78 779.13 742.71 783.07 747.53 783.07 Z M 747.53 769.03 C 750.4 769.03 752.73 771.38 752.73 774.28 C 752.73 777.17 750.4 779.52 747.53 779.52 C 744.67 779.52 742.33 777.17 742.33 774.28 C 742.33 771.38 744.67 769.03 747.53 769.03 Z M 731.25 766.58 C 731.56 766.02 731.55 765.34 731.22 764.79 L 723.47 751.87 C 722.83 750.8 721.06 750.8 720.42 751.87 L 712.66 764.79 C 712.33 765.34 712.33 766.02 712.64 766.58 C 712.96 767.14 713.55 767.48 714.19 767.48 L 729.7 767.48 C 730.34 767.48 730.93 767.14 731.25 766.58 Z M 717.33 763.93 L 721.94 756.23 L 726.56 763.93 Z M 774.98 763.44 C 774.6 761.41 772.25 759.25 767.48 756.52 L 770.52 733.95 L 770.52 733.95 L 770.52 733.94 L 770.6 733.25 C 770.62 733.18 770.62 733.1 770.62 733.02 C 770.62 725.64 752.06 720.5 735.39 720.5 C 718.73 720.5 700.17 725.64 700.17 733.02 C 700.17 733.1 700.17 733.18 700.18 733.25 L 700.27 733.94 L 700.27 733.95 L 700.27 733.95 L 707.76 789.56 C 708 796.07 724.78 798.5 735.39 798.5 C 741.26 798.5 747.14 797.89 751.96 796.77 C 753.9 796.33 755.64 795.8 757.13 795.21 C 760.97 793.69 762.95 791.79 763.03 789.56 L 766.11 766.68 C 767.79 767.04 769.32 767.25 770.59 767.25 C 772.31 767.25 773.59 766.89 774.29 766.06 C 774.91 765.32 775.15 764.39 774.98 763.44 Z M 735.39 724.06 C 753.83 724.06 766.82 729.76 767.06 732.93 L 767.02 733.3 C 766.98 733.41 766.91 733.52 766.85 733.64 C 766.81 733.73 766.77 733.82 766.71 733.91 C 766.63 734.02 766.51 734.14 766.41 734.25 C 766.32 734.34 766.25 734.44 766.14 734.53 C 766.01 734.65 765.86 734.76 765.7 734.88 C 765.58 734.98 765.47 735.07 765.32 735.17 C 765.15 735.28 764.95 735.4 764.75 735.52 C 764.59 735.61 764.44 735.71 764.26 735.81 C 764.05 735.92 763.81 736.04 763.58 736.15 C 763.37 736.25 763.18 736.35 762.96 736.45 C 762.71 736.56 762.43 736.66 762.16 736.77 C 761.92 736.87 761.69 736.97 761.43 737.07 C 761.14 737.18 760.82 737.28 760.52 737.39 C 760.24 737.48 759.97 737.58 759.68 737.67 C 759.36 737.77 759.01 737.87 758.67 737.97 C 758.35 738.06 758.05 738.16 757.72 738.25 C 757.37 738.34 756.98 738.43 756.62 738.52 C 756.26 738.61 755.92 738.7 755.55 738.79 C 755.17 738.87 754.75 738.95 754.36 739.03 C 753.97 739.12 753.6 739.2 753.19 739.28 C 752.76 739.36 752.31 739.43 751.86 739.51 C 751.45 739.58 751.06 739.65 750.65 739.72 C 750.18 739.79 749.68 739.85 749.19 739.92 C 748.76 739.98 748.35 740.04 747.92 740.09 C 747.41 740.15 746.88 740.2 746.35 740.26 C 745.91 740.31 745.48 740.36 745.02 740.4 C 744.45 740.45 743.84 740.49 743.25 740.54 C 742.82 740.57 742.41 740.6 741.97 740.63 C 741.29 740.67 740.59 740.7 739.89 740.72 C 739.51 740.74 739.14 740.76 738.75 740.78 C 737.66 740.81 736.53 740.82 735.39 740.82 C 734.25 740.82 733.13 740.81 732.03 740.78 C 731.66 740.76 731.3 740.74 730.93 740.73 C 730.22 740.7 729.51 740.67 728.82 740.63 C 728.4 740.61 728.01 740.57 727.6 740.54 C 726.98 740.49 726.36 740.46 725.76 740.4 C 725.33 740.36 724.93 740.31 724.51 740.27 C 723.96 740.21 723.4 740.16 722.86 740.09 C 722.46 740.04 722.07 739.98 721.68 739.93 C 721.16 739.86 720.63 739.79 720.14 739.72 C 719.74 739.66 719.38 739.59 719 739.52 C 718.53 739.44 718.05 739.36 717.59 739.28 C 717.21 739.2 716.86 739.12 716.49 739.05 C 716.07 738.96 715.64 738.88 715.23 738.79 C 714.88 738.71 714.56 738.62 714.22 738.54 C 713.83 738.44 713.43 738.35 713.07 738.25 C 712.75 738.16 712.46 738.07 712.16 737.98 C 711.81 737.88 711.44 737.78 711.11 737.67 C 710.82 737.58 710.57 737.49 710.3 737.4 C 709.98 737.29 709.65 737.18 709.36 737.07 C 709.11 736.97 708.89 736.88 708.65 736.78 C 708.38 736.67 708.09 736.56 707.83 736.44 C 707.61 736.35 707.43 736.25 707.23 736.15 C 706.99 736.04 706.74 735.92 706.53 735.81 C 706.35 735.71 706.2 735.61 706.04 735.52 C 705.84 735.4 705.64 735.29 705.47 735.17 C 705.33 735.07 705.21 734.98 705.09 734.88 C 704.94 734.77 704.77 734.65 704.65 734.53 C 704.54 734.44 704.47 734.34 704.38 734.25 C 704.28 734.14 704.16 734.02 704.08 733.91 C 704.02 733.82 703.98 733.73 703.94 733.64 C 703.88 733.52 703.81 733.41 703.77 733.3 L 703.73 732.93 C 703.97 729.76 716.96 724.06 735.39 724.06 Z M 759.49 789.18 C 759.48 789.26 759.48 789.34 759.48 789.42 C 759.48 789.69 758.81 790.73 755.82 791.91 C 754.49 792.43 752.92 792.9 751.16 793.31 C 746.59 794.36 741 794.94 735.39 794.94 C 720.41 794.94 711.32 791.11 711.32 789.42 C 711.32 789.34 711.31 789.26 711.3 789.18 L 704.51 738.73 C 704.94 738.98 705.41 739.22 705.9 739.46 C 706.03 739.52 706.16 739.58 706.29 739.64 C 706.73 739.84 707.19 740.04 707.67 740.23 C 707.86 740.3 708.05 740.38 708.25 740.45 C 708.75 740.64 709.26 740.82 709.8 740.99 C 709.94 741.04 710.07 741.09 710.22 741.14 C 710.9 741.35 711.6 741.55 712.33 741.75 C 712.51 741.79 712.7 741.84 712.89 741.89 C 713.46 742.03 714.04 742.17 714.64 742.3 C 714.87 742.36 715.11 742.41 715.35 742.46 C 716.01 742.6 716.68 742.73 717.36 742.85 C 717.5 742.88 717.63 742.91 717.77 742.93 C 718.58 743.07 719.42 743.2 720.27 743.33 C 720.49 743.36 720.72 743.39 720.95 743.42 C 721.6 743.51 722.26 743.59 722.92 743.67 C 723.18 743.7 723.44 743.73 723.7 743.76 C 724.49 743.84 725.29 743.92 726.09 743.99 C 726.19 744 726.28 744.01 726.38 744.02 C 727.27 744.09 728.17 744.15 729.07 744.2 C 729.32 744.21 729.57 744.22 729.83 744.24 C 730.51 744.27 731.19 744.3 731.87 744.32 C 732.14 744.33 732.41 744.34 732.68 744.34 C 733.58 744.36 734.49 744.38 735.39 744.38 C 736.3 744.38 737.2 744.36 738.11 744.34 C 738.38 744.34 738.64 744.33 738.91 744.32 C 739.59 744.3 740.28 744.27 740.96 744.24 C 741.21 744.22 741.46 744.21 741.72 744.2 C 742.62 744.15 743.52 744.09 744.41 744.02 C 744.5 744.01 744.59 744 744.68 743.99 C 745.49 743.92 746.29 743.84 747.09 743.76 C 747.35 743.73 747.6 743.7 747.86 743.67 C 748.53 743.59 749.19 743.51 749.84 743.42 C 750.07 743.39 750.29 743.36 750.52 743.33 C 751.37 743.2 752.21 743.07 753.03 742.93 C 753.15 742.91 753.28 742.88 753.4 742.86 C 754.1 742.73 754.78 742.6 755.45 742.46 C 755.68 742.41 755.91 742.36 756.15 742.3 C 756.75 742.17 757.34 742.03 757.91 741.88 C 758.09 741.84 758.28 741.79 758.46 741.75 C 759.19 741.55 759.89 741.35 760.57 741.13 C 760.71 741.09 760.84 741.04 760.98 741 C 761.52 740.82 762.04 740.64 762.55 740.45 C 762.74 740.38 762.93 740.3 763.12 740.23 C 763.6 740.04 764.06 739.84 764.51 739.63 C 764.63 739.57 764.76 739.52 764.88 739.46 C 765.38 739.22 765.85 738.98 766.29 738.73 L 763.12 762.26 C 756.68 760.19 747.64 756.44 739.09 752.38 C 738.99 750.42 737.38 748.85 735.39 748.85 C 733.35 748.85 731.68 750.51 731.68 752.56 C 731.68 754.62 733.35 756.28 735.39 756.28 C 736.2 756.28 736.94 756.02 737.55 755.58 C 745.21 759.26 755 763.6 762.64 765.81 Z M 735.23 752.56 C 735.23 752.48 735.31 752.4 735.39 752.4 C 735.42 752.4 735.44 752.42 735.46 752.43 L 735.34 752.68 C 735.28 752.66 735.23 752.63 735.23 752.56 Z M 766.57 763.27 L 766.96 760.34 C 770.09 762.24 771.07 763.35 771.36 763.82 C 770.52 764.07 768.84 763.85 766.57 763.27 Z" fill="#b5739d" stroke="none" pointer-events="all"/><g fill="#232F3E" font-family="Helvetica" font-size="12px"><text x="776.66" y="764">php-env-docs</text></g><rect x="878" y="479" width="23.05" height="29" fill="none" stroke="none" pointer-events="all"/><path d="M 889.04 496.25 C 889.17 496.12 889.34 496.05 889.53 496.05 L 889.53 496.05 C 889.71 496.05 889.88 496.12 890.02 496.25 C 890.15 496.38 890.22 496.55 890.22 496.74 L 890.22 496.74 C 890.22 496.93 890.15 497.1 890.01 497.23 C 889.88 497.36 889.71 497.43 889.53 497.43 L 889.52 497.43 C 889.14 497.43 888.83 497.12 888.83 496.74 C 888.83 496.55 888.9 496.38 889.04 496.25 Z M 888.87 498.62 L 888.87 500.94 L 890.18 500.94 L 890.18 498.63 C 890.46 498.53 890.72 498.38 890.94 498.16 C 891.32 497.78 891.53 497.28 891.53 496.74 C 891.53 496.21 891.32 495.7 890.94 495.32 C 890.56 494.94 890.06 494.74 889.53 494.74 L 889.52 494.74 C 888.99 494.74 888.49 494.94 888.11 495.32 C 887.73 495.7 887.52 496.2 887.52 496.74 C 887.52 497.61 888.09 498.35 888.87 498.62 Z M 895.16 502.57 L 883.91 502.56 L 883.91 493.58 L 895.16 493.59 Z M 886.75 490.16 C 886.75 489.39 887.05 488.67 887.58 488.12 C 888.1 487.59 888.79 487.29 889.53 487.29 L 889.54 487.29 C 890.27 487.29 890.96 487.59 891.48 488.14 C 892.01 488.69 892.29 489.42 892.29 490.2 L 892.29 492.28 L 886.74 492.27 Z M 895.82 492.28 L 893.6 492.28 L 893.6 490.2 C 893.61 489.08 893.19 488.03 892.43 487.23 C 891.66 486.43 890.64 485.98 889.54 485.98 L 889.53 485.98 C 888.44 485.98 887.41 486.41 886.64 487.21 C 885.87 487.99 885.44 489.04 885.44 490.16 L 885.43 492.27 L 883.26 492.27 C 883.09 492.27 882.92 492.34 882.8 492.46 C 882.67 492.59 882.6 492.75 882.6 492.93 L 882.6 503.22 C 882.6 503.58 882.89 503.88 883.26 503.88 L 895.81 503.88 C 896.18 503.88 896.47 503.59 896.47 503.23 L 896.47 492.93 C 896.47 492.76 896.4 492.59 896.28 492.47 C 896.16 492.35 895.99 492.28 895.82 492.28 Z M 899.74 506.19 C 899.74 506.4 899.57 506.57 899.36 506.57 L 879.69 506.57 C 879.48 506.57 879.31 506.4 879.31 506.19 L 879.31 480.81 C 879.31 480.6 879.48 480.43 879.69 480.43 L 893.45 480.43 L 893.45 486.06 C 893.45 486.43 893.74 486.72 894.1 486.72 L 899.74 486.72 L 899.74 494.31 Z M 894.76 481.35 L 898.81 485.41 L 894.76 485.41 Z M 894.37 479.11 L 879.69 479.11 C 878.76 479.11 878 479.87 878 480.81 L 878 506.19 C 878 507.13 878.76 507.89 879.69 507.89 L 899.36 507.89 C 900.29 507.89 901.05 507.13 901.05 506.19 L 901.05 494.31 L 901.05 486.44 L 901.05 485.79 Z" fill="#0000ff" stroke="none" pointer-events="all"/><g fill="#232F3E" font-family="Helvetica" font-size="12px"><text x="879.5" y="525.5">php-env-</text><text x="879.5" y="539.5">database-kms</text></g><rect x="777.71" y="769.5" width="32.59" height="41" fill="none" stroke="none" pointer-events="all"/><path d="M 793.31 793.89 C 793.5 793.7 793.74 793.6 794.01 793.6 L 794.01 793.6 C 794.27 793.6 794.51 793.7 794.7 793.89 C 794.88 794.07 794.99 794.32 794.99 794.58 L 794.99 794.58 C 794.99 794.84 794.88 795.09 794.7 795.27 C 794.51 795.46 794.27 795.56 794.01 795.56 L 794 795.56 C 793.46 795.56 793.03 795.12 793.03 794.58 C 793.03 794.32 793.13 794.07 793.31 793.89 Z M 793.08 797.25 L 793.08 800.51 L 794.93 800.51 L 794.93 797.25 C 795.33 797.11 795.7 796.89 796.01 796.59 C 796.54 796.05 796.84 795.34 796.84 794.58 C 796.84 793.83 796.54 793.11 796.01 792.58 C 795.47 792.04 794.76 791.75 794.01 791.75 L 794 791.75 C 793.25 791.75 792.54 792.04 792 792.58 C 791.47 793.11 791.17 793.82 791.17 794.58 C 791.17 795.82 791.97 796.86 793.08 797.25 Z M 801.97 802.82 L 786.07 802.82 L 786.07 790.12 L 801.98 790.13 Z M 790.08 785.28 C 790.09 784.19 790.5 783.16 791.25 782.4 C 791.99 781.64 792.97 781.22 794.01 781.22 L 794.02 781.22 C 795.06 781.22 796.04 781.65 796.77 782.42 C 797.51 783.2 797.92 784.23 797.92 785.33 L 797.92 788.27 L 790.07 788.27 Z M 802.9 788.27 L 799.77 788.27 L 799.77 785.33 C 799.78 783.75 799.19 782.26 798.11 781.14 C 797.03 780 795.58 779.37 794.03 779.37 L 794.01 779.37 C 792.47 779.37 791.02 779.98 789.93 781.1 C 788.84 782.21 788.23 783.7 788.23 785.28 L 788.21 788.27 L 785.15 788.27 C 784.9 788.27 784.66 788.36 784.49 788.54 C 784.32 788.71 784.22 788.95 784.22 789.19 L 784.22 803.74 C 784.22 804.26 784.63 804.67 785.14 804.67 L 802.9 804.68 C 803.41 804.68 803.82 804.26 803.82 803.75 L 803.83 789.2 C 803.83 788.95 803.73 788.72 803.56 788.54 C 803.38 788.37 803.15 788.27 802.9 788.27 Z M 808.45 807.95 C 808.45 808.24 808.21 808.49 807.91 808.49 L 780.1 808.49 C 779.8 808.49 779.56 808.24 779.56 807.95 L 779.56 772.05 C 779.56 771.76 779.8 771.51 780.1 771.51 L 799.55 771.51 L 799.55 779.49 C 799.55 780 799.96 780.41 800.48 780.41 L 808.45 780.41 L 808.45 791.14 Z M 801.4 772.82 L 807.14 778.56 L 801.4 778.56 Z M 800.86 769.66 L 780.1 769.66 C 778.78 769.66 777.71 770.73 777.71 772.05 L 777.71 807.95 C 777.71 809.27 778.78 810.34 780.1 810.34 L 807.91 810.34 C 809.23 810.34 810.3 809.27 810.3 807.95 L 810.3 791.14 L 810.3 780.02 L 810.3 779.1 Z" fill="#b5739d" stroke="none" pointer-events="all"/><g fill="#232F3E" font-family="Helvetica" font-size="12px"><text x="811.8" y="794.5">php-env-s3-kms</text></g><rect x="590.15" y="167.75" width="42.8" height="42.8" fill="none" stroke="none" pointer-events="all"/><path d="M 601.46 200.74 L 601.46 197.98 L 603.18 199.36 Z M 601.09 195.2 C 600.8 194.97 600.4 194.92 600.06 195.08 C 599.73 195.25 599.51 195.58 599.51 195.96 L 599.51 202.77 C 599.51 203.14 599.73 203.48 600.06 203.64 C 600.2 203.71 600.34 203.74 600.49 203.74 C 600.7 203.74 600.92 203.67 601.09 203.53 L 605.35 200.12 C 605.58 199.94 605.71 199.66 605.71 199.36 C 605.71 199.07 605.58 198.79 605.35 198.6 Z M 624.44 191.91 L 624.44 188.09 L 626.35 190 Z M 628.41 189.31 L 624.15 185.06 C 623.88 184.78 623.46 184.7 623.09 184.85 C 622.73 185 622.49 185.35 622.49 185.75 L 622.49 189.03 L 615.08 189.03 L 615.08 179.79 C 615.08 179.25 614.64 178.81 614.1 178.81 L 606.62 178.81 L 606.62 180.76 L 613.13 180.76 L 613.13 189.03 L 606.44 189.03 L 606.44 190.97 L 613.13 190.97 L 613.13 199.24 L 606.62 199.24 L 606.62 201.19 L 614.1 201.19 C 614.64 201.19 615.08 200.75 615.08 200.21 L 615.08 190.97 L 622.49 190.97 L 622.49 194.26 C 622.49 194.65 622.73 195.01 623.09 195.16 C 623.21 195.21 623.34 195.23 623.47 195.23 C 623.72 195.23 623.97 195.13 624.15 194.94 L 628.41 190.69 C 628.79 190.31 628.79 189.69 628.41 189.31 Z M 601.46 191.38 L 601.46 188.62 L 603.18 190 Z M 601.09 185.84 C 600.8 185.6 600.4 185.56 600.06 185.72 C 599.73 185.88 599.51 186.22 599.51 186.6 L 599.51 193.41 C 599.51 193.78 599.73 194.12 600.06 194.28 C 600.2 194.35 600.34 194.38 600.49 194.38 C 600.7 194.38 600.92 194.31 601.09 194.17 L 605.35 190.76 C 605.58 190.58 605.71 190.3 605.71 190 C 605.71 189.7 605.58 189.43 605.35 189.24 Z M 601.46 181.17 L 601.46 178.41 L 603.18 179.79 Z M 601.09 175.62 C 600.8 175.39 600.4 175.34 600.06 175.51 C 599.73 175.67 599.51 176.01 599.51 176.38 L 599.51 183.19 C 599.51 183.57 599.73 183.91 600.06 184.07 C 600.2 184.13 600.34 184.16 600.49 184.16 C 600.7 184.16 600.92 184.09 601.09 183.95 L 605.35 180.55 C 605.58 180.36 605.71 180.08 605.71 179.79 C 605.71 179.49 605.58 179.21 605.35 179.03 Z M 611.55 208.6 C 600.82 208.6 592.1 199.88 592.1 189.15 C 592.1 178.42 600.82 169.7 611.55 169.7 C 622.28 169.7 631 178.42 631 189.15 C 631 199.88 622.28 208.6 611.55 208.6 Z M 611.55 167.75 C 599.75 167.75 590.15 177.35 590.15 189.15 C 590.15 200.95 599.75 210.55 611.55 210.55 C 623.35 210.55 632.95 200.95 632.95 189.15 C 632.95 177.35 623.35 167.75 611.55 167.75 Z" fill="#67ab9f" stroke="none" pointer-events="all"/><g fill="#232F3E" font-family="Helvetica" text-anchor="end" font-size="12px"><text x="587.65" y="186.65">php-env-</text><text x="587.65" y="200.65">mailgate-nat</text></g><path d="M 766.5 250 L 766.5 229 L 615 229 L 615 216.92" fill="none" stroke="rgb(0, 0, 0)" stroke-miterlimit="10" pointer-events="stroke"/><path d="M 615 211.67 L 618.5 218.67 L 615 216.92 L 611.5 218.67 Z" fill="rgb(0, 0, 0)" stroke="rgb(0, 0, 0)" stroke-miterlimit="10" pointer-events="all"/><path d="M 799.4 210.55 L 799.4 230.3 L 799.13 243.63" fill="none" stroke="rgb(0, 0, 0)" stroke-miterlimit="10" pointer-events="stroke"/><path d="M 799.02 248.88 L 795.67 241.81 L 799.13 243.63 L 802.66 241.95 Z" fill="rgb(0, 0, 0)" stroke="rgb(0, 0, 0)" stroke-miterlimit="10" pointer-events="all"/><path d="M 637.05 513.83 L 812.08 512.7" fill="none" stroke="rgb(0, 0, 0)" stroke-miterlimit="10" pointer-events="stroke"/><path d="M 817.33 512.66 L 810.35 516.21 L 812.08 512.7 L 810.31 509.21 Z" fill="rgb(0, 0, 0)" stroke="rgb(0, 0, 0)" stroke-miterlimit="10" pointer-events="all"/><g fill="rgb(0, 0, 0)" font-family="Helvetica" text-anchor="middle" font-size="11px"><rect fill="rgb(255, 255, 255)" stroke="none" x="680" y="507" width="97" height="14" stroke-width="0"/><text x="727.55" y="517.24">Sync / cold standby</text></g><rect x="743.01" y="282" width="110" height="108" fill="none" stroke="#e20074" pointer-events="all"/><g fill="#E20074" font-family="Helvetica" text-anchor="middle" font-size="12px"><text x="797.51" y="299.5">node-sg, node-ssh-sg</text></g><rect x="490.3" y="543" width="440" height="56" fill="none" stroke="#0000ff" pointer-events="all"/><g fill="#0000FF" font-family="Helvetica" font-size="12px"><text x="931.8" y="575.5">php-env-redis-sg</text></g><rect x="586.05" y="488.5" width="51" height="51" fill="none" stroke="none" pointer-events="all"/><path d="M 634.73 521.02 L 634.73 516.93 C 632.72 518.02 629.68 518.59 626.66 518.59 C 623.63 518.59 620.59 518.02 618.59 516.93 L 618.59 521.02 C 618.59 521.75 621.33 523.46 626.66 523.46 C 631.98 523.46 634.73 521.75 634.73 521.02 Z M 634.73 528.09 L 634.73 524.12 C 632.72 525.21 629.68 525.78 626.66 525.78 C 623.63 525.78 620.59 525.21 618.59 524.12 L 618.59 528.09 C 618.59 528.82 621.33 530.53 626.66 530.53 C 631.98 530.53 634.73 528.82 634.73 528.09 Z M 634.73 534.4 L 634.73 531.19 C 632.72 532.28 629.68 532.85 626.66 532.85 C 623.63 532.85 620.59 532.28 618.59 531.19 L 618.59 534.4 C 618.59 535.13 621.33 536.84 626.66 536.84 C 631.98 536.84 634.73 535.13 634.73 534.4 Z M 618.59 513.83 C 618.59 514.56 621.33 516.27 626.66 516.27 C 631.98 516.27 634.73 514.56 634.73 513.83 C 634.73 513.1 631.98 511.39 626.66 511.39 C 621.33 511.39 618.59 513.1 618.59 513.83 Z M 637.05 513.83 L 637.05 534.4 C 637.05 537.52 631.82 539.16 626.66 539.16 C 621.49 539.16 616.27 537.52 616.27 534.4 L 616.27 513.83 C 616.27 510.71 621.49 509.07 626.66 509.07 C 631.82 509.07 637.05 510.71 637.05 513.83 Z M 588.37 532.76 L 588.37 495.24 C 588.37 492.84 590.32 490.89 592.72 490.89 L 630.25 490.89 C 632.65 490.89 634.6 492.84 634.6 495.24 L 634.6 509.95 L 636.92 509.95 L 636.92 495.24 C 636.92 491.56 633.93 488.56 630.25 488.56 L 592.72 488.56 C 589.04 488.56 586.05 491.56 586.05 495.24 L 586.05 532.76 C 586.05 536.44 589.04 539.44 592.72 539.44 L 615.53 539.44 L 615.53 537.11 L 592.72 537.11 C 590.32 537.11 588.37 535.16 588.37 532.76 Z M 624.31 495.97 L 624.31 505.08 L 629.25 505.08 L 629.25 503.62 L 626.15 503.62 L 626.15 495.97 Z M 620.86 500.52 C 620.86 499.42 620.72 498.6 620.43 498.06 C 620.14 497.53 619.69 497.26 619.1 497.26 C 618.5 497.26 618.06 497.53 617.77 498.06 C 617.48 498.6 617.34 499.42 617.34 500.52 C 617.34 501.6 617.49 502.41 617.79 502.97 C 618.08 503.52 618.52 503.8 619.1 503.8 C 619.68 503.8 620.12 503.52 620.41 502.97 C 620.71 502.41 620.86 501.6 620.86 500.52 Z M 620.43 505.06 C 620.7 505.28 621 505.45 621.33 505.57 C 621.67 505.69 622.08 505.78 622.56 505.83 L 622.56 507.33 C 621.87 507.23 621.2 506.99 620.56 506.64 C 619.92 506.28 619.37 505.82 618.92 505.28 C 617.81 505.24 616.96 504.8 616.35 503.97 C 615.75 503.14 615.44 501.99 615.44 500.52 C 615.44 499.01 615.76 497.85 616.4 497.02 C 617.04 496.19 617.94 495.77 619.1 495.77 C 620.26 495.77 621.16 496.19 621.8 497.02 C 622.43 497.85 622.75 499.01 622.75 500.52 C 622.75 501.7 622.56 502.67 622.16 503.45 C 621.76 504.23 621.18 504.77 620.43 505.06 Z M 611.16 503.81 C 610.87 503.81 610.52 503.77 610.11 503.68 C 609.7 503.6 609.34 503.5 609.01 503.37 L 609.01 504.76 C 609.29 504.91 609.64 505.04 610.05 505.14 C 610.47 505.23 610.88 505.28 611.29 505.28 C 612.23 505.28 612.98 505.04 613.52 504.55 C 614.06 504.06 614.33 503.4 614.33 502.57 C 614.33 502.14 614.26 501.78 614.14 501.47 C 614.01 501.17 613.81 500.9 613.54 500.65 C 613.28 500.41 612.91 500.16 612.46 499.92 L 611.75 499.53 C 611.36 499.33 611.1 499.13 610.97 498.96 C 610.83 498.78 610.76 498.56 610.76 498.28 C 610.76 497.96 610.87 497.71 611.08 497.52 C 611.29 497.34 611.58 497.25 611.95 497.25 C 612.49 497.25 613.12 497.38 613.83 497.64 L 613.83 496.25 C 613.14 495.93 612.45 495.77 611.76 495.77 C 611.21 495.77 610.72 495.88 610.3 496.1 C 609.87 496.31 609.54 496.62 609.29 497.02 C 609.04 497.41 608.92 497.88 608.92 498.42 C 608.92 499 609.06 499.49 609.34 499.89 C 609.62 500.29 610.09 500.67 610.74 501.02 L 611.45 501.4 C 611.81 501.59 612.06 501.79 612.22 501.97 C 612.37 502.16 612.45 502.39 612.45 502.66 C 612.45 503.03 612.34 503.31 612.12 503.51 C 611.9 503.71 611.58 503.81 611.16 503.81 Z M 604.4 506.33 C 604.23 506.51 603.98 506.6 603.65 506.6 C 603.46 506.6 603.25 506.58 603.02 506.54 L 603.02 507.75 C 603.41 507.89 603.8 507.95 604.17 507.95 C 604.67 507.95 605.08 507.81 605.38 507.52 C 605.69 507.23 605.94 506.76 606.12 506.11 L 608.34 498.36 L 606.49 498.36 L 605.5 503.31 L 604.49 498.36 L 602.58 498.36 L 604.75 505.22 L 604.73 505.45 C 604.67 505.86 604.57 506.16 604.4 506.33 Z M 599.99 505.08 L 599.99 498.69 L 598.46 502.83 L 596.89 502.83 L 595.36 498.73 L 595.36 505.08 L 593.72 505.08 L 593.72 495.97 L 595.83 495.97 L 597.71 501.07 L 599.59 495.97 L 601.64 495.97 L 601.64 505.08 Z" fill="#3334b9" stroke="none" pointer-events="all"/><g fill="#232F3E" font-family="Helvetica" font-size="12px"><text x="638.55" y="532.5">php-env-meta-rds</text></g><rect x="818.45" y="488.5" width="48" height="48" fill="none" stroke="none" pointer-events="all"/><path d="M 864.27 519.11 L 864.27 515.26 C 862.38 516.28 859.52 516.82 856.67 516.82 C 853.82 516.82 850.96 516.28 849.07 515.26 L 849.07 519.11 C 849.07 519.8 851.66 521.4 856.67 521.4 C 861.68 521.4 864.27 519.8 864.27 519.11 Z M 864.27 525.76 L 864.27 522.03 C 862.38 523.05 859.52 523.59 856.67 523.59 C 853.82 523.59 850.96 523.05 849.07 522.03 L 849.07 525.76 C 849.07 526.45 851.66 528.05 856.67 528.05 C 861.68 528.05 864.27 526.45 864.27 525.76 Z M 864.27 531.7 L 864.27 528.68 C 862.38 529.71 859.52 530.24 856.67 530.24 C 853.82 530.24 850.96 529.71 849.07 528.68 L 849.07 531.7 C 849.07 532.38 851.66 533.99 856.67 533.99 C 861.68 533.99 864.27 532.38 864.27 531.7 Z M 849.07 512.34 C 849.07 513.03 851.66 514.63 856.67 514.63 C 861.68 514.63 864.27 513.03 864.27 512.34 C 864.27 511.65 861.68 510.05 856.67 510.05 C 851.66 510.05 849.07 511.65 849.07 512.34 Z M 866.45 512.34 L 866.45 531.7 C 866.45 534.64 861.53 536.18 856.67 536.18 C 851.81 536.18 846.89 534.64 846.89 531.7 L 846.89 512.34 C 846.89 509.4 851.81 507.86 856.67 507.86 C 861.53 507.86 866.45 509.4 866.45 512.34 Z M 820.63 530.16 L 820.63 494.84 C 820.63 492.58 822.47 490.74 824.73 490.74 L 860.05 490.74 C 862.31 490.74 864.15 492.58 864.15 494.84 L 864.15 508.69 L 866.33 508.69 L 866.33 494.84 C 866.33 491.38 863.51 488.56 860.05 488.56 L 824.73 488.56 C 821.27 488.56 818.45 491.38 818.45 494.84 L 818.45 530.16 C 818.45 533.62 821.27 536.44 824.73 536.44 L 846.2 536.44 L 846.2 534.26 L 824.73 534.26 C 822.47 534.26 820.63 532.42 820.63 530.16 Z M 854.46 495.53 L 854.46 504.11 L 859.11 504.11 L 859.11 502.73 L 856.19 502.73 L 856.19 495.53 Z M 851.21 499.81 C 851.21 498.77 851.08 498 850.81 497.5 C 850.53 497 850.12 496.75 849.56 496.75 C 849 496.75 848.58 497 848.31 497.5 C 848.03 498 847.9 498.77 847.9 499.81 C 847.9 500.83 848.04 501.6 848.32 502.12 C 848.6 502.64 849.01 502.9 849.56 502.9 C 850.1 502.9 850.51 502.64 850.79 502.12 C 851.07 501.6 851.21 500.83 851.21 499.81 Z M 850.81 504.08 C 851.06 504.29 851.35 504.45 851.66 504.57 C 851.97 504.68 852.36 504.76 852.81 504.81 L 852.81 506.22 C 852.16 506.12 851.53 505.91 850.93 505.57 C 850.33 505.23 849.81 504.8 849.38 504.29 C 848.34 504.25 847.54 503.84 846.97 503.06 C 846.4 502.28 846.11 501.2 846.11 499.81 C 846.11 498.39 846.42 497.3 847.02 496.52 C 847.62 495.74 848.47 495.35 849.56 495.35 C 850.64 495.35 851.49 495.74 852.09 496.52 C 852.69 497.3 853 498.39 853 499.81 C 853 500.92 852.81 501.84 852.43 502.57 C 852.06 503.31 851.51 503.81 850.81 504.08 Z M 842.08 502.91 C 841.81 502.91 841.48 502.87 841.1 502.79 C 840.71 502.71 840.37 502.62 840.06 502.5 L 840.06 503.8 C 840.33 503.95 840.65 504.07 841.04 504.16 C 841.43 504.25 841.82 504.29 842.2 504.29 C 843.09 504.29 843.79 504.07 844.3 503.61 C 844.81 503.15 845.06 502.53 845.06 501.74 C 845.06 501.34 845 501 844.88 500.71 C 844.76 500.43 844.58 500.17 844.33 499.94 C 844.07 499.71 843.73 499.48 843.31 499.24 L 842.64 498.89 C 842.27 498.69 842.03 498.51 841.9 498.34 C 841.77 498.18 841.71 497.97 841.71 497.71 C 841.71 497.4 841.81 497.16 842.01 496.99 C 842.2 496.82 842.48 496.73 842.82 496.73 C 843.33 496.73 843.92 496.86 844.59 497.1 L 844.59 495.79 C 843.95 495.49 843.3 495.35 842.65 495.35 C 842.13 495.35 841.67 495.45 841.27 495.65 C 840.87 495.85 840.55 496.14 840.32 496.52 C 840.09 496.89 839.98 497.33 839.98 497.83 C 839.98 498.38 840.11 498.84 840.37 499.22 C 840.64 499.6 841.07 499.95 841.68 500.28 L 842.35 500.64 C 842.69 500.82 842.93 501 843.08 501.18 C 843.22 501.36 843.29 501.58 843.29 501.83 C 843.29 502.18 843.19 502.44 842.98 502.63 C 842.78 502.81 842.48 502.91 842.08 502.91 Z M 835.72 505.28 C 835.56 505.45 835.33 505.53 835.01 505.53 C 834.84 505.53 834.64 505.51 834.42 505.48 L 834.42 506.62 C 834.79 506.75 835.15 506.81 835.51 506.81 C 835.98 506.81 836.36 506.67 836.65 506.4 C 836.94 506.12 837.17 505.68 837.34 505.07 L 839.43 497.78 L 837.69 497.78 L 836.76 502.44 L 835.81 497.78 L 834.01 497.78 L 836.05 504.23 L 836.03 504.45 C 835.98 504.84 835.88 505.12 835.72 505.28 Z M 831.57 504.11 L 831.57 498.09 L 830.13 501.99 L 828.65 501.99 L 827.22 498.13 L 827.22 504.11 L 825.67 504.11 L 825.67 495.53 L 827.65 495.53 L 829.42 500.33 L 831.19 495.53 L 833.12 495.53 L 833.12 504.11 Z" fill="#3334b9" stroke="none" pointer-events="all"/><g fill="#232F3E" font-family="Helvetica" text-anchor="end" font-size="12px"/><rect x="510.26" y="549" width="49.74" height="44" fill="none" stroke="none" pointer-events="all"/><path d="M 556.11 557.04 C 556.11 557.92 556.84 558.64 557.73 558.64 C 558.32 558.64 558.8 559.12 558.8 559.72 L 558.8 576.86 C 558.8 577.45 558.32 577.94 557.73 577.94 L 549.36 577.94 L 549.36 575.78 L 553.31 575.78 L 553.31 573.75 L 549.36 573.75 L 549.36 571.6 L 554.38 571.6 C 554.97 571.6 555.46 572.08 555.46 572.67 L 555.46 575.78 L 556.65 575.78 L 556.65 560.64 C 555.1 560.17 553.96 558.74 553.96 557.04 C 553.96 555.34 555.1 553.9 556.65 553.44 L 556.65 551.15 L 513.61 551.15 L 513.61 553.44 C 515.16 553.9 516.3 555.34 516.3 557.04 C 516.3 558.74 515.16 560.17 513.61 560.64 L 513.61 575.78 L 514.8 575.78 L 514.8 572.67 C 514.8 572.08 515.29 571.6 515.88 571.6 L 520.9 571.6 L 520.9 573.75 L 516.96 573.75 L 516.96 575.78 L 520.9 575.78 L 520.9 577.94 L 512.53 577.94 C 511.94 577.94 511.46 577.45 511.46 576.86 L 511.46 559.72 C 511.46 559.12 511.94 558.64 512.53 558.64 C 513.42 558.64 514.15 557.92 514.15 557.04 C 514.15 556.16 513.42 555.44 512.53 555.44 C 511.94 555.44 511.46 554.96 511.46 554.36 L 511.46 550.08 C 511.46 549.48 511.94 549 512.53 549 L 557.73 549 C 558.32 549 558.8 549.48 558.8 550.08 L 558.8 554.36 C 558.8 554.96 558.32 555.44 557.73 555.44 C 556.84 555.44 556.11 556.16 556.11 557.04 Z M 535.34 580.26 L 533.1 580.26 L 533.1 576.03 L 535.39 576.03 C 536.78 576.03 537.48 576.73 537.48 578.14 C 537.48 579.56 536.77 580.26 535.34 580.26 Z M 539.13 580.22 C 539.55 579.62 539.77 578.9 539.77 578.07 C 539.77 576.92 539.39 576 538.63 575.32 C 537.88 574.64 536.88 574.3 535.62 574.3 L 530.85 574.3 L 530.85 587.06 L 533.1 587.06 L 533.1 581.99 L 535.35 581.99 L 538.33 587.06 L 540.58 587.06 L 537.28 581.61 C 538.09 581.29 538.71 580.83 539.13 580.22 Z M 520.3 567.41 L 521.74 567.41 L 521.74 569.57 L 519.23 569.57 C 518.63 569.57 518.15 569.08 518.15 568.49 L 518.15 554.26 C 518.15 553.67 518.63 553.19 519.23 553.19 L 524.25 553.19 C 524.85 553.19 525.33 553.67 525.33 554.26 L 525.33 560.96 L 523.17 560.96 L 523.17 555.34 L 520.3 555.34 Z M 549.96 567.41 L 549.96 555.34 L 547.09 555.34 L 547.09 560.96 L 544.93 560.96 L 544.93 554.26 C 544.93 553.67 545.42 553.19 546.01 553.19 L 551.03 553.19 C 551.63 553.19 552.11 553.67 552.11 554.26 L 552.11 568.49 C 552.11 569.08 551.63 569.57 551.03 569.57 L 549.36 569.57 L 549.36 567.41 Z M 541.59 560.12 L 541.59 555.34 L 537.88 555.34 L 537.88 559.28 L 535.73 559.28 L 535.73 554.26 C 535.73 553.67 536.21 553.19 536.81 553.19 L 542.66 553.19 C 543.26 553.19 543.74 553.67 543.74 554.26 L 543.74 560.12 Z M 532.38 559.28 L 532.38 555.34 L 528.67 555.34 L 528.67 560.12 L 526.52 560.12 L 526.52 554.26 C 526.52 553.67 527 553.19 527.6 553.19 L 533.46 553.19 C 534.05 553.19 534.53 553.67 534.53 554.26 L 534.53 559.28 Z M 543.45 577.36 C 544.41 577.06 545.17 576.72 545.77 576.38 L 545.77 580.97 C 545.77 581.35 544.98 582.15 542.8 582.84 L 543.45 584.89 C 544.41 584.59 545.17 584.26 545.77 583.91 L 545.77 588.01 C 545.77 589.01 541.73 590.85 535.13 590.85 C 528.53 590.85 524.49 589.01 524.49 588.01 L 524.49 583.91 C 525.1 584.26 525.87 584.6 526.85 584.9 L 527.49 582.85 C 525.29 582.16 524.49 581.35 524.49 580.97 L 524.49 576.38 C 525.1 576.73 525.87 577.06 526.85 577.37 L 527.49 575.32 C 525.29 574.63 524.49 573.82 524.49 573.44 L 524.49 568.83 C 526.92 570.24 531.06 570.9 535.01 570.9 C 539.17 570.9 543.34 570.17 545.77 568.76 L 545.77 573.44 C 545.77 573.82 544.98 574.62 542.8 575.31 Z M 535.01 563 C 541.67 563 545.74 564.86 545.74 565.88 C 545.74 566.89 541.67 568.75 535.01 568.75 C 528.21 568.75 524.51 566.85 524.51 565.88 C 524.51 564.9 528.21 563 535.01 563 Z M 547.91 565.88 C 547.91 562.58 541.41 560.85 535.01 560.85 C 528.92 560.85 522.35 562.42 522.35 565.88 L 522.35 565.99 L 522.34 588.01 C 522.34 591.29 528.77 593 535.13 593 C 541.49 593 547.92 591.29 547.92 588.01 L 547.91 565.99 Z" fill="#3334b9" stroke="none" pointer-events="all"/><g fill="#232F3E" font-family="Helvetica" font-size="12px"><text x="561.5" y="589.5">php-env-cache-dcs</text></g><path d="M 770.31 306 L 830.31 306 L 830.31 366 L 770.31 366 Z" fill="none" stroke="none" pointer-events="all"/><path d="M 791.15 345.16 L 791.15 326.84 L 809.47 326.84 L 809.47 345.16 Z M 790.27 346.91 L 810.35 346.91 C 810.83 346.91 811.22 346.52 811.22 346.04 L 811.22 325.96 C 811.22 325.48 810.83 325.09 810.35 325.09 L 790.27 325.09 C 789.79 325.09 789.4 325.48 789.4 325.96 L 789.4 346.04 C 789.4 346.52 789.79 346.91 790.27 346.91 Z M 784.16 352.15 L 784.16 319.85 L 816.46 319.85 L 816.46 352.15 Z M 824.31 321.6 L 824.31 319.85 L 818.2 319.85 L 818.2 318.98 C 818.2 318.5 817.81 318.11 817.33 318.11 L 816.46 318.11 L 816.46 312 L 814.71 312 L 814.71 318.11 L 810.35 318.11 L 810.35 312 L 808.6 312 L 808.6 318.11 L 804.24 318.11 L 804.24 312 L 802.49 312 L 802.49 318.11 L 798.13 318.11 L 798.13 312 L 796.38 312 L 796.38 318.11 L 792.02 318.11 L 792.02 312 L 790.27 312 L 790.27 318.11 L 785.91 318.11 L 785.91 312 L 784.16 312 L 784.16 318.11 L 783.29 318.11 C 782.81 318.11 782.42 318.5 782.42 318.98 L 782.42 319.85 L 776.31 319.85 L 776.31 321.6 L 782.42 321.6 L 782.42 325.96 L 776.31 325.96 L 776.31 327.71 L 782.42 327.71 L 782.42 332.07 L 776.31 332.07 L 776.31 333.82 L 782.42 333.82 L 782.42 338.18 L 776.31 338.18 L 776.31 339.93 L 782.42 339.93 L 782.42 344.29 L 776.31 344.29 L 776.31 346.04 L 782.42 346.04 L 782.42 350.4 L 776.31 350.4 L 776.31 352.15 L 782.42 352.15 L 782.42 353.02 C 782.42 353.5 782.81 353.89 783.29 353.89 L 784.16 353.89 L 784.16 360 L 785.91 360 L 785.91 353.89 L 790.27 353.89 L 790.27 360 L 792.02 360 L 792.02 353.89 L 796.38 353.89 L 796.38 360 L 798.13 360 L 798.13 353.89 L 802.49 353.89 L 802.49 360 L 804.24 360 L 804.24 353.89 L 808.6 353.89 L 808.6 360 L 810.35 360 L 810.35 353.89 L 814.71 353.89 L 814.71 360 L 816.46 360 L 816.46 353.89 L 817.33 353.89 C 817.81 353.89 818.2 353.5 818.2 353.02 L 818.2 352.15 L 824.31 352.15 L 824.31 350.4 L 818.2 350.4 L 818.2 346.04 L 824.31 346.04 L 824.31 344.29 L 818.2 344.29 L 818.2 339.93 L 824.31 339.93 L 824.31 338.18 L 818.2 338.18 L 818.2 333.82 L 824.31 333.82 L 824.31 332.07 L 818.2 332.07 L 818.2 327.71 L 824.31 327.71 L 824.31 325.96 L 818.2 325.96 L 818.2 321.6 Z" fill="#e20074" stroke="none" pointer-events="all"/><g fill="#232F3E" font-family="Helvetica" text-anchor="middle" font-size="12px"><text x="799.81" y="383.5">php-env-node</text></g><rect x="780.15" y="172.25" width="38.3" height="38.3" fill="none" stroke="none" pointer-events="all"/><path d="M 799.3 172.25 C 788.74 172.25 780.15 180.84 780.15 191.4 C 780.15 201.96 788.74 210.55 799.3 210.55 C 809.86 210.55 818.45 201.96 818.45 191.4 C 818.45 180.84 809.86 172.25 799.3 172.25 Z M 799.3 208.81 C 789.7 208.81 781.89 201 781.89 191.4 C 781.89 181.8 789.7 173.99 799.3 173.99 C 808.9 173.99 816.71 181.8 816.71 191.4 C 816.71 201 808.9 208.81 799.3 208.81 Z M 810.65 196.62 L 809.31 196.62 L 809.31 193.68 C 809.31 193.2 808.92 192.81 808.44 192.81 L 806.26 192.81 L 806.26 189.88 C 806.26 189.4 805.87 189.01 805.39 189.01 L 800.17 189.01 L 800.17 186.94 L 805.39 186.94 C 805.87 186.94 806.26 186.55 806.26 186.07 L 806.26 179.21 C 806.26 178.73 805.87 178.34 805.39 178.34 L 793.21 178.34 C 792.73 178.34 792.34 178.73 792.34 179.21 L 792.34 186.07 C 792.34 186.55 792.73 186.94 793.21 186.94 L 798.43 186.94 L 798.43 189.01 L 793.21 189.01 C 792.73 189.01 792.34 189.4 792.34 189.88 L 792.34 192.81 L 790.16 192.81 C 789.68 192.81 789.29 193.2 789.29 193.68 L 789.29 196.62 L 787.95 196.62 C 787.47 196.62 787.08 197.01 787.08 197.49 L 787.08 201.3 C 787.08 201.78 787.47 202.17 787.95 202.17 L 791.68 202.17 C 792.16 202.17 792.55 201.78 792.55 201.3 L 792.55 197.49 C 792.55 197.01 792.16 196.62 791.68 196.62 L 791.03 196.62 L 791.03 194.56 L 794.62 194.56 L 794.62 196.62 L 793.97 196.62 C 793.49 196.62 793.1 197.01 793.1 197.49 L 793.1 201.3 C 793.1 201.78 793.49 202.17 793.97 202.17 L 797.78 202.17 C 798.26 202.17 798.65 201.78 798.65 201.3 L 798.65 197.49 C 798.65 197.01 798.26 196.62 797.78 196.62 L 796.36 196.62 L 796.36 193.68 C 796.36 193.2 795.97 192.81 795.49 192.81 L 794.08 192.81 L 794.08 190.75 L 804.52 190.75 L 804.52 192.81 L 803.11 192.81 C 802.63 192.81 802.24 193.2 802.24 193.68 L 802.24 196.62 L 800.82 196.62 C 800.34 196.62 799.95 197.01 799.95 197.49 L 799.95 201.3 C 799.95 201.78 800.34 202.17 800.82 202.17 L 804.63 202.17 C 805.11 202.17 805.5 201.78 805.5 201.3 L 805.5 197.49 C 805.5 197.01 805.11 196.62 804.63 196.62 L 803.98 196.62 L 803.98 194.56 L 807.57 194.56 L 807.57 196.62 L 806.86 196.62 C 806.38 196.62 805.99 197.01 805.99 197.49 L 805.99 201.3 C 805.99 201.78 806.38 202.17 806.86 202.17 L 810.65 202.17 C 811.13 202.17 811.52 201.78 811.52 201.3 L 811.52 197.49 C 811.52 197.01 811.13 196.62 810.65 196.62 Z M 794.08 185.2 L 794.08 180.08 L 804.52 180.08 L 804.52 185.2 Z M 788.82 200.43 L 788.82 198.36 L 790.81 198.36 L 790.81 200.43 Z M 794.84 200.43 L 794.84 198.36 L 796.91 198.36 L 796.91 200.43 Z M 801.69 200.43 L 801.69 198.36 L 803.76 198.36 L 803.76 200.43 Z M 807.73 200.43 L 807.73 198.36 L 809.78 198.36 L 809.78 200.43 Z" fill="#67ab9f" stroke="none" pointer-events="all"/><g fill="#232F3E" font-family="Helvetica" text-anchor="end" font-size="12px"><text x="777.65" y="188.9">php-env-</text><text x="777.65" y="202.9">node-elb</text></g><rect x="770.3" y="0" width="62.5" height="62.5" fill="none" stroke="none" pointer-events="all"/><path d="M 813.91 40.3 L 820.47 40.3 C 824.75 40.3 828.58 38.83 830.75 35.43 C 830.77 35.4 830.79 35.37 830.81 35.34 C 832.51 32.03 832.8 27.43 831.05 23.94 C 831.03 23.91 831.02 23.89 831 23.86 C 829.23 20.88 826.23 18.89 822.46 18.02 C 822.13 15.62 821.17 12.54 818.32 10.93 C 818.28 10.9 818.23 10.88 818.18 10.86 C 815.98 9.97 814.06 9.95 812.51 10.5 C 811.59 10.82 810.86 11.33 810.21 11.89 C 808.38 8.11 805.48 4.62 801.35 2.86 C 801.34 2.86 801.33 2.85 801.32 2.85 C 799.58 2.18 797.89 1.8 796.26 1.66 L 796.26 1.66 C 791.38 1.25 787.11 2.99 784.23 5.55 C 784.22 5.56 784.21 5.57 784.2 5.58 C 779.93 9.64 778.7 14.01 778.83 18.24 C 776.91 18.93 775.04 19.82 773.66 21.22 C 773.64 21.24 773.62 21.26 773.61 21.28 C 771.51 23.72 770.3 27.2 770.72 31.02 C 770.72 31.05 770.72 31.07 770.73 31.1 C 771.25 34.09 772.96 36.41 775.04 37.95 C 777.12 39.49 779.55 40.3 781.75 40.3 L 788.76 40.3 L 788.76 37.94 L 781.75 37.94 C 780.16 37.94 778.12 37.29 776.45 36.05 C 774.78 34.82 773.48 33.04 773.07 30.72 C 772.74 27.58 773.74 24.78 775.37 22.86 C 776.5 21.72 778.37 20.8 780.35 20.16 C 780.87 20 781.21 19.5 781.17 18.95 C 780.87 14.93 781.71 11.22 785.81 7.3 C 789.04 4.45 794.33 2.7 800.44 5.05 C 804.37 6.73 807.23 10.4 808.76 14.31 C 809.08 15.14 810.18 15.32 810.76 14.64 C 811.49 13.79 812.3 13.07 813.29 12.72 C 814.26 12.38 815.47 12.35 817.21 13.03 C 819.25 14.24 820.06 17.01 820.23 19.04 C 820.28 19.58 820.67 20.01 821.2 20.11 C 824.84 20.76 827.4 22.47 828.95 25.04 C 830.22 27.61 830.02 31.65 828.73 34.2 C 827.05 36.79 824.21 37.94 820.47 37.94 L 813.91 37.94 Z M 806.18 37.94 L 796.46 37.94 L 796.46 40.3 L 806.18 40.3 Z M 792.73 17.07 C 792.42 17.07 792.12 17.2 791.9 17.42 L 784.52 24.8 L 786.19 26.47 L 791.56 21.1 L 791.56 40.3 L 793.92 40.3 L 793.92 21.12 L 799.23 26.47 L 800.91 24.8 L 793.58 17.42 C 793.35 17.19 793.04 17.07 792.73 17.07 Z M 809.96 61.25 C 809.65 61.25 809.35 61.12 809.13 60.9 L 801.75 53.52 L 803.42 51.85 L 808.79 57.22 L 808.79 38.02 L 811.15 38.02 L 811.15 57.2 L 816.46 51.85 L 818.14 53.52 L 810.81 60.9 C 810.58 61.13 810.28 61.25 809.96 61.25 Z" fill="#232f3e" stroke="none" pointer-events="all"/><g fill="#232F3E" font-family="Helvetica" font-size="12px"><text x="834.3" y="35.75">php-env-node-elb</text></g><rect x="580.3" y="0" width="62.5" height="62.5" fill="none" stroke="none" pointer-events="all"/><path d="M 623.91 40.3 L 630.47 40.3 C 634.75 40.3 638.58 38.83 640.75 35.43 C 640.77 35.4 640.79 35.37 640.81 35.34 C 642.51 32.03 642.8 27.43 641.05 23.94 C 641.03 23.91 641.02 23.89 641 23.86 C 639.23 20.88 636.23 18.89 632.46 18.02 C 632.13 15.62 631.17 12.54 628.32 10.93 C 628.28 10.9 628.23 10.88 628.18 10.86 C 625.98 9.97 624.06 9.95 622.51 10.5 C 621.59 10.82 620.86 11.33 620.21 11.89 C 618.38 8.11 615.48 4.62 611.35 2.86 C 611.34 2.86 611.33 2.85 611.32 2.85 C 609.58 2.18 607.89 1.8 606.26 1.66 L 606.26 1.66 C 601.38 1.25 597.11 2.99 594.23 5.55 C 594.22 5.56 594.21 5.57 594.2 5.58 C 589.93 9.64 588.7 14.01 588.83 18.24 C 586.91 18.93 585.04 19.82 583.66 21.22 C 583.64 21.24 583.62 21.26 583.61 21.28 C 581.51 23.72 580.3 27.2 580.72 31.02 C 580.72 31.05 580.72 31.07 580.73 31.1 C 581.25 34.09 582.96 36.41 585.04 37.95 C 587.12 39.49 589.55 40.3 591.75 40.3 L 598.76 40.3 L 598.76 37.94 L 591.75 37.94 C 590.16 37.94 588.12 37.29 586.45 36.05 C 584.78 34.82 583.48 33.04 583.07 30.72 C 582.74 27.58 583.74 24.78 585.37 22.86 C 586.5 21.72 588.37 20.8 590.35 20.16 C 590.87 20 591.21 19.5 591.17 18.95 C 590.87 14.93 591.71 11.22 595.81 7.3 C 599.04 4.45 604.33 2.7 610.44 5.05 C 614.37 6.73 617.23 10.4 618.76 14.31 C 619.08 15.14 620.18 15.32 620.76 14.64 C 621.49 13.79 622.3 13.07 623.29 12.72 C 624.26 12.38 625.47 12.35 627.21 13.03 C 629.25 14.24 630.06 17.01 630.23 19.04 C 630.28 19.58 630.67 20.01 631.2 20.11 C 634.84 20.76 637.4 22.47 638.95 25.04 C 640.22 27.61 640.02 31.65 638.73 34.2 C 637.05 36.79 634.21 37.94 630.47 37.94 L 623.91 37.94 Z M 616.18 37.94 L 606.46 37.94 L 606.46 40.3 L 616.18 40.3 Z M 602.73 17.07 C 602.42 17.07 602.12 17.2 601.9 17.42 L 594.52 24.8 L 596.19 26.47 L 601.56 21.1 L 601.56 40.3 L 603.92 40.3 L 603.92 21.12 L 609.23 26.47 L 610.91 24.8 L 603.58 17.42 C 603.35 17.19 603.04 17.07 602.73 17.07 Z M 619.96 61.25 C 619.65 61.25 619.35 61.12 619.13 60.9 L 611.75 53.52 L 613.42 51.85 L 618.79 57.22 L 618.79 38.02 L 621.15 38.02 L 621.15 57.2 L 626.46 51.85 L 628.14 53.52 L 620.81 60.9 C 620.58 61.13 620.28 61.25 619.96 61.25 Z" fill="#232f3e" stroke="none" pointer-events="all"/><g fill="#232F3E" font-family="Helvetica" font-size="12px"><text x="644.3" y="28.75">php-env-</text><text x="644.3" y="42.75">mailgate-out</text></g><path d="M 611.53 167.75 L 611.43 70.14" fill="none" stroke="rgb(0, 0, 0)" stroke-miterlimit="10" pointer-events="stroke"/><path d="M 611.43 64.89 L 614.93 71.89 L 611.43 70.14 L 607.93 71.89 Z" fill="rgb(0, 0, 0)" stroke="rgb(0, 0, 0)" stroke-miterlimit="10" pointer-events="all"/><path d="M 601.48 108.75 L 621.48 108.75 L 621.48 122.75 L 601.48 122.75 Z" fill="rgb(255, 255, 255)" stroke="rgb(0, 0, 0)" stroke-miterlimit="10" pointer-events="all"/><path d="M 601.48 108.75 L 611.48 115.75 L 621.48 108.75" fill="none" stroke="rgb(0, 0, 0)" stroke-miterlimit="10" pointer-events="all"/><path d="M 801.13 61.25 L 799.66 165.88" fill="none" stroke="rgb(0, 0, 0)" stroke-miterlimit="10" pointer-events="stroke"/><path d="M 799.58 171.13 L 796.18 164.08 L 799.66 165.88 L 803.18 164.18 Z" fill="rgb(0, 0, 0)" stroke="rgb(0, 0, 0)" stroke-miterlimit="10" pointer-events="all"/><path d="M 560 400 L 560 459 L 775.3 459 L 775.3 472.63" fill="none" stroke="rgb(0, 0, 0)" stroke-miterlimit="10" pointer-events="stroke"/><path d="M 775.3 477.88 L 771.8 470.88 L 775.3 472.63 L 778.8 470.88 Z" fill="rgb(0, 0, 0)" stroke="rgb(0, 0, 0)" stroke-miterlimit="10" pointer-events="all"/><path d="M 410 250 L 560 250 L 560 400 L 410 400 Z" fill="none" stroke="#e20074" stroke-miterlimit="10" stroke-dasharray="3 3" pointer-events="all"/><path d="M 485.04 253.51 L 483.09 255.46 L 483.62 255.99 L 484.66 254.95 L 484.66 260.63 L 485.41 260.63 L 485.41 254.97 L 486.39 255.98 L 486.93 255.46 Z M 486.93 269.54 L 486.39 269.02 L 485.41 270.03 L 485.41 264.38 L 484.66 264.38 L 484.66 270.05 L 483.62 269.02 L 483.09 269.55 L 485.04 271.5 Z M 483.33 262.53 L 481.39 260.58 L 480.86 261.12 L 481.89 262.15 L 476.22 262.15 L 476.22 262.9 L 481.87 262.9 L 480.86 263.88 L 481.38 264.42 Z M 486.68 262.47 L 488.63 264.42 L 489.16 263.89 L 488.12 262.85 L 493.8 262.85 L 493.8 262.1 L 488.15 262.1 L 489.16 261.13 L 488.64 260.58 Z M 472.5 275 L 472.5 250 L 497.5 250 L 497.5 275 Z" fill="#e20074" stroke="none" pointer-events="all"/><g fill="#E20074" font-family="Helvetica" font-size="12px"><text x="561.5" y="335">php-env-</text><text x="561.5" y="349">cron-node-group</text></g><rect x="430" y="282" width="110" height="108" fill="none" stroke="#e20074" pointer-events="all"/><g fill="#E20074" font-family="Helvetica" text-anchor="middle" font-size="12px"><text x="484.5" y="299.5">node-sg, node-ssh-sg</text></g><path d="M 454.05 304.75 L 516.55 304.75 L 516.55 367.25 L 454.05 367.25 Z" fill="none" stroke="none" pointer-events="all"/><path d="M 475.75 345.55 L 475.75 326.45 L 494.85 326.45 L 494.85 345.55 Z M 474.85 347.36 L 495.75 347.36 C 496.26 347.36 496.66 346.96 496.66 346.45 L 496.66 325.55 C 496.66 325.04 496.26 324.64 495.75 324.64 L 474.85 324.64 C 474.34 324.64 473.94 325.04 473.94 325.55 L 473.94 346.45 C 473.94 346.96 474.34 347.36 474.85 347.36 Z M 468.48 352.82 L 468.48 319.18 L 502.12 319.18 L 502.12 352.82 Z M 510.3 321 L 510.3 319.18 L 503.94 319.18 L 503.94 318.27 C 503.94 317.77 503.53 317.36 503.03 317.36 L 502.12 317.36 L 502.12 311 L 500.3 311 L 500.3 317.36 L 495.75 317.36 L 495.75 311 L 493.94 311 L 493.94 317.36 L 489.39 317.36 L 489.39 311 L 487.57 311 L 487.57 317.36 L 483.03 317.36 L 483.03 311 L 481.21 311 L 481.21 317.36 L 476.66 317.36 L 476.66 311 L 474.85 311 L 474.85 317.36 L 470.3 317.36 L 470.3 311 L 468.48 311 L 468.48 317.36 L 467.57 317.36 C 467.07 317.36 466.66 317.77 466.66 318.27 L 466.66 319.18 L 460.3 319.18 L 460.3 321 L 466.66 321 L 466.66 325.55 L 460.3 325.55 L 460.3 327.36 L 466.66 327.36 L 466.66 331.91 L 460.3 331.91 L 460.3 333.73 L 466.66 333.73 L 466.66 338.27 L 460.3 338.27 L 460.3 340.09 L 466.66 340.09 L 466.66 344.64 L 460.3 344.64 L 460.3 346.45 L 466.66 346.45 L 466.66 351 L 460.3 351 L 460.3 352.82 L 466.66 352.82 L 466.66 353.73 C 466.66 354.23 467.07 354.64 467.57 354.64 L 468.48 354.64 L 468.48 361 L 470.3 361 L 470.3 354.64 L 474.85 354.64 L 474.85 361 L 476.66 361 L 476.66 354.64 L 481.21 354.64 L 481.21 361 L 483.03 361 L 483.03 354.64 L 487.57 354.64 L 487.57 361 L 489.39 361 L 489.39 354.64 L 493.94 354.64 L 493.94 361 L 495.75 361 L 495.75 354.64 L 500.3 354.64 L 500.3 361 L 502.12 361 L 502.12 354.64 L 503.03 354.64 C 503.53 354.64 503.94 354.23 503.94 353.73 L 503.94 352.82 L 510.3 352.82 L 510.3 351 L 503.94 351 L 503.94 346.45 L 510.3 346.45 L 510.3 344.64 L 503.94 344.64 L 503.94 340.09 L 510.3 340.09 L 510.3 338.27 L 503.94 338.27 L 503.94 333.73 L 510.3 333.73 L 510.3 331.91 L 503.94 331.91 L 503.94 327.36 L 510.3 327.36 L 510.3 325.55 L 503.94 325.55 L 503.94 321 Z" fill="#e20074" stroke="none" pointer-events="all"/><g fill="#232F3E" font-family="Helvetica" text-anchor="middle" font-size="12px"><text x="484.8" y="384.75">php-env-</text><text x="484.8" y="398.75">cron-node</text></g><rect x="0" y="568.5" width="62.5" height="62.5" fill="none" stroke="none" pointer-events="all"/><path d="M 43.61 608.8 L 50.17 608.8 C 54.45 608.8 58.28 607.33 60.45 603.93 C 60.47 603.9 60.49 603.87 60.51 603.84 C 62.21 600.53 62.5 595.93 60.75 592.44 C 60.73 592.41 60.72 592.39 60.7 592.36 C 58.93 589.38 55.93 587.39 52.16 586.52 C 51.83 584.12 50.87 581.04 48.02 579.43 C 47.98 579.4 47.93 579.38 47.88 579.36 C 45.68 578.47 43.76 578.45 42.21 579 C 41.29 579.32 40.56 579.83 39.91 580.39 C 38.08 576.61 35.18 573.12 31.05 571.36 C 31.04 571.36 31.03 571.35 31.02 571.35 C 29.28 570.68 27.59 570.3 25.96 570.16 L 25.96 570.16 C 21.08 569.75 16.81 571.49 13.93 574.05 C 13.92 574.06 13.91 574.07 13.9 574.08 C 9.63 578.14 8.4 582.51 8.53 586.74 C 6.61 587.43 4.74 588.32 3.36 589.72 C 3.34 589.74 3.32 589.76 3.31 589.78 C 1.21 592.22 0 595.7 0.42 599.52 C 0.42 599.55 0.42 599.57 0.43 599.6 C 0.95 602.59 2.66 604.91 4.74 606.45 C 6.82 607.99 9.25 608.8 11.45 608.8 L 18.46 608.8 L 18.46 606.44 L 11.45 606.44 C 9.86 606.44 7.82 605.79 6.15 604.55 C 4.48 603.32 3.18 601.54 2.77 599.22 C 2.44 596.08 3.44 593.28 5.07 591.36 C 6.2 590.22 8.07 589.3 10.05 588.66 C 10.57 588.5 10.91 588 10.87 587.45 C 10.57 583.43 11.41 579.72 15.51 575.8 C 18.74 572.95 24.03 571.2 30.14 573.55 C 34.07 575.23 36.93 578.9 38.46 582.81 C 38.78 583.64 39.88 583.82 40.46 583.14 C 41.19 582.29 42 581.57 42.99 581.22 C 43.96 580.88 45.17 580.85 46.91 581.53 C 48.95 582.74 49.76 585.51 49.93 587.54 C 49.98 588.08 50.37 588.51 50.9 588.61 C 54.54 589.26 57.1 590.97 58.65 593.54 C 59.92 596.11 59.72 600.15 58.43 602.7 C 56.75 605.29 53.91 606.44 50.17 606.44 L 43.61 606.44 Z M 35.88 606.44 L 26.16 606.44 L 26.16 608.8 L 35.88 608.8 Z M 22.43 585.57 C 22.12 585.57 21.82 585.7 21.6 585.92 L 14.22 593.3 L 15.89 594.97 L 21.26 589.6 L 21.26 608.8 L 23.62 608.8 L 23.62 589.62 L 28.93 594.97 L 30.61 593.3 L 23.28 585.92 C 23.05 585.69 22.74 585.57 22.43 585.57 Z M 39.66 629.75 C 39.35 629.75 39.05 629.62 38.83 629.4 L 31.45 622.02 L 33.12 620.35 L 38.49 625.72 L 38.49 606.52 L 40.85 606.52 L 40.85 625.7 L 46.16 620.35 L 47.84 622.02 L 40.51 629.4 C 40.28 629.63 39.98 629.75 39.66 629.75 Z" fill="#232f3e" stroke="none" pointer-events="all"/><g fill="#232F3E" font-family="Helvetica" text-anchor="middle" font-size="12px"><text x="30.75" y="648.5">php-env-</text><text x="30.75" y="662.5">jumphost</text></g><rect x="142.5" y="720.5" width="75" height="78" fill="none" stroke="none" pointer-events="all"/><path d="M 173.61 773.23 L 161.35 773.23 C 160.36 773.23 159.57 774.03 159.57 775.01 L 159.57 787.42 C 159.57 788.4 160.36 789.19 161.35 789.19 L 173.61 789.19 C 174.59 789.19 175.39 788.4 175.39 787.42 L 175.39 775.01 C 175.39 774.03 174.59 773.23 173.61 773.23 Z M 163.13 785.64 L 163.13 776.79 L 171.83 776.79 L 171.83 785.64 Z M 189.87 783.07 C 194.7 783.07 198.63 779.13 198.63 774.28 C 198.63 769.42 194.7 765.48 189.87 765.48 C 185.05 765.48 181.12 769.42 181.12 774.28 C 181.12 779.13 185.05 783.07 189.87 783.07 Z M 189.87 769.03 C 192.74 769.03 195.07 771.38 195.07 774.28 C 195.07 777.17 192.74 779.52 189.87 779.52 C 187.01 779.52 184.67 777.17 184.67 774.28 C 184.67 771.38 187.01 769.03 189.87 769.03 Z M 173.59 766.58 C 173.9 766.02 173.89 765.34 173.56 764.79 L 165.81 751.87 C 165.17 750.8 163.4 750.8 162.76 751.87 L 155 764.79 C 154.67 765.34 154.67 766.02 154.98 766.58 C 155.3 767.14 155.89 767.48 156.53 767.48 L 172.04 767.48 C 172.68 767.48 173.27 767.14 173.59 766.58 Z M 159.67 763.93 L 164.28 756.23 L 168.9 763.93 Z M 217.32 763.44 C 216.94 761.41 214.59 759.25 209.82 756.52 L 212.86 733.95 L 212.86 733.95 L 212.86 733.94 L 212.94 733.25 C 212.96 733.18 212.96 733.1 212.96 733.02 C 212.96 725.64 194.4 720.5 177.73 720.5 C 161.07 720.5 142.51 725.64 142.51 733.02 C 142.51 733.1 142.51 733.18 142.52 733.25 L 142.61 733.94 L 142.61 733.95 L 142.61 733.95 L 150.1 789.56 C 150.34 796.07 167.12 798.5 177.73 798.5 C 183.6 798.5 189.48 797.89 194.3 796.77 C 196.24 796.33 197.98 795.8 199.47 795.21 C 203.31 793.69 205.29 791.79 205.37 789.56 L 208.45 766.68 C 210.13 767.04 211.66 767.25 212.93 767.25 C 214.65 767.25 215.93 766.89 216.63 766.06 C 217.25 765.32 217.49 764.39 217.32 763.44 Z M 177.73 724.06 C 196.17 724.06 209.16 729.76 209.4 732.93 L 209.36 733.3 C 209.32 733.41 209.25 733.52 209.19 733.64 C 209.15 733.73 209.11 733.82 209.05 733.91 C 208.97 734.02 208.85 734.14 208.75 734.25 C 208.66 734.34 208.59 734.44 208.48 734.53 C 208.35 734.65 208.2 734.76 208.04 734.88 C 207.92 734.98 207.81 735.07 207.66 735.17 C 207.49 735.28 207.29 735.4 207.09 735.52 C 206.93 735.61 206.78 735.71 206.6 735.81 C 206.39 735.92 206.15 736.04 205.92 736.15 C 205.71 736.25 205.52 736.35 205.3 736.45 C 205.05 736.56 204.77 736.66 204.5 736.77 C 204.26 736.87 204.03 736.97 203.77 737.07 C 203.48 737.18 203.16 737.28 202.86 737.39 C 202.58 737.48 202.31 737.58 202.02 737.67 C 201.7 737.77 201.35 737.87 201.01 737.97 C 200.69 738.06 200.39 738.16 200.06 738.25 C 199.71 738.34 199.32 738.43 198.96 738.52 C 198.6 738.61 198.26 738.7 197.89 738.79 C 197.51 738.87 197.09 738.95 196.7 739.03 C 196.31 739.12 195.94 739.2 195.53 739.28 C 195.1 739.36 194.65 739.43 194.2 739.51 C 193.79 739.58 193.4 739.65 192.99 739.72 C 192.52 739.79 192.02 739.85 191.53 739.92 C 191.1 739.98 190.69 740.04 190.26 740.09 C 189.75 740.15 189.22 740.2 188.69 740.26 C 188.25 740.31 187.82 740.36 187.36 740.4 C 186.79 740.45 186.18 740.49 185.59 740.54 C 185.16 740.57 184.75 740.6 184.31 740.63 C 183.63 740.67 182.93 740.7 182.23 740.72 C 181.85 740.74 181.48 740.76 181.09 740.78 C 180 740.81 178.87 740.82 177.73 740.82 C 176.59 740.82 175.47 740.81 174.37 740.78 C 174 740.76 173.64 740.74 173.27 740.73 C 172.56 740.7 171.85 740.67 171.16 740.63 C 170.74 740.61 170.35 740.57 169.94 740.54 C 169.32 740.49 168.7 740.46 168.1 740.4 C 167.67 740.36 167.27 740.31 166.85 740.27 C 166.3 740.21 165.74 740.16 165.2 740.09 C 164.8 740.04 164.41 739.98 164.02 739.93 C 163.5 739.86 162.97 739.79 162.48 739.72 C 162.08 739.66 161.72 739.59 161.34 739.52 C 160.87 739.44 160.39 739.36 159.93 739.28 C 159.55 739.2 159.2 739.12 158.83 739.05 C 158.41 738.96 157.98 738.88 157.57 738.79 C 157.22 738.71 156.9 738.62 156.56 738.54 C 156.17 738.44 155.77 738.35 155.41 738.25 C 155.09 738.16 154.8 738.07 154.5 737.98 C 154.15 737.88 153.78 737.78 153.45 737.67 C 153.16 737.58 152.91 737.49 152.64 737.4 C 152.32 737.29 151.99 737.18 151.7 737.07 C 151.45 736.97 151.23 736.88 150.99 736.78 C 150.72 736.67 150.43 736.56 150.17 736.44 C 149.95 736.35 149.77 736.25 149.57 736.15 C 149.33 736.04 149.08 735.92 148.87 735.81 C 148.69 735.71 148.54 735.61 148.38 735.52 C 148.18 735.4 147.98 735.29 147.81 735.17 C 147.67 735.07 147.55 734.98 147.43 734.88 C 147.28 734.77 147.11 734.65 146.99 734.53 C 146.88 734.44 146.81 734.34 146.72 734.25 C 146.62 734.14 146.5 734.02 146.42 733.91 C 146.36 733.82 146.32 733.73 146.28 733.64 C 146.22 733.52 146.15 733.41 146.11 733.3 L 146.07 732.93 C 146.31 729.76 159.3 724.06 177.73 724.06 Z M 201.83 789.18 C 201.82 789.26 201.82 789.34 201.82 789.42 C 201.82 789.69 201.15 790.73 198.16 791.91 C 196.83 792.43 195.26 792.9 193.5 793.31 C 188.93 794.36 183.34 794.94 177.73 794.94 C 162.75 794.94 153.66 791.11 153.66 789.42 C 153.66 789.34 153.65 789.26 153.64 789.18 L 146.85 738.73 C 147.28 738.98 147.75 739.22 148.24 739.46 C 148.37 739.52 148.5 739.58 148.63 739.64 C 149.07 739.84 149.53 740.04 150.01 740.23 C 150.2 740.3 150.39 740.38 150.59 740.45 C 151.09 740.64 151.6 740.82 152.14 740.99 C 152.28 741.04 152.41 741.09 152.56 741.14 C 153.24 741.35 153.94 741.55 154.67 741.75 C 154.85 741.79 155.04 741.84 155.23 741.89 C 155.8 742.03 156.38 742.17 156.98 742.3 C 157.21 742.36 157.45 742.41 157.69 742.46 C 158.35 742.6 159.02 742.73 159.7 742.85 C 159.84 742.88 159.97 742.91 160.11 742.93 C 160.92 743.07 161.76 743.2 162.61 743.33 C 162.83 743.36 163.06 743.39 163.29 743.42 C 163.94 743.51 164.6 743.59 165.26 743.67 C 165.52 743.7 165.78 743.73 166.04 743.76 C 166.83 743.84 167.63 743.92 168.43 743.99 C 168.53 744 168.62 744.01 168.72 744.02 C 169.61 744.09 170.51 744.15 171.41 744.2 C 171.66 744.21 171.91 744.22 172.17 744.24 C 172.85 744.27 173.53 744.3 174.21 744.32 C 174.48 744.33 174.75 744.34 175.02 744.34 C 175.92 744.36 176.83 744.38 177.73 744.38 C 178.64 744.38 179.54 744.36 180.45 744.34 C 180.72 744.34 180.98 744.33 181.25 744.32 C 181.93 744.3 182.62 744.27 183.3 744.24 C 183.55 744.22 183.8 744.21 184.06 744.2 C 184.96 744.15 185.86 744.09 186.75 744.02 C 186.84 744.01 186.93 744 187.02 743.99 C 187.83 743.92 188.63 743.84 189.43 743.76 C 189.69 743.73 189.94 743.7 190.2 743.67 C 190.87 743.59 191.53 743.51 192.18 743.42 C 192.41 743.39 192.63 743.36 192.86 743.33 C 193.71 743.2 194.55 743.07 195.37 742.93 C 195.49 742.91 195.62 742.88 195.74 742.86 C 196.44 742.73 197.12 742.6 197.79 742.46 C 198.02 742.41 198.25 742.36 198.49 742.3 C 199.09 742.17 199.68 742.03 200.25 741.88 C 200.43 741.84 200.62 741.79 200.8 741.75 C 201.53 741.55 202.23 741.35 202.91 741.13 C 203.05 741.09 203.18 741.04 203.32 741 C 203.86 740.82 204.38 740.64 204.89 740.45 C 205.08 740.38 205.27 740.3 205.46 740.23 C 205.94 740.04 206.4 739.84 206.85 739.63 C 206.97 739.57 207.1 739.52 207.22 739.46 C 207.72 739.22 208.19 738.98 208.63 738.73 L 205.46 762.26 C 199.02 760.19 189.98 756.44 181.43 752.38 C 181.33 750.42 179.72 748.85 177.73 748.85 C 175.69 748.85 174.02 750.51 174.02 752.56 C 174.02 754.62 175.69 756.28 177.73 756.28 C 178.54 756.28 179.28 756.02 179.89 755.58 C 187.55 759.26 197.34 763.6 204.98 765.81 Z M 177.57 752.56 C 177.57 752.48 177.65 752.4 177.73 752.4 C 177.76 752.4 177.78 752.42 177.8 752.43 L 177.68 752.68 C 177.62 752.66 177.57 752.63 177.57 752.56 Z M 208.91 763.27 L 209.3 760.34 C 212.43 762.24 213.41 763.35 213.7 763.82 C 212.86 764.07 211.18 763.85 208.91 763.27 Z" fill="#b5739d" stroke="none" pointer-events="all"/><g fill="#232F3E" font-family="Helvetica" font-size="12px"><text x="219" y="764">php-env-tfstate-bucket</text></g><rect x="237.41" y="775" width="32.59" height="41" fill="none" stroke="none" pointer-events="all"/><path d="M 253.01 799.39 C 253.2 799.2 253.44 799.1 253.71 799.1 L 253.71 799.1 C 253.97 799.1 254.21 799.2 254.4 799.39 C 254.58 799.57 254.69 799.82 254.69 800.08 L 254.69 800.08 C 254.69 800.34 254.58 800.59 254.4 800.77 C 254.21 800.96 253.97 801.06 253.71 801.06 L 253.7 801.06 C 253.16 801.06 252.73 800.62 252.73 800.08 C 252.73 799.82 252.83 799.57 253.01 799.39 Z M 252.78 802.75 L 252.78 806.01 L 254.63 806.01 L 254.63 802.75 C 255.03 802.61 255.4 802.39 255.71 802.09 C 256.24 801.55 256.54 800.84 256.54 800.08 C 256.54 799.33 256.24 798.61 255.71 798.08 C 255.17 797.54 254.46 797.25 253.71 797.25 L 253.7 797.25 C 252.95 797.25 252.24 797.54 251.7 798.08 C 251.17 798.61 250.87 799.32 250.87 800.08 C 250.87 801.32 251.67 802.36 252.78 802.75 Z M 261.67 808.32 L 245.77 808.32 L 245.77 795.62 L 261.68 795.63 Z M 249.78 790.78 C 249.79 789.69 250.2 788.66 250.95 787.9 C 251.69 787.14 252.67 786.72 253.71 786.72 L 253.72 786.72 C 254.76 786.72 255.74 787.15 256.47 787.92 C 257.21 788.7 257.62 789.73 257.62 790.83 L 257.62 793.77 L 249.77 793.77 Z M 262.6 793.77 L 259.47 793.77 L 259.47 790.83 C 259.48 789.25 258.89 787.76 257.81 786.64 C 256.73 785.5 255.28 784.87 253.73 784.87 L 253.71 784.87 C 252.17 784.87 250.72 785.48 249.63 786.6 C 248.54 787.71 247.93 789.2 247.93 790.78 L 247.91 793.77 L 244.85 793.77 C 244.6 793.77 244.36 793.86 244.19 794.04 C 244.02 794.21 243.92 794.45 243.92 794.69 L 243.92 809.24 C 243.92 809.76 244.33 810.17 244.84 810.17 L 262.6 810.18 C 263.11 810.18 263.52 809.76 263.52 809.25 L 263.53 794.7 C 263.53 794.45 263.43 794.22 263.26 794.04 C 263.08 793.87 262.85 793.77 262.6 793.77 Z M 268.15 813.45 C 268.15 813.74 267.91 813.99 267.61 813.99 L 239.8 813.99 C 239.5 813.99 239.26 813.74 239.26 813.45 L 239.26 777.55 C 239.26 777.26 239.5 777.01 239.8 777.01 L 259.25 777.01 L 259.25 784.99 C 259.25 785.5 259.66 785.91 260.18 785.91 L 268.15 785.91 L 268.15 796.64 Z M 261.1 778.32 L 266.84 784.06 L 261.1 784.06 Z M 260.56 775.16 L 239.8 775.16 C 238.48 775.16 237.41 776.23 237.41 777.55 L 237.41 813.45 C 237.41 814.77 238.48 815.84 239.8 815.84 L 267.61 815.84 C 268.93 815.84 270 814.77 270 813.45 L 270 796.64 L 270 785.52 L 270 784.6 Z" fill="#b5739d" stroke="none" pointer-events="all"/><g fill="#232F3E" font-family="Helvetica" font-size="12px"><text x="271.5" y="800">php-env-tfstate-bucket-key</text></g><path d="M 86 159 L 220 159 L 220 679 L 86 679 Z" fill="#e9f3e6" stroke="none" pointer-events="all"/><path d="M 86 159 L 111 159 L 111 184 L 86 184 Z M 98.52 162.21 C 97.4 162.21 96.31 162.63 95.48 163.39 C 94.67 164.11 94.2 165.15 94.2 166.24 L 94.2 168.78 L 91.89 168.78 C 91.8 168.78 91.7 168.82 91.64 168.89 C 91.57 168.95 91.54 169.04 91.54 169.13 L 91.54 180.43 C 91.54 180.63 91.7 180.79 91.89 180.79 L 105.11 180.79 C 105.3 180.79 105.46 180.63 105.46 180.43 L 105.46 169.15 C 105.47 169.06 105.43 168.97 105.36 168.9 C 105.3 168.83 105.21 168.79 105.11 168.79 L 102.81 168.79 L 102.81 166.29 C 102.8 165.21 102.35 164.18 101.56 163.44 C 100.74 162.65 99.65 162.22 98.52 162.21 Z M 98.51 162.93 C 99.46 162.92 100.37 163.28 101.06 163.93 C 101.72 164.54 102.1 165.4 102.1 166.29 L 102.1 168.79 L 94.88 168.79 L 94.89 166.26 C 94.9 165.36 95.28 164.51 95.95 163.91 C 96.65 163.27 97.57 162.92 98.51 162.93 Z M 92.24 169.5 L 104.76 169.5 L 104.75 180.07 L 92.24 180.07 Z M 98.51 171.74 C 97.48 171.73 96.61 172.51 96.51 173.53 C 96.42 174.56 97.13 175.48 98.14 175.66 L 98.14 178.44 L 98.86 178.44 L 98.86 175.66 C 99.79 175.49 100.47 174.67 100.48 173.72 C 100.48 172.63 99.6 171.75 98.51 171.74 Z M 98.39 172.45 C 98.43 172.45 98.47 172.45 98.51 172.46 C 98.84 172.46 99.16 172.59 99.4 172.83 C 99.64 173.07 99.77 173.39 99.76 173.72 C 99.77 174.06 99.64 174.38 99.4 174.61 C 99.16 174.85 98.84 174.98 98.51 174.98 C 98.04 175.02 97.6 174.8 97.34 174.42 C 97.08 174.03 97.06 173.53 97.28 173.12 C 97.5 172.71 97.93 172.46 98.39 172.45 Z" fill="#248814" stroke="none" pointer-events="all"/><g fill="#248814" font-family="Helvetica" font-size="12px"><text x="117.5" y="176.5">php-env-jumphost-sn</text></g><rect x="90" y="529" width="120" height="132" fill="none" stroke="#67ab9f" pointer-events="all"/><g fill="#67AB9F" font-family="Helvetica" text-anchor="middle" font-size="12px"><text x="149.5" y="546.5">php-env-</text><text x="149.5" y="560.5">jumphost-sg</text></g><path d="M 117 568.5 L 183 568.5 L 183 634.5 L 117 634.5 Z" fill="none" stroke="none" pointer-events="all"/><path d="M 139.92 611.58 L 139.92 591.42 L 160.08 591.42 L 160.08 611.58 Z M 138.96 613.5 L 161.04 613.5 C 161.57 613.5 162 613.07 162 612.54 L 162 590.46 C 162 589.93 161.57 589.5 161.04 589.5 L 138.96 589.5 C 138.43 589.5 138 589.93 138 590.46 L 138 612.54 C 138 613.07 138.43 613.5 138.96 613.5 Z M 132.24 619.26 L 132.24 583.74 L 167.76 583.74 L 167.76 619.26 Z M 176.4 585.66 L 176.4 583.74 L 169.68 583.74 L 169.68 582.78 C 169.68 582.25 169.25 581.82 168.72 581.82 L 167.76 581.82 L 167.76 575.1 L 165.84 575.1 L 165.84 581.82 L 161.04 581.82 L 161.04 575.1 L 159.12 575.1 L 159.12 581.82 L 154.32 581.82 L 154.32 575.1 L 152.4 575.1 L 152.4 581.82 L 147.6 581.82 L 147.6 575.1 L 145.68 575.1 L 145.68 581.82 L 140.88 581.82 L 140.88 575.1 L 138.96 575.1 L 138.96 581.82 L 134.16 581.82 L 134.16 575.1 L 132.24 575.1 L 132.24 581.82 L 131.28 581.82 C 130.75 581.82 130.32 582.25 130.32 582.78 L 130.32 583.74 L 123.6 583.74 L 123.6 585.66 L 130.32 585.66 L 130.32 590.46 L 123.6 590.46 L 123.6 592.38 L 130.32 592.38 L 130.32 597.18 L 123.6 597.18 L 123.6 599.1 L 130.32 599.1 L 130.32 603.9 L 123.6 603.9 L 123.6 605.82 L 130.32 605.82 L 130.32 610.62 L 123.6 610.62 L 123.6 612.54 L 130.32 612.54 L 130.32 617.34 L 123.6 617.34 L 123.6 619.26 L 130.32 619.26 L 130.32 620.22 C 130.32 620.75 130.75 621.18 131.28 621.18 L 132.24 621.18 L 132.24 627.9 L 134.16 627.9 L 134.16 621.18 L 138.96 621.18 L 138.96 627.9 L 140.88 627.9 L 140.88 621.18 L 145.68 621.18 L 145.68 627.9 L 147.6 627.9 L 147.6 621.18 L 152.4 621.18 L 152.4 627.9 L 154.32 627.9 L 154.32 621.18 L 159.12 621.18 L 159.12 627.9 L 161.04 627.9 L 161.04 621.18 L 165.84 621.18 L 165.84 627.9 L 167.76 627.9 L 167.76 621.18 L 168.72 621.18 C 169.25 621.18 169.68 620.75 169.68 620.22 L 169.68 619.26 L 176.4 619.26 L 176.4 617.34 L 169.68 617.34 L 169.68 612.54 L 176.4 612.54 L 176.4 610.62 L 169.68 610.62 L 169.68 605.82 L 176.4 605.82 L 176.4 603.9 L 169.68 603.9 L 169.68 599.1 L 176.4 599.1 L 176.4 597.18 L 169.68 597.18 L 169.68 592.38 L 176.4 592.38 L 176.4 590.46 L 169.68 590.46 L 169.68 585.66 Z" fill="#67ab9f" stroke="none" pointer-events="all"/><g fill="#232F3E" font-family="Helvetica" text-anchor="middle" font-size="12px"><text x="149.5" y="652">php-env-jumphost</text></g><path d="M 142.5 242 L 196.5 242 L 196.5 296 L 142.5 296 Z" fill="none" stroke="none" pointer-events="all"/><path d="M 156.63 260.27 L 148.69 260.27 C 148.26 260.27 147.9 260.62 147.9 261.06 L 147.9 289.64 C 147.9 290.08 148.26 290.43 148.69 290.43 L 156.63 290.43 C 157.07 290.43 157.43 290.08 157.43 289.64 L 157.43 261.06 C 157.43 260.62 157.07 260.27 156.63 260.27 Z M 149.49 288.85 L 149.49 261.86 L 155.84 261.86 L 155.84 288.85 Z M 160.6 265.82 L 159.01 265.82 L 159.01 255.5 C 159.01 255.07 159.37 254.71 159.81 254.71 L 167.75 254.71 C 168.18 254.71 168.54 255.07 168.54 255.5 L 168.54 258.68 L 166.95 258.68 L 166.95 256.3 L 160.6 256.3 Z M 166.95 284.08 L 168.54 284.08 L 168.54 289.64 C 168.54 290.08 168.18 290.43 167.75 290.43 L 159.81 290.43 C 159.37 290.43 159.01 290.08 159.01 289.64 L 159.01 277.73 L 160.6 277.73 L 160.6 288.85 L 166.95 288.85 Z M 171.71 257.89 L 170.13 257.89 L 170.13 248.36 C 170.13 247.92 170.48 247.57 170.92 247.57 L 178.86 247.57 C 179.3 247.57 179.65 247.92 179.65 248.36 L 179.65 259.47 L 178.07 259.47 L 178.07 249.15 L 171.71 249.15 Z M 178.07 285.67 L 179.65 285.67 L 179.65 289.64 C 179.65 290.08 179.3 290.43 178.86 290.43 L 170.92 290.43 C 170.48 290.43 170.13 290.08 170.13 289.64 L 170.13 284.88 L 171.71 284.88 L 171.71 288.85 L 178.07 288.85 Z M 190.77 253.12 L 190.77 280.11 L 189.18 280.11 L 189.18 253.92 L 182.83 253.92 L 182.83 262.65 L 181.24 262.65 L 181.24 253.12 C 181.24 252.69 181.6 252.33 182.03 252.33 L 189.97 252.33 C 190.41 252.33 190.77 252.69 190.77 253.12 Z M 182.88 276.57 C 183.61 275.08 184.03 273.41 184.03 271.64 C 184.03 265.4 178.95 260.32 172.71 260.32 C 166.48 260.32 161.4 265.4 161.4 271.64 C 161.4 277.87 166.48 282.95 172.71 282.95 C 175.02 282.95 177.16 282.25 178.95 281.07 L 185.78 287.23 C 186.35 287.74 187.06 287.99 187.78 287.99 C 188.59 287.99 189.41 287.66 190 287.01 C 191.1 285.78 191 283.89 189.78 282.79 Z M 162.99 271.64 C 162.99 266.27 167.35 261.91 172.71 261.91 C 178.08 261.91 182.44 266.27 182.44 271.64 C 182.44 277 178.08 281.36 172.71 281.36 C 167.35 281.36 162.99 277 162.99 271.64 Z M 188.82 285.95 C 188.3 286.52 187.41 286.56 186.84 286.05 L 180.22 280.08 C 180.92 279.45 181.55 278.76 182.07 277.98 L 188.72 283.96 C 189.29 284.48 189.34 285.37 188.82 285.95 Z M 172.71 263.69 C 168.33 263.69 164.77 267.25 164.77 271.64 C 164.77 276.02 168.33 279.58 172.71 279.58 C 177.1 279.58 180.66 276.02 180.66 271.64 C 180.66 267.25 177.1 263.69 172.71 263.69 Z M 172.71 277.99 C 169.21 277.99 166.36 275.14 166.36 271.64 C 166.36 268.13 169.21 265.28 172.71 265.28 C 176.22 265.28 179.07 268.13 179.07 271.64 C 179.07 275.14 176.22 277.99 172.71 277.99 Z" fill="#67ab9f" stroke="none" pointer-events="all"/><g fill="#232F3E" font-family="Helvetica" text-anchor="middle" font-size="12px"><text x="169" y="313.5">php-env-</text><text x="169" y="327.5">elasticsearch</text></g><path d="M 798.01 390 L 798 424.5 Q 798 434.5 788 434.5 L 781.65 434.5 Q 775.3 434.5 775.3 444.5 L 775.3 472.63" fill="none" stroke="none" pointer-events="stroke"/><path d="M 775.3 477.88 L 771.8 470.88 L 775.3 472.63 L 778.8 470.88 Z" fill="none" stroke="none" pointer-events="all"/><path d="M 62.5 600.21 L 110.63 600.92" fill="none" stroke="rgb(0, 0, 0)" stroke-miterlimit="10" pointer-events="stroke"/><path d="M 115.88 601 L 108.83 604.39 L 110.63 600.92 L 108.93 597.39 Z" fill="rgb(0, 0, 0)" stroke="rgb(0, 0, 0)" stroke-miterlimit="10" pointer-events="all"/><path d="M 180 661 L 180 714.13" fill="none" stroke="#b5739d" stroke-miterlimit="10" pointer-events="stroke"/><path d="M 180 719.38 L 176.5 712.38 L 180 714.13 L 183.5 712.38 Z" fill="#b5739d" stroke="#b5739d" stroke-miterlimit="10" pointer-events="all"/><path d="M 230 404 L 270 404" fill="none" stroke="rgb(0, 0, 0)" stroke-width="3" stroke-miterlimit="10" stroke-dasharray="3 3" pointer-events="stroke"/><g fill="rgb(0, 0, 0)" font-family="Helvetica" text-anchor="middle" font-size="11px"><rect fill="rgb(255, 255, 255)" stroke="none" x="207" y="376" width="87" height="27" stroke-width="0"/><text x="249.5" y="385.5">php-env-</text><text x="249.5" y="398.5">jumphost-peering</text></g><path d="M 831.5 400 L 831.5 459 L 775.3 459 L 775.3 472.63" fill="none" stroke="rgb(0, 0, 0)" stroke-miterlimit="10" pointer-events="stroke"/><path d="M 775.3 477.88 L 771.8 470.88 L 775.3 472.63 L 778.8 470.88 Z" fill="rgb(0, 0, 0)" stroke="rgb(0, 0, 0)" stroke-miterlimit="10" pointer-events="all"/><path d="M 522.5 250 L 522.5 229 L 612 229 L 612 216.92" fill="none" stroke="rgb(0, 0, 0)" stroke-miterlimit="10" pointer-events="stroke"/><path d="M 612 211.67 L 615.5 218.67 L 612 216.92 L 608.5 218.67 Z" fill="rgb(0, 0, 0)" stroke="rgb(0, 0, 0)" stroke-miterlimit="10" pointer-events="all"/><rect x="100" y="307" width="23.05" height="29" fill="none" stroke="none" pointer-events="all"/><path d="M 111.04 324.25 C 111.17 324.12 111.34 324.05 111.53 324.05 L 111.53 324.05 C 111.71 324.05 111.88 324.12 112.02 324.25 C 112.15 324.38 112.22 324.55 112.22 324.74 L 112.22 324.74 C 112.22 324.93 112.15 325.1 112.01 325.23 C 111.88 325.36 111.71 325.43 111.53 325.43 L 111.52 325.43 C 111.14 325.43 110.83 325.12 110.83 324.74 C 110.83 324.55 110.9 324.38 111.04 324.25 Z M 110.87 326.62 L 110.87 328.94 L 112.18 328.94 L 112.18 326.63 C 112.46 326.53 112.72 326.38 112.94 326.16 C 113.32 325.78 113.53 325.28 113.53 324.74 C 113.53 324.21 113.32 323.7 112.94 323.32 C 112.56 322.94 112.06 322.74 111.53 322.74 L 111.52 322.74 C 110.99 322.74 110.49 322.94 110.11 323.32 C 109.73 323.7 109.52 324.2 109.52 324.74 C 109.52 325.61 110.09 326.35 110.87 326.62 Z M 117.16 330.57 L 105.91 330.56 L 105.91 321.58 L 117.16 321.59 Z M 108.75 318.16 C 108.75 317.39 109.05 316.67 109.58 316.12 C 110.1 315.59 110.79 315.29 111.53 315.29 L 111.54 315.29 C 112.27 315.29 112.96 315.59 113.48 316.14 C 114.01 316.69 114.29 317.42 114.29 318.2 L 114.29 320.28 L 108.74 320.27 Z M 117.82 320.28 L 115.6 320.28 L 115.6 318.2 C 115.61 317.08 115.19 316.03 114.43 315.23 C 113.66 314.43 112.64 313.98 111.54 313.98 L 111.53 313.98 C 110.44 313.98 109.41 314.41 108.64 315.21 C 107.87 315.99 107.44 317.04 107.44 318.16 L 107.43 320.27 L 105.26 320.27 C 105.09 320.27 104.92 320.34 104.8 320.46 C 104.67 320.59 104.6 320.75 104.6 320.93 L 104.6 331.22 C 104.6 331.58 104.89 331.88 105.26 331.88 L 117.81 331.88 C 118.18 331.88 118.47 331.59 118.47 331.23 L 118.47 320.93 C 118.47 320.76 118.4 320.59 118.28 320.47 C 118.16 320.35 117.99 320.28 117.82 320.28 Z M 121.74 334.19 C 121.74 334.4 121.57 334.57 121.36 334.57 L 101.69 334.57 C 101.48 334.57 101.31 334.4 101.31 334.19 L 101.31 308.81 C 101.31 308.6 101.48 308.43 101.69 308.43 L 115.45 308.43 L 115.45 314.06 C 115.45 314.43 115.74 314.72 116.1 314.72 L 121.74 314.72 L 121.74 322.31 Z M 116.76 309.35 L 120.81 313.41 L 116.76 313.41 Z M 116.37 307.11 L 101.69 307.11 C 100.76 307.11 100 307.87 100 308.81 L 100 334.19 C 100 335.13 100.76 335.89 101.69 335.89 L 121.36 335.89 C 122.29 335.89 123.05 335.13 123.05 334.19 L 123.05 322.31 L 123.05 314.44 L 123.05 313.79 Z" fill="#67ab9f" stroke="none" pointer-events="all"/><g fill="#232F3E" font-family="Helvetica" font-size="12px"><text x="101.5" y="353.5">php-env-</text><text x="101.5" y="367.5">elasticsearch-kms</text></g><path d="M 270 266.5 L 270 256 L 234 256 L 196.87 255.57" fill="none" stroke="rgb(0, 0, 0)" stroke-miterlimit="10" pointer-events="stroke"/><path d="M 191.62 255.51 L 198.66 252.09 L 196.87 255.57 L 198.58 259.09 Z" fill="rgb(0, 0, 0)" stroke="rgb(0, 0, 0)" stroke-miterlimit="10" pointer-events="all"/><g fill="rgb(0, 0, 0)" font-family="Helvetica" text-anchor="middle" font-size="11px"><rect fill="rgb(255, 255, 255)" stroke="none" x="211" y="241" width="51" height="14" stroke-width="0"/><text x="235" y="250.5">"filebeats"</text></g><path d="M 205 631.5 L 250 631.5 L 256.89 631.4" fill="none" stroke="rgb(0, 0, 0)" stroke-miterlimit="10" pointer-events="stroke"/><path d="M 262.14 631.33 L 255.19 634.93 L 256.89 631.4 L 255.09 627.93 Z" fill="rgb(0, 0, 0)" stroke="rgb(0, 0, 0)" stroke-miterlimit="10" pointer-events="all"/><g fill="rgb(0, 0, 0)" font-family="Helvetica" text-anchor="middle" font-size="11px"><rect fill="rgb(255, 255, 255)" stroke="none" x="204" y="616" width="61" height="14" stroke-width="0"/><text x="233.5" y="626">"admin-ssh"</text></g><rect x="814.26" y="547" width="49.74" height="44" fill="none" stroke="none" pointer-events="all"/><path d="M 860.11 555.04 C 860.11 555.92 860.84 556.64 861.73 556.64 C 862.32 556.64 862.8 557.12 862.8 557.72 L 862.8 574.86 C 862.8 575.45 862.32 575.94 861.73 575.94 L 853.36 575.94 L 853.36 573.78 L 857.31 573.78 L 857.31 571.75 L 853.36 571.75 L 853.36 569.6 L 858.38 569.6 C 858.97 569.6 859.46 570.08 859.46 570.67 L 859.46 573.78 L 860.65 573.78 L 860.65 558.64 C 859.1 558.17 857.96 556.74 857.96 555.04 C 857.96 553.34 859.1 551.9 860.65 551.44 L 860.65 549.15 L 817.61 549.15 L 817.61 551.44 C 819.16 551.9 820.3 553.34 820.3 555.04 C 820.3 556.74 819.16 558.17 817.61 558.64 L 817.61 573.78 L 818.8 573.78 L 818.8 570.67 C 818.8 570.08 819.29 569.6 819.88 569.6 L 824.9 569.6 L 824.9 571.75 L 820.96 571.75 L 820.96 573.78 L 824.9 573.78 L 824.9 575.94 L 816.53 575.94 C 815.94 575.94 815.46 575.45 815.46 574.86 L 815.46 557.72 C 815.46 557.12 815.94 556.64 816.53 556.64 C 817.42 556.64 818.15 555.92 818.15 555.04 C 818.15 554.16 817.42 553.44 816.53 553.44 C 815.94 553.44 815.46 552.96 815.46 552.36 L 815.46 548.08 C 815.46 547.48 815.94 547 816.53 547 L 861.73 547 C 862.32 547 862.8 547.48 862.8 548.08 L 862.8 552.36 C 862.8 552.96 862.32 553.44 861.73 553.44 C 860.84 553.44 860.11 554.16 860.11 555.04 Z M 839.34 578.26 L 837.1 578.26 L 837.1 574.03 L 839.39 574.03 C 840.78 574.03 841.48 574.73 841.48 576.14 C 841.48 577.56 840.77 578.26 839.34 578.26 Z M 843.13 578.22 C 843.55 577.62 843.77 576.9 843.77 576.07 C 843.77 574.92 843.39 574 842.63 573.32 C 841.88 572.64 840.88 572.3 839.62 572.3 L 834.85 572.3 L 834.85 585.06 L 837.1 585.06 L 837.1 579.99 L 839.35 579.99 L 842.33 585.06 L 844.58 585.06 L 841.28 579.61 C 842.09 579.29 842.71 578.83 843.13 578.22 Z M 824.3 565.41 L 825.74 565.41 L 825.74 567.57 L 823.23 567.57 C 822.63 567.57 822.15 567.08 822.15 566.49 L 822.15 552.26 C 822.15 551.67 822.63 551.19 823.23 551.19 L 828.25 551.19 C 828.85 551.19 829.33 551.67 829.33 552.26 L 829.33 558.96 L 827.17 558.96 L 827.17 553.34 L 824.3 553.34 Z M 853.96 565.41 L 853.96 553.34 L 851.09 553.34 L 851.09 558.96 L 848.93 558.96 L 848.93 552.26 C 848.93 551.67 849.42 551.19 850.01 551.19 L 855.03 551.19 C 855.63 551.19 856.11 551.67 856.11 552.26 L 856.11 566.49 C 856.11 567.08 855.63 567.57 855.03 567.57 L 853.36 567.57 L 853.36 565.41 Z M 845.59 558.12 L 845.59 553.34 L 841.88 553.34 L 841.88 557.28 L 839.73 557.28 L 839.73 552.26 C 839.73 551.67 840.21 551.19 840.81 551.19 L 846.66 551.19 C 847.26 551.19 847.74 551.67 847.74 552.26 L 847.74 558.12 Z M 836.38 557.28 L 836.38 553.34 L 832.67 553.34 L 832.67 558.12 L 830.52 558.12 L 830.52 552.26 C 830.52 551.67 831 551.19 831.6 551.19 L 837.46 551.19 C 838.05 551.19 838.53 551.67 838.53 552.26 L 838.53 557.28 Z M 847.45 575.36 C 848.41 575.06 849.17 574.72 849.77 574.38 L 849.77 578.97 C 849.77 579.35 848.98 580.15 846.8 580.84 L 847.45 582.89 C 848.41 582.59 849.17 582.26 849.77 581.91 L 849.77 586.01 C 849.77 587.01 845.73 588.85 839.13 588.85 C 832.53 588.85 828.49 587.01 828.49 586.01 L 828.49 581.91 C 829.1 582.26 829.87 582.6 830.85 582.9 L 831.49 580.85 C 829.29 580.16 828.49 579.35 828.49 578.97 L 828.49 574.38 C 829.1 574.73 829.87 575.06 830.85 575.37 L 831.49 573.32 C 829.29 572.63 828.49 571.82 828.49 571.44 L 828.49 566.83 C 830.92 568.24 835.06 568.9 839.01 568.9 C 843.17 568.9 847.34 568.17 849.77 566.76 L 849.77 571.44 C 849.77 571.82 848.98 572.62 846.8 573.31 Z M 839.01 561 C 845.67 561 849.74 562.86 849.74 563.88 C 849.74 564.89 845.67 566.75 839.01 566.75 C 832.21 566.75 828.51 564.85 828.51 563.88 C 828.51 562.9 832.21 561 839.01 561 Z M 851.91 563.88 C 851.91 560.58 845.41 558.85 839.01 558.85 C 832.92 558.85 826.35 560.42 826.35 563.88 L 826.35 563.99 L 826.34 586.01 C 826.34 589.29 832.77 591 839.13 591 C 845.49 591 851.92 589.29 851.92 586.01 L 851.91 563.99 Z" fill="#3334b9" stroke="none" pointer-events="all"/><rect x="420" y="605" width="460" height="56" fill="none" stroke="#0000ff" pointer-events="all"/><g fill="#0000FF" font-family="Helvetica" font-size="12px"><text x="881.5" y="637.5">php-env-session-redis-sg</text></g><rect x="430" y="611" width="49.74" height="44" fill="none" stroke="none" pointer-events="all"/><path d="M 475.85 619.04 C 475.85 619.92 476.58 620.64 477.47 620.64 C 478.06 620.64 478.54 621.12 478.54 621.72 L 478.54 638.86 C 478.54 639.45 478.06 639.94 477.47 639.94 L 469.1 639.94 L 469.1 637.78 L 473.05 637.78 L 473.05 635.75 L 469.1 635.75 L 469.1 633.6 L 474.12 633.6 C 474.71 633.6 475.2 634.08 475.2 634.67 L 475.2 637.78 L 476.39 637.78 L 476.39 622.64 C 474.84 622.17 473.7 620.74 473.7 619.04 C 473.7 617.34 474.84 615.9 476.39 615.44 L 476.39 613.15 L 433.35 613.15 L 433.35 615.44 C 434.9 615.9 436.04 617.34 436.04 619.04 C 436.04 620.74 434.9 622.17 433.35 622.64 L 433.35 637.78 L 434.54 637.78 L 434.54 634.67 C 434.54 634.08 435.03 633.6 435.62 633.6 L 440.64 633.6 L 440.64 635.75 L 436.7 635.75 L 436.7 637.78 L 440.64 637.78 L 440.64 639.94 L 432.27 639.94 C 431.68 639.94 431.2 639.45 431.2 638.86 L 431.2 621.72 C 431.2 621.12 431.68 620.64 432.27 620.64 C 433.16 620.64 433.89 619.92 433.89 619.04 C 433.89 618.16 433.16 617.44 432.27 617.44 C 431.68 617.44 431.2 616.96 431.2 616.36 L 431.2 612.08 C 431.2 611.48 431.68 611 432.27 611 L 477.47 611 C 478.06 611 478.54 611.48 478.54 612.08 L 478.54 616.36 C 478.54 616.96 478.06 617.44 477.47 617.44 C 476.58 617.44 475.85 618.16 475.85 619.04 Z M 455.08 642.26 L 452.84 642.26 L 452.84 638.03 L 455.13 638.03 C 456.52 638.03 457.22 638.73 457.22 640.14 C 457.22 641.56 456.51 642.26 455.08 642.26 Z M 458.87 642.22 C 459.29 641.62 459.51 640.9 459.51 640.07 C 459.51 638.92 459.13 638 458.37 637.32 C 457.62 636.64 456.62 636.3 455.36 636.3 L 450.59 636.3 L 450.59 649.06 L 452.84 649.06 L 452.84 643.99 L 455.09 643.99 L 458.07 649.06 L 460.32 649.06 L 457.02 643.61 C 457.83 643.29 458.45 642.83 458.87 642.22 Z M 440.04 629.41 L 441.48 629.41 L 441.48 631.57 L 438.97 631.57 C 438.37 631.57 437.89 631.08 437.89 630.49 L 437.89 616.26 C 437.89 615.67 438.37 615.19 438.97 615.19 L 443.99 615.19 C 444.59 615.19 445.07 615.67 445.07 616.26 L 445.07 622.96 L 442.91 622.96 L 442.91 617.34 L 440.04 617.34 Z M 469.7 629.41 L 469.7 617.34 L 466.83 617.34 L 466.83 622.96 L 464.67 622.96 L 464.67 616.26 C 464.67 615.67 465.16 615.19 465.75 615.19 L 470.77 615.19 C 471.37 615.19 471.85 615.67 471.85 616.26 L 471.85 630.49 C 471.85 631.08 471.37 631.57 470.77 631.57 L 469.1 631.57 L 469.1 629.41 Z M 461.33 622.12 L 461.33 617.34 L 457.62 617.34 L 457.62 621.28 L 455.47 621.28 L 455.47 616.26 C 455.47 615.67 455.95 615.19 456.55 615.19 L 462.4 615.19 C 463 615.19 463.48 615.67 463.48 616.26 L 463.48 622.12 Z M 452.12 621.28 L 452.12 617.34 L 448.41 617.34 L 448.41 622.12 L 446.26 622.12 L 446.26 616.26 C 446.26 615.67 446.74 615.19 447.34 615.19 L 453.2 615.19 C 453.79 615.19 454.27 615.67 454.27 616.26 L 454.27 621.28 Z M 463.19 639.36 C 464.15 639.06 464.91 638.72 465.51 638.38 L 465.51 642.97 C 465.51 643.35 464.72 644.15 462.54 644.84 L 463.19 646.89 C 464.15 646.59 464.91 646.26 465.51 645.91 L 465.51 650.01 C 465.51 651.01 461.47 652.85 454.87 652.85 C 448.27 652.85 444.23 651.01 444.23 650.01 L 444.23 645.91 C 444.84 646.26 445.61 646.6 446.59 646.9 L 447.23 644.85 C 445.03 644.16 444.23 643.35 444.23 642.97 L 444.23 638.38 C 444.84 638.73 445.61 639.06 446.59 639.37 L 447.23 637.32 C 445.03 636.63 444.23 635.82 444.23 635.44 L 444.23 630.83 C 446.66 632.24 450.8 632.9 454.75 632.9 C 458.91 632.9 463.08 632.17 465.51 630.76 L 465.51 635.44 C 465.51 635.82 464.72 636.62 462.54 637.31 Z M 454.75 625 C 461.41 625 465.48 626.86 465.48 627.88 C 465.48 628.89 461.41 630.75 454.75 630.75 C 447.95 630.75 444.25 628.85 444.25 627.88 C 444.25 626.9 447.95 625 454.75 625 Z M 467.65 627.88 C 467.65 624.58 461.15 622.85 454.75 622.85 C 448.66 622.85 442.09 624.42 442.09 627.88 L 442.09 627.99 L 442.08 650.01 C 442.08 653.29 448.51 655 454.87 655 C 461.23 655 467.66 653.29 467.66 650.01 L 467.65 627.99 Z" fill="#3334b9" stroke="none" pointer-events="all"/><g fill="#232F3E" font-family="Helvetica" font-size="12px"><text x="481.24" y="651.5">php-env-session-cache-dcs</text></g><rect x="816.71" y="611" width="49.74" height="44" fill="none" stroke="none" pointer-events="all"/><path d="M 862.56 619.04 C 862.56 619.92 863.29 620.64 864.18 620.64 C 864.77 620.64 865.25 621.12 865.25 621.72 L 865.25 638.86 C 865.25 639.45 864.77 639.94 864.18 639.94 L 855.81 639.94 L 855.81 637.78 L 859.76 637.78 L 859.76 635.75 L 855.81 635.75 L 855.81 633.6 L 860.83 633.6 C 861.42 633.6 861.91 634.08 861.91 634.67 L 861.91 637.78 L 863.1 637.78 L 863.1 622.64 C 861.55 622.17 860.41 620.74 860.41 619.04 C 860.41 617.34 861.55 615.9 863.1 615.44 L 863.1 613.15 L 820.06 613.15 L 820.06 615.44 C 821.61 615.9 822.75 617.34 822.75 619.04 C 822.75 620.74 821.61 622.17 820.06 622.64 L 820.06 637.78 L 821.25 637.78 L 821.25 634.67 C 821.25 634.08 821.74 633.6 822.33 633.6 L 827.35 633.6 L 827.35 635.75 L 823.41 635.75 L 823.41 637.78 L 827.35 637.78 L 827.35 639.94 L 818.98 639.94 C 818.39 639.94 817.91 639.45 817.91 638.86 L 817.91 621.72 C 817.91 621.12 818.39 620.64 818.98 620.64 C 819.87 620.64 820.6 619.92 820.6 619.04 C 820.6 618.16 819.87 617.44 818.98 617.44 C 818.39 617.44 817.91 616.96 817.91 616.36 L 817.91 612.08 C 817.91 611.48 818.39 611 818.98 611 L 864.18 611 C 864.77 611 865.25 611.48 865.25 612.08 L 865.25 616.36 C 865.25 616.96 864.77 617.44 864.18 617.44 C 863.29 617.44 862.56 618.16 862.56 619.04 Z M 841.79 642.26 L 839.55 642.26 L 839.55 638.03 L 841.84 638.03 C 843.23 638.03 843.93 638.73 843.93 640.14 C 843.93 641.56 843.22 642.26 841.79 642.26 Z M 845.58 642.22 C 846 641.62 846.22 640.9 846.22 640.07 C 846.22 638.92 845.84 638 845.08 637.32 C 844.33 636.64 843.33 636.3 842.07 636.3 L 837.3 636.3 L 837.3 649.06 L 839.55 649.06 L 839.55 643.99 L 841.8 643.99 L 844.78 649.06 L 847.03 649.06 L 843.73 643.61 C 844.54 643.29 845.16 642.83 845.58 642.22 Z M 826.75 629.41 L 828.19 629.41 L 828.19 631.57 L 825.68 631.57 C 825.08 631.57 824.6 631.08 824.6 630.49 L 824.6 616.26 C 824.6 615.67 825.08 615.19 825.68 615.19 L 830.7 615.19 C 831.3 615.19 831.78 615.67 831.78 616.26 L 831.78 622.96 L 829.62 622.96 L 829.62 617.34 L 826.75 617.34 Z M 856.41 629.41 L 856.41 617.34 L 853.54 617.34 L 853.54 622.96 L 851.38 622.96 L 851.38 616.26 C 851.38 615.67 851.87 615.19 852.46 615.19 L 857.48 615.19 C 858.08 615.19 858.56 615.67 858.56 616.26 L 858.56 630.49 C 858.56 631.08 858.08 631.57 857.48 631.57 L 855.81 631.57 L 855.81 629.41 Z M 848.04 622.12 L 848.04 617.34 L 844.33 617.34 L 844.33 621.28 L 842.18 621.28 L 842.18 616.26 C 842.18 615.67 842.66 615.19 843.26 615.19 L 849.11 615.19 C 849.71 615.19 850.19 615.67 850.19 616.26 L 850.19 622.12 Z M 838.83 621.28 L 838.83 617.34 L 835.12 617.34 L 835.12 622.12 L 832.97 622.12 L 832.97 616.26 C 832.97 615.67 833.45 615.19 834.05 615.19 L 839.91 615.19 C 840.5 615.19 840.98 615.67 840.98 616.26 L 840.98 621.28 Z M 849.9 639.36 C 850.86 639.06 851.62 638.72 852.22 638.38 L 852.22 642.97 C 852.22 643.35 851.43 644.15 849.25 644.84 L 849.9 646.89 C 850.86 646.59 851.62 646.26 852.22 645.91 L 852.22 650.01 C 852.22 651.01 848.18 652.85 841.58 652.85 C 834.98 652.85 830.94 651.01 830.94 650.01 L 830.94 645.91 C 831.55 646.26 832.32 646.6 833.3 646.9 L 833.94 644.85 C 831.74 644.16 830.94 643.35 830.94 642.97 L 830.94 638.38 C 831.55 638.73 832.32 639.06 833.3 639.37 L 833.94 637.32 C 831.74 636.63 830.94 635.82 830.94 635.44 L 830.94 630.83 C 833.37 632.24 837.51 632.9 841.46 632.9 C 845.62 632.9 849.79 632.17 852.22 630.76 L 852.22 635.44 C 852.22 635.82 851.43 636.62 849.25 637.31 Z M 841.46 625 C 848.12 625 852.19 626.86 852.19 627.88 C 852.19 628.89 848.12 630.75 841.46 630.75 C 834.66 630.75 830.96 628.85 830.96 627.88 C 830.96 626.9 834.66 625 841.46 625 Z M 854.36 627.88 C 854.36 624.58 847.86 622.85 841.46 622.85 C 835.37 622.85 828.8 624.42 828.8 627.88 L 828.8 627.99 L 828.79 650.01 C 828.79 653.29 835.22 655 841.58 655 C 847.94 655 854.37 653.29 854.37 650.01 L 854.36 627.99 Z" fill="#3334b9" stroke="none" pointer-events="all"/><path d="M 562.59 567 L 809.09 568.78" fill="none" stroke="rgb(0, 0, 0)" stroke-miterlimit="10" pointer-events="stroke"/><path d="M 814.34 568.82 L 807.31 572.27 L 809.09 568.78 L 807.36 565.27 Z" fill="rgb(0, 0, 0)" stroke="rgb(0, 0, 0)" stroke-miterlimit="10" pointer-events="all"/><g fill="rgb(0, 0, 0)" font-family="Helvetica" text-anchor="middle" font-size="11px"><rect fill="rgb(255, 255, 255)" stroke="none" x="702" y="565" width="66" height="14" stroke-width="0"/><text x="733.57" y="574.74">Master/Slave</text></g><path d="M 478.54 633 L 811.54 633" fill="none" stroke="rgb(0, 0, 0)" stroke-miterlimit="10" pointer-events="stroke"/><path d="M 816.79 633 L 809.79 636.5 L 811.54 633 L 809.79 629.5 Z" fill="rgb(0, 0, 0)" stroke="rgb(0, 0, 0)" stroke-miterlimit="10" pointer-events="all"/><g fill="rgb(0, 0, 0)" font-family="Helvetica" text-anchor="middle" font-size="11px"><rect fill="rgb(255, 255, 255)" stroke="none" x="676" y="630" width="66" height="14" stroke-width="0"/><text x="707.54" y="639.5">Master/Slave</text></g><path d="M 800 399 L 800 449 L 535 449 L 535 542.63" fill="none" stroke="rgb(0, 0, 0)" stroke-miterlimit="10" pointer-events="stroke"/><path d="M 535 547.88 L 531.5 540.88 L 535 542.63 L 538.5 540.88 Z" fill="rgb(0, 0, 0)" stroke="rgb(0, 0, 0)" stroke-miterlimit="10" pointer-events="all"/><path d="M 522.5 400 L 522.5 449 L 535.2 449 L 535.18 538.65" fill="none" stroke="rgb(0, 0, 0)" stroke-miterlimit="10" pointer-events="stroke"/><path d="M 535.18 543.9 L 531.68 536.9 L 535.18 538.65 L 538.68 536.9 Z" fill="rgb(0, 0, 0)" stroke="rgb(0, 0, 0)" stroke-miterlimit="10" pointer-events="all"/><path d="M 485 400 L 485 439 L 455 439 L 455 604.63" fill="none" stroke="rgb(0, 0, 0)" stroke-miterlimit="10" pointer-events="stroke"/><path d="M 455 609.88 L 451.5 602.88 L 455 604.63 L 458.5 602.88 Z" fill="rgb(0, 0, 0)" stroke="rgb(0, 0, 0)" stroke-miterlimit="10" pointer-events="all"/><path d="M 766.5 400 L 766.5 439 L 455 439 L 455 604.63" fill="none" stroke="rgb(0, 0, 0)" stroke-miterlimit="10" pointer-events="stroke"/><path d="M 455 609.88 L 451.5 602.88 L 455 604.63 L 458.5 602.88 Z" fill="rgb(0, 0, 0)" stroke="rgb(0, 0, 0)" stroke-miterlimit="10" pointer-events="all"/><path d="M 410 400 L 410 760 L 693.8 760" fill="none" stroke="#b5739d" stroke-miterlimit="10" pointer-events="stroke"/><path d="M 699.05 760 L 692.05 763.5 L 693.8 760 L 692.05 756.5 Z" fill="#b5739d" stroke="#b5739d" stroke-miterlimit="10" pointer-events="all"/><path d="M 730 400 L 730 410 L 410 410 L 410 760 L 703.63 760" fill="none" stroke="#b5739d" stroke-miterlimit="10" pointer-events="stroke"/><path d="M 708.88 760 L 701.88 763.5 L 703.63 760 L 701.88 756.5 Z" fill="#b5739d" stroke="#b5739d" stroke-miterlimit="10" pointer-events="all"/><rect x="89.25" y="209" width="127.5" height="130.5" fill="none" stroke="#67ab9f" pointer-events="all"/><g fill="#67AB9F" font-family="Helvetica" text-anchor="middle" font-size="12px"><text x="152.5" y="226.5">php-elastic</text><text x="152.5" y="240.5">search-sg</text></g></g></svg>