<?xml version="1.0" encoding="UTF-8"?>
<svg data-name="T-Systems Logo" viewBox="0 0 588.37 130" xmlns="http://www.w3.org/2000/svg">
<defs>
<style>.cls-1 {
        fill: #e20074;
      }</style>
</defs>
<path class="cls-1" d="m177.48 37.176q-6.3128-30.041-24.526-30.041c-9.3603 0-15.02 6.458-15.02 15.601 0 12.553 11.61 16.544 21.623 20.1 15.818 5.6598 28.662 12.408 28.662 30.839 0 17.56-12.481 31.71-30.404 31.71-11.465 0-21.116-6.458-24.961-9.796l-3.3379 7.4112h-5.5146v-37.307h5.805c2.1043 9.3605 4.7163 16.472 7.9092 21.478 5.0068 7.764 11.537 11.682 19.664 11.682 11.029 0 17.198-7.474 17.198-18.141 0-13.932-10.884-17.923-22.349-21.841-15.528-5.2245-27.501-11.9-27.501-29.823 0-16.254 11.175-28.299 27.646-28.299 9.4334 0 16.544 4.136 22.349 8.4898l2.7571-6.2398h5.3699v34.176zm44.086 66.612-20.898-54.567c-3.1926-8.3447-4.3536-9.6508-8.6348-9.6508h-2.3947v-5.805h33.451v5.805h-5.0791c-2.6124 0-3.7007 1.0158-3.7007 3.0475a10.827 10.827 0 0 0 0.87057 3.483l14.295 36.426 12.045-33.596a19.838 19.838 0 0 0 1.161-5.297c0-2.7574-1.3787-4.0635-4.5713-4.0635h-5.2244v-5.805h26.122v5.805h-2.4674c-3.0475 0-4.2085 1.6688-6.1678 6.966l-23.147 61.968c-5.5873 15.02-10.231 21.261-20.608 21.261-7.9092 0-15.093-5.0794-15.093-13.497 0-5.4422 3.6284-9.5782 9.2156-9.5782 4.8617 0 8.8525 3.2653 8.8525 8.272 0 3.5557-1.7415 6.2404-5.2245 7.9819a8.1448 8.1448 0 0 0 2.7575 0.43529c5.7323 0 8.9252-3.9183 12.989-15.456zm79.829-47.02c-2.9752-12.698-8.8525-19.011-17.56-19.011-6.0227 0-9.9412 3.483-9.9412 9.5782 0 7.4014 8.7075 9.6509 14.367 11.537 12.045 3.9184 22.639 9.1429 22.639 23.22 0 13.859-10.377 22.422-23.8 22.422a30.417 30.417 0 0 1-19.374-7.111l-1.8142 5.597h-5.0794v-26.64h5.0794c3.1929 10.376 8.4174 22.204 21.188 22.204 6.6756 0 11.029-4.644 11.029-11.247 0-8.78-8.9252-11.755-15.818-14.15-10.884-3.7732-20.753-8.7075-20.753-21.623 0-12.19 9.6507-19.302 21.261-19.302a31.009 31.009 0 0 1 17.56 6.0227l1.4514-4.4988h5.0791v23.002zm59.919 29.097c0 11.828-6.821 18.648-18.576 18.648-11.755 0-18.649-6.8208-18.649-18.648v-45.279h-10.667v-5.9502c6.7482-1.5963 11.247-4.0635 14.005-7.4738 2.9752-3.6282 4.8617-10.522 5.8773-19.156h5.6599v25.76h20.1v6.8208h-20.1v46.15c0 7.8367 3.1929 10.231 6.6759 10.231 5.0791 0 8.6348-3.7007 8.6348-12.336v-6.8935h7.0387zm22.121-17.197c0.50781 11.537 1.016 29.46 15.964 29.46 9.7958 0 14.73-8.0543 18.213-15.964l5.9504 3.1202c-5.66 11.465-12.626 19.809-26.485 19.809-21.188 0-29.823-18.14-29.823-36.716 0-17.85 8.7075-36.717 28.517-36.717 21.333 0 27.937 20.463 28.372 37.007zm24.526-6.3855c-0.29008-16.689-4.3536-24.526-11.9-24.526s-11.973 8.4898-12.481 24.526zm115.64-10.014v37.805c0.07269 5.2245 2.0319 7.2561 7.2564 7.2561h1.9592v5.6697h-24.091v-49.352c0-9.7234-2.9025-13.714-9.1426-13.714-7.8369 0-11.465 8.9977-11.465 21.478v28.662c0.07269 5.2245 2.0316 7.2561 7.2561 7.2561h2.3947v5.6697h-24.526v-49.352c0-9.7234-2.9752-13.714-9.2156-13.714-8.127 0-11.465 8.9977-11.465 21.478v28.662c0.07235 5.2245 2.0316 7.2561 7.2561 7.2561h2.3947v5.6697h-34.467v-5.6697h2.6848c5.2245 0 7.2561-2.0316 7.2561-7.2561v-44.045c-0.07235-5.2245-2.0316-7.2562-7.2561-7.2562h-1.9592v-5.6599h23.22v7.7642a20.051 20.051 0 0 1 16.472-8.6349c8.7075 0 14.44 3.991 17.923 10.594a20.032 20.032 0 0 1 17.488-10.594c12.771 0 20.027 7.3289 20.027 20.027zm55.258 4.499c-2.9752-12.698-8.8525-19.011-17.56-19.011-6.0227 0-9.9412 3.483-9.9412 9.5782 0 7.4014 8.7075 9.6509 14.367 11.537 12.045 3.9184 22.639 9.1429 22.639 23.22 0 13.859-10.377 22.422-23.8 22.422a30.417 30.417 0 0 1-19.374-7.111l-1.8142 5.5969h-5.0794v-26.64h5.0794c3.1929 10.376 8.4174 22.204 21.188 22.204 6.6756 0 11.029-4.644 11.029-11.247 0-8.78-8.9252-11.755-15.818-14.15-10.884-3.7732-20.753-8.7075-20.753-21.623 0-12.19 9.6507-19.302 21.261-19.302a31.009 31.009 0 0 1 17.56 6.0227l1.4514-4.4988h5.0791v23.002zm-558.86 12.232h-20v-20h20zm-20-66v34h6v-1c0-16 9-26 26-26h1v72c0 10-4 14-14 14h-3v7h52v-7h-3c-10 0-14-4-14-14v-72h1c17 0 26 10 26 26v1h6v-34zm64 66h20v-20h-20z"/>
</svg>
