<?xml version="1.0" encoding="UTF-8"?>
<svg id="Ebene_1" data-name="Ebene 1" xmlns="http://www.w3.org/2000/svg" viewBox="0 0 1530.99 314.14">
  <defs>
    <style>
      .cls-1 {
        fill: #e20074;
      }
    </style>
  </defs>
  <path class="cls-1" d="M56.69,187.08H0v-56.69h56.69v56.69ZM0,0v96.38h17.01v-2.83c0-45.35,25.51-73.7,73.7-73.7h2.83v204.09c0,28.35-11.34,39.68-39.68,39.68h-8.5v19.84h147.4v-19.84h-8.5c-28.35,0-39.68-11.34-39.68-39.68V19.84h2.83c48.19,0,73.7,28.35,73.7,73.7v2.83h17.01V0H0ZM181.42,187.08h56.69v-56.69h-56.69v56.69Z"/>
  <g>
    <path class="cls-1" d="M347.08,190.92h45.83c3.73,19.01,16.3,26.48,33.27,26.48,19.35,0,29.2-10.86,29.2-25.46s-9.51-22.07-27.16-26.82l-26.14-7.47c-35.98-9.84-50.58-35.98-50.58-63.82,0-43.11,32.25-70.95,74.35-70.95,45.83,0,70.61,26.82,75.02,68.57h-44.81c-2.72-16.97-12.56-25.46-30.21-25.46-15.62,0-27.5,9.51-27.5,24.78s10.52,21.05,23.08,24.44l26.14,7.13c33.95,8.83,54.66,33.95,54.66,66.88,0,45.49-33.61,71.29-76.04,71.29-46.85,0-75.02-24.78-79.1-69.59Z"/>
    <path class="cls-1" d="M628.85,91.45h46.85l-63.82,181.28c-8.83,24.78-25.8,41.42-53.64,41.42-8.49,0-17.99-1.02-26.48-4.41v-34.97c5.09,1.36,11.54,2.04,17.99,2.04,10.86,0,17.31-4.07,22.41-17.99l3.73-9.84-59.07-157.52h46.85l31.91,99.13h2.04l31.23-99.13Z"/>
    <path class="cls-1" d="M685.49,208.57h40.74c2.38,11.88,10.18,16.97,21.73,16.97s19.01-5.77,19.01-15.28-7.47-14.26-18.33-17.31l-22.41-5.77c-23.76-6.45-38.7-21.39-38.7-49.9s23.08-50.92,60.43-50.92c34.63,0,57.71,19.69,61.11,52.62h-42.1c-1.7-11.88-8.15-17.65-19.01-17.65s-17.65,6.79-17.65,15.28,5.09,13.24,14.6,15.28l22.07,5.77c27.84,7.13,42.43,23.76,42.43,49.22,0,32.59-23.76,53.64-61.45,53.64s-59.75-19.35-62.46-51.94Z"/>
    <path class="cls-1" d="M859.47,206.87v-78.08h-27.84v-37.34h27.84v-26.48l35.64-32.93h8.15v59.41h41.76v37.34h-41.76v72.65c0,12.22,7.13,18.67,19.69,18.67,6.45,0,12.9-1.02,18.67-2.38v34.29c-9.17,4.07-19.01,5.77-31.23,5.77-30.21,0-50.92-17.65-50.92-50.92Z"/>
    <path class="cls-1" d="M1109.93,183.79h-102.52c2.38,30.89,14.94,39.72,31.57,39.72,13.24,0,22.07-5.09,26.14-15.28h44.13c-6.45,32.25-34.29,52.28-70.27,52.28-43.79,0-73.33-31.57-73.33-87.25s28.52-87.25,74.35-87.25c42.77,0,70.61,32.59,70.61,82.49,0,5.77,0,11.54-.68,15.28ZM1008.77,152.22h60.43c-3.06-22.07-14.6-29.2-29.2-29.2-15.96,0-27.16,7.13-31.23,29.2Z"/>
    <path class="cls-1" d="M1374.89,146.79v108.29h-43.79v-102.86c0-15.96-5.77-26.14-21.39-26.14-16.97,0-28.18,12.56-28.18,32.93v96.07h-43.79v-102.86c0-15.96-5.77-26.14-21.39-26.14-16.63,0-27.84,12.9-27.84,32.93v96.07h-43.79V91.45h41.08v20.03h2.04c8.49-15.96,24.1-25.46,43.79-25.46,22.07,0,36.66,8.83,43.79,26.14h2.04c9.17-16.97,26.48-26.14,47.53-26.14,33.27,0,49.9,20.71,49.9,60.77Z"/>
    <path class="cls-1" d="M1407.08,208.57h40.74c2.38,11.88,10.18,16.97,21.73,16.97s19.01-5.77,19.01-15.28-7.47-14.26-18.33-17.31l-22.41-5.77c-23.76-6.45-38.7-21.39-38.7-49.9s23.08-50.92,60.43-50.92c34.63,0,57.71,19.69,61.11,52.62h-42.1c-1.7-11.88-8.15-17.65-19.01-17.65s-17.65,6.79-17.65,15.28,5.09,13.24,14.6,15.28l22.07,5.77c27.84,7.13,42.43,23.76,42.43,49.22,0,32.59-23.76,53.64-61.45,53.64s-59.75-19.35-62.46-51.94Z"/>
  </g>
</svg>